<svg width="1919" height="158" viewBox="0 0 1919 158" fill="none" xmlns="http://www.w3.org/2000/svg">
<g clip-path="url(#clip0_54_1136)">
<path d="M-1 51.0148L19 52.3328C39 53.6509 79 56.2869 119 44.249C159 32.299 199 5.58732 239 6.37813C279 7.08107 319 35.1987 359 38.4498C399 41.613 439 19.9976 479 11.6502C519 3.30276 559 8.22334 599 11.6502C639 14.9891 679 16.7465 719 12.5289C759 8.22334 799 -1.96931 839 3.82995C879 9.71707 919 31.684 959 46.7972C999 61.8226 1039 70.0821 1079 59.3623C1119 48.6424 1159 19.1189 1199 10.42C1239 1.80899 1279 14.1104 1319 27.5542C1359 41.0858 1399 55.6718 1439 58.3078C1479 60.9439 1519 51.6299 1559 36.6924C1599 21.7549 1639 1.19393 1679 0.051652C1719 -1.09063 1759 17.0101 1799 24.9182C1839 32.8262 1879 30.5417 1899 29.3115L1919 28.1693V167H1899C1879 167 1839 167 1799 167C1759 167 1719 167 1679 167C1639 167 1599 167 1559 167C1519 167 1479 167 1439 167C1399 167 1359 167 1319 167C1279 167 1239 167 1199 167C1159 167 1119 167 1079 167C1039 167 999 167 959 167C919 167 879 167 839 167C799 167 759 167 719 167C679 167 639 167 599 167C559 167 519 167 479 167C439 167 399 167 359 167C319 167 279 167 239 167C199 167 159 167 119 167C79 167 39 167 19 167H-1V51.0148Z" fill="#E8EAED"/>
<path d="M-1 75.8775L19 62.1556C39 48.3264 79 20.8824 119 8.33967C159 -4.20307 199 -1.63019 239 9.62612C279 20.8824 319 40.8222 359 42.6446C399 44.4671 439 27.9578 479 20.9896C519 14.0214 559 16.5943 599 24.2057C639 31.9243 679 44.7887 719 40.2861C759 35.8908 799 14.0214 839 11.7702C879 9.41171 919 26.5642 959 27.6362C999 28.7082 1039 13.6998 1079 7.05322C1119 0.513844 1159 2.22909 1199 5.44518C1239 8.66127 1279 13.3782 1319 10.1621C1359 6.94605 1399 -4.20309 1439 6.51721C1479 17.2375 1519 49.8272 1559 57.4386C1599 65.1572 1639 48.0048 1679 45.5391C1719 42.9662 1759 55.1873 1799 57.4386C1839 59.7971 1879 52.2929 1899 48.5408L1919 44.7887V167H1899C1879 167 1839 167 1799 167C1759 167 1719 167 1679 167C1639 167 1599 167 1559 167C1519 167 1479 167 1439 167C1399 167 1359 167 1319 167C1279 167 1239 167 1199 167C1159 167 1119 167 1079 167C1039 167 999 167 959 167C919 167 879 167 839 167C799 167 759 167 719 167C679 167 639 167 599 167C559 167 519 167 479 167C439 167 399 167 359 167C319 167 279 167 239 167C199 167 159 167 119 167C79 167 39 167 19 167H-1V75.8775Z" fill="#C7DBEE"/>
<path d="M-1 115.323L19 113.385C39 111.34 79 107.464 119 103.265C159 99.1739 199 94.8675 239 84.6397C279 74.412 319 58.2629 359 51.8032C399 45.3436 439 48.5734 479 57.4016C519 66.1221 559 80.5486 599 90.561C639 100.573 679 106.387 719 99.3892C759 92.3913 799 72.5817 839 68.8136C879 65.0455 919 77.3188 959 79.472C999 81.6252 1039 73.6583 1079 72.4741C1119 71.1822 1159 76.5652 1199 84.6397C1239 92.7142 1279 103.48 1319 99.4968C1359 95.6211 1399 76.8881 1439 67.9523C1479 59.0165 1519 59.6625 1559 55.7867C1599 51.8033 1639 43.1904 1679 48.8964C1719 54.7101 1759 74.735 1799 78.9337C1839 83.0248 1879 71.1821 1899 65.2608L1919 59.3395V167H1899C1879 167 1839 167 1799 167C1759 167 1719 167 1679 167C1639 167 1599 167 1559 167C1519 167 1479 167 1439 167C1399 167 1359 167 1319 167C1279 167 1239 167 1199 167C1159 167 1119 167 1079 167C1039 167 999 167 959 167C919 167 879 167 839 167C799 167 759 167 719 167C679 167 639 167 599 167C559 167 519 167 479 167C439 167 399 167 359 167C319 167 279 167 239 167C199 167 159 167 119 167C79 167 39 167 19 167H-1V115.323Z" fill="#9ECEED"/>
<path d="M-1 107.791L19 113.174C39 118.557 79 129.322 119 131.798C159 134.381 199 128.568 239 127.922C279 127.169 319 131.475 359 128.999C399 126.415 439 117.157 479 117.695C519 118.234 559 128.568 599 125.554C639 122.54 679 105.961 719 105.961C759 105.961 799 122.54 839 120.925C879 119.31 919 99.5022 959 91.4283C999 83.3544 1039 87.0146 1079 96.8109C1119 106.715 1159 122.863 1199 125.877C1239 128.999 1279 118.88 1319 113.497C1359 108.114 1399 107.468 1439 106.715C1479 105.961 1519 105.315 1559 110.698C1599 116.081 1639 127.492 1679 124.262C1719 121.033 1759 103.162 1799 104.239C1839 105.315 1879 125.339 1899 135.458L1919 145.47V167H1899C1879 167 1839 167 1799 167C1759 167 1719 167 1679 167C1639 167 1599 167 1559 167C1519 167 1479 167 1439 167C1399 167 1359 167 1319 167C1279 167 1239 167 1199 167C1159 167 1119 167 1079 167C1039 167 999 167 959 167C919 167 879 167 839 167C799 167 759 167 719 167C679 167 639 167 599 167C559 167 519 167 479 167C439 167 399 167 359 167C319 167 279 167 239 167C199 167 159 167 119 167C79 167 39 167 19 167H-1V107.791Z" fill="#68C2E8"/>
</g>
<defs>
<clipPath id="clip0_54_1136">
<rect width="1920" height="167" fill="white" transform="translate(-1)"/>
</clipPath>
</defs>
</svg>
