<svg width="73" height="75" viewBox="0 0 73 75" fill="none" xmlns="http://www.w3.org/2000/svg">
<g clip-path="url(#clip0_64_1127)">
<path fill-rule="evenodd" clip-rule="evenodd" d="M72.5919 27.0429C72.0128 25.0444 70.9019 23.2396 69.3772 21.8199C67.8524 20.4002 65.9707 19.4186 63.9316 18.9793C64.2896 16.8498 64.0421 14.6629 63.2174 12.6664C62.3926 10.6699 61.0235 8.9437 59.2653 7.68341C57.5071 6.42312 55.4299 5.67912 53.2693 5.53574C51.1087 5.39235 48.9511 5.85532 47.0408 6.87216C46.1632 4.89856 44.7487 3.20963 42.9575 1.99684C41.1663 0.784053 39.0703 0.0959298 36.9069 0.0104885C34.7435 -0.0749527 32.5994 0.445706 30.7177 1.51343C28.836 2.58116 27.2919 4.15324 26.2605 6.05144C24.3817 5.14834 22.2933 4.76763 20.2157 4.94949C18.138 5.13134 16.1481 5.86901 14.4558 7.08467C12.7636 8.30033 11.4318 9.94891 10.6009 11.8565C9.76999 13.764 9.47084 15.8599 9.73499 17.9229C7.67902 18.2816 5.7586 19.1881 4.17706 20.5463C2.59553 21.9045 1.41174 23.6639 0.751047 25.6382C0.0903504 27.6124 -0.022667 29.7281 0.423961 31.7612C0.870589 33.7943 1.86024 35.6691 3.28813 37.1872C1.83462 38.6793 0.812205 40.5351 0.328865 42.5587C-0.154475 44.5822 -0.0807953 46.6984 0.542122 48.6837C1.16504 50.6689 2.31407 52.4496 3.86785 53.8376C5.42164 55.2256 7.3225 56.1694 9.36967 56.5693C9.06126 58.6275 9.31668 60.7306 10.1089 62.656C10.9011 64.5813 12.2007 66.2572 13.87 67.5062C15.5392 68.7553 17.5162 69.5311 19.5914 69.7514C21.6667 69.9718 23.7631 69.6285 25.6587 68.7579C26.617 70.6068 28.0584 72.1634 29.8304 73.263C31.6025 74.3626 33.6396 74.9646 35.7264 75.0052C37.8132 75.0458 39.8723 74.5236 41.6861 73.4937C43.4998 72.4638 45.001 70.9646 46.0308 69.1543C47.8917 70.0947 49.9727 70.5169 52.0541 70.3761C54.1356 70.2354 56.1403 69.537 57.8569 68.3546C59.5734 67.1723 60.938 65.5498 61.8067 63.6584C62.6755 61.7671 63.0161 59.6769 62.7927 57.6086C64.8521 57.2853 66.7859 56.4137 68.39 55.0857C69.994 53.7578 71.2089 52.0228 71.9065 50.0637C72.6041 48.1046 72.7585 45.9941 72.3534 43.9549C71.9483 41.9156 70.9987 40.0231 69.6049 38.4772C71.0902 37.0158 72.1518 35.1814 72.6777 33.1679C73.2035 31.1544 73.1738 29.0367 72.5919 27.0386" fill="#85C7E7"/>
<g clip-path="url(#clip1_64_1127)">
<path d="M36.4996 19.0044C29.1108 19.0044 23.0996 25.0156 23.0996 32.4043C23.0996 41.574 35.0913 55.0355 35.6019 55.6041C36.0814 56.1382 36.9187 56.1373 37.3974 55.6041C37.9079 55.0355 49.8996 41.574 49.8996 32.4043C49.8995 25.0156 43.8883 19.0044 36.4996 19.0044ZM36.4996 39.1462C32.7821 39.1462 29.7578 36.1218 29.7578 32.4043C29.7578 28.6868 32.7822 25.6625 36.4996 25.6625C40.217 25.6625 43.2413 28.6869 43.2413 32.4044C43.2413 36.1219 40.217 39.1462 36.4996 39.1462Z" fill="white"/>
</g>
</g>
<defs>
<clipPath id="clip0_64_1127">
<rect width="73" height="75" fill="white"/>
</clipPath>
<clipPath id="clip1_64_1127">
<rect width="37" height="37" fill="white" transform="translate(18 19.0044)"/>
</clipPath>
</defs>
</svg>
