<svg width="73" height="75" viewBox="0 0 73 75" fill="none" xmlns="http://www.w3.org/2000/svg">
<g clip-path="url(#clip0_64_1134)">
<path fill-rule="evenodd" clip-rule="evenodd" d="M72.5919 27.0429C72.0128 25.0444 70.9019 23.2396 69.3772 21.8199C67.8524 20.4002 65.9707 19.4186 63.9316 18.9793C64.2896 16.8498 64.0421 14.6629 63.2174 12.6664C62.3926 10.6699 61.0235 8.9437 59.2653 7.68341C57.5071 6.42312 55.4299 5.67912 53.2693 5.53574C51.1087 5.39235 48.9511 5.85532 47.0408 6.87216C46.1632 4.89856 44.7487 3.20963 42.9575 1.99684C41.1663 0.784053 39.0703 0.0959298 36.9069 0.0104885C34.7435 -0.0749527 32.5994 0.445706 30.7177 1.51343C28.836 2.58116 27.2919 4.15324 26.2605 6.05144C24.3817 5.14834 22.2933 4.76763 20.2157 4.94949C18.138 5.13134 16.1481 5.86901 14.4558 7.08467C12.7636 8.30033 11.4318 9.94891 10.6009 11.8565C9.76999 13.764 9.47084 15.8599 9.73499 17.9229C7.67902 18.2816 5.7586 19.1881 4.17706 20.5463C2.59553 21.9045 1.41174 23.6639 0.751047 25.6382C0.0903504 27.6124 -0.022667 29.7281 0.423961 31.7612C0.870589 33.7943 1.86024 35.6691 3.28813 37.1872C1.83462 38.6793 0.812205 40.5351 0.328865 42.5587C-0.154475 44.5822 -0.0807953 46.6984 0.542122 48.6837C1.16504 50.6689 2.31407 52.4496 3.86785 53.8376C5.42164 55.2256 7.3225 56.1694 9.36967 56.5693C9.06126 58.6275 9.31668 60.7306 10.1089 62.656C10.9011 64.5813 12.2007 66.2572 13.87 67.5062C15.5392 68.7553 17.5162 69.5311 19.5914 69.7514C21.6667 69.9718 23.7631 69.6285 25.6587 68.7579C26.617 70.6068 28.0584 72.1634 29.8304 73.263C31.6025 74.3626 33.6396 74.9646 35.7264 75.0052C37.8132 75.0458 39.8723 74.5236 41.6861 73.4937C43.4998 72.4638 45.001 70.9646 46.0308 69.1543C47.8917 70.0947 49.9727 70.5169 52.0541 70.3761C54.1356 70.2354 56.1403 69.537 57.8569 68.3546C59.5734 67.1723 60.938 65.5498 61.8067 63.6584C62.6755 61.7671 63.0161 59.6769 62.7927 57.6086C64.8521 57.2853 66.7859 56.4137 68.39 55.0857C69.994 53.7578 71.2089 52.0228 71.9065 50.0637C72.6041 48.1046 72.7585 45.9941 72.3534 43.9549C71.9483 41.9156 70.9987 40.0231 69.6049 38.4772C71.0902 37.0158 72.1518 35.1814 72.6777 33.1679C73.2035 31.1544 73.1738 29.0367 72.5919 27.0386" fill="#85C7E7"/>
<path d="M21.5513 31.9253C22.0193 32.2556 23.4302 33.2365 25.7839 34.8676C28.1377 36.4986 29.9409 37.7545 31.1936 38.6353C31.3312 38.7318 31.6236 38.9417 32.0709 39.2652C32.5182 39.5889 32.8899 39.8505 33.1857 40.05C33.4817 40.2494 33.8395 40.4732 34.2596 40.7209C34.6795 40.9683 35.0753 41.1545 35.4469 41.2777C35.8186 41.402 36.1627 41.4635 36.4792 41.4635H36.5H36.5208C36.8374 41.4635 37.1816 41.4019 37.5533 41.2777C37.9248 41.1545 38.321 40.9681 38.7405 40.7209C39.1602 40.4729 39.5181 40.2494 39.8141 40.05C40.1101 39.8505 40.4815 39.5889 40.929 39.2652C41.3762 38.9414 41.669 38.7318 41.8066 38.6353C43.0727 37.7545 46.294 35.5176 51.4694 31.9249C52.4742 31.2232 53.3137 30.3764 53.988 29.3853C54.6629 28.3946 55 27.3553 55 26.268C55 25.3594 54.6729 24.5816 54.019 23.9348C53.3652 23.2877 52.5908 22.9644 51.6963 22.9644H21.3034C20.2436 22.9644 19.428 23.3222 18.8568 24.0379C18.2856 24.7537 18 25.6484 18 26.722C18 27.5892 18.3787 28.5289 19.1356 29.5405C19.8925 30.5523 20.698 31.3473 21.5513 31.9253Z" fill="white"/>
<path d="M52.935 34.1343C48.4206 37.1898 44.9927 39.5645 42.653 41.2578C41.8684 41.8357 41.2319 42.2868 40.7431 42.61C40.2543 42.9335 39.6043 43.2639 38.792 43.6009C37.98 43.9385 37.2233 44.1068 36.5211 44.1068H36.5001H36.4793C35.7773 44.1068 35.0201 43.9385 34.2082 43.6009C33.3962 43.2639 32.7457 42.9335 32.257 42.61C31.7685 42.2868 31.1318 41.8357 30.3473 41.2578C28.4889 39.8951 25.0684 37.5203 20.0856 34.1343C19.3008 33.6116 18.6057 33.0124 18 32.3381V48.7316C18 49.6406 18.3233 50.418 18.9704 51.0649C19.6173 51.7121 20.3951 52.0356 21.3037 52.0356H51.6966C52.605 52.0356 53.3827 51.7121 54.0297 51.0649C54.6769 50.4178 55.0001 49.6407 55.0001 48.7316V32.3381C54.4081 32.9985 53.72 33.5976 52.935 34.1343Z" fill="white"/>
</g>
<defs>
<clipPath id="clip0_64_1134">
<rect width="73" height="75" fill="white"/>
</clipPath>
</defs>
</svg>
