<svg xmlns="http://www.w3.org/2000/svg" fill="none" viewBox="136.98 29.93 366.04 445.13">
<path d="M320 475.057C421.079 475.057 503.02 454.119 503.02 428.291C503.02 402.463 421.079 381.525 320 381.525C218.921 381.525 136.98 402.463 136.98 428.291C136.98 454.119 218.921 475.057 320 475.057Z" fill="#C3B8A7"/>
<g opacity="0.7">
<path d="M320 475.057C421.079 475.057 503.02 454.119 503.02 428.291C503.02 402.463 421.079 381.525 320 381.525C218.921 381.525 136.98 402.463 136.98 428.291C136.98 454.119 218.921 475.057 320 475.057Z" fill="white"/>
</g>
<g opacity="0.1">
<path d="M318.064 461.606C395.235 461.606 457.794 445.595 457.794 425.843C457.794 406.092 395.235 390.081 318.064 390.081C240.893 390.081 178.334 406.092 178.334 425.843C178.334 445.595 240.893 461.606 318.064 461.606Z" fill="white"/>
</g>
<path d="M208.631 390.492L205.42 389.927L200.341 418.828L203.552 419.392L208.631 390.492Z" fill="#A67C52"/>
<path d="M253.55 389.11L250.305 389.423L253.121 418.631L256.366 418.318L253.55 389.11Z" fill="#A67C52"/>
<path d="M229.371 395.088C246.836 395.088 260.995 389.628 260.995 382.893C260.995 376.158 246.836 370.699 229.371 370.699C211.905 370.699 197.746 376.158 197.746 382.893C197.746 389.628 211.905 395.088 229.371 395.088Z" fill="#8C6239"/>
<path d="M229.371 392.063C246.836 392.063 260.995 386.603 260.995 379.868C260.995 373.134 246.836 367.674 229.371 367.674C211.905 367.674 197.746 373.134 197.746 379.868C197.746 386.603 211.905 392.063 229.371 392.063Z" fill="#A67C52"/>
<path d="M210.039 361.129C210.039 361.129 212.212 400.589 259.265 427.485L261.911 397.735C253.252 389.74 246.56 379.848 242.358 368.835C242.358 368.835 228.232 370.366 210.039 361.129Z" fill="#15365A"/>
<path d="M245.344 375.801C245.344 375.801 278.61 404.457 306.701 408.938L302.834 388.158L250.6 367.341C250.6 367.341 247.687 368.672 242.395 368.82C243.209 371.215 244.195 373.548 245.344 375.801Z" fill="#15365A"/>
<g opacity="0.2">
<path d="M245.344 375.801C245.344 375.801 278.61 404.457 306.701 408.938L302.834 388.158L250.6 367.341C250.6 367.341 247.687 368.672 242.395 368.82C243.209 371.215 244.195 373.548 245.344 375.801Z" fill="black"/>
</g>
<path d="M280.45 393.254C280.45 393.254 272.503 383.677 261.91 397.735L259.264 427.485C259.264 427.485 260.284 429.519 265.983 430.746L280.45 393.254Z" fill="#E94F50"/>
<path d="M281.464 394.733C281.465 394.457 281.394 394.186 281.257 393.947C281.119 393.708 280.921 393.509 280.682 393.372C280.443 393.234 280.172 393.162 279.897 393.164C279.621 393.165 279.351 393.239 279.113 393.379C275.417 395.539 268.49 401.233 265.482 414.352C265.482 414.352 262.724 429.319 265.984 430.746C265.984 430.746 278.411 431.76 281.464 412.606V394.733Z" fill="white"/>
<path d="M299.295 386.761C299.295 386.761 303.058 418.123 313.244 409.367C313.244 409.367 308.151 403.045 307.951 387.966L299.295 386.761Z" fill="#E94F50"/>
<path d="M307.951 387.951C307.951 387.951 306.761 403.429 313.244 409.353C313.244 409.353 322.204 411.793 322.817 390.806L307.951 387.951Z" fill="white"/>
<path d="M417.014 382.124L413.803 381.56L408.724 410.46L411.935 411.025L417.014 382.124Z" fill="#A67C52"/>
<path d="M394.515 412.2C394.515 412.2 379.442 418.996 383.5 424.512C383.919 425.065 384.458 425.514 385.077 425.825C385.696 426.137 386.378 426.302 387.071 426.309C394.153 426.428 423.042 425.903 409.107 408.606L394.515 412.2Z" fill="#C3B8A7"/>
<g opacity="0.2">
<path d="M394.515 412.2C394.515 412.2 379.442 418.996 383.5 424.512C383.919 425.065 384.458 425.514 385.077 425.825C385.696 426.137 386.378 426.302 387.071 426.309C394.153 426.428 423.042 425.903 409.107 408.606L394.515 412.2Z" fill="black"/>
</g>
<path d="M412.649 415.054C412.649 415.054 395.942 431.153 408.162 431.323C408.162 431.323 437.088 429.489 428.121 413.575L412.649 415.054Z" fill="#C3B8A7"/>
<path d="M452.368 283.016L457.048 385.711C457.048 385.711 445.02 389.586 438.722 397.114C436.901 391.232 435.872 385.134 435.662 378.981L431.625 324.472C431.46 322.065 430.801 319.718 429.69 317.576C428.579 315.435 427.04 313.545 425.168 312.023C423.297 310.502 421.132 309.381 418.809 308.732C416.487 308.082 414.055 307.917 411.666 308.248C406.632 308.987 401.842 311.945 399.099 319.377C398.629 320.654 398.379 322.002 398.36 323.363C398.168 334.877 396.948 396.359 392.889 396.914C392.889 396.914 386.976 388.78 378.63 387.13L370.498 297.34L452.368 283.016Z" fill="#15365A"/>
<path d="M475.963 407.748C472.223 409.752 464.38 408.532 464.38 408.532C440.347 405.478 438.721 397.114 438.721 397.114C439.127 396.626 439.563 396.145 440.022 395.686C446.549 389.09 457.024 385.703 457.024 385.703C467.824 389.171 477.191 402.209 477.191 402.209C478.595 405.115 477.745 406.801 475.963 407.748Z" fill="#C3B8A7"/>
<g opacity="0.2">
<path d="M475.963 407.748C472.223 409.752 464.38 408.532 464.38 408.532C440.347 405.478 438.721 397.114 438.721 397.114C439.127 396.626 439.563 396.145 440.022 395.687C443.193 398.948 452.02 404.657 475.963 407.748Z" fill="white"/>
</g>
<path d="M446.243 381.581L442.998 381.894L445.815 411.102L449.06 410.789L446.243 381.581Z" fill="#A67C52"/>
<path d="M429.755 386.731C442.803 386.731 453.381 381.576 453.381 375.217C453.381 368.858 442.803 363.703 429.755 363.703C416.707 363.703 406.129 368.858 406.129 375.217C406.129 381.576 416.707 386.731 429.755 386.731Z" fill="#8C6239"/>
<path d="M429.755 383.877C442.803 383.877 453.381 378.722 453.381 372.362C453.381 366.003 442.803 360.848 429.755 360.848C416.707 360.848 406.129 366.003 406.129 372.362C406.129 378.722 416.707 383.877 429.755 383.877Z" fill="#A67C52"/>
<path d="M392.888 396.921C385.629 409.153 354.892 409.375 351.107 409.353C350.81 409.356 350.516 409.29 350.249 409.16C350.025 409.076 349.829 408.931 349.683 408.742C349.536 408.553 349.446 408.326 349.421 408.088C349.059 403 378.628 387.138 378.628 387.138C384.668 388.07 389.769 393.239 391.861 395.664C392.533 396.426 392.888 396.921 392.888 396.921Z" fill="#C3B8A7"/>
<g opacity="0.2">
<path d="M392.889 396.921C385.63 409.153 354.892 409.375 351.107 409.353C350.81 409.356 350.517 409.29 350.25 409.16C350.026 409.076 349.83 408.931 349.683 408.742C349.537 408.553 349.447 408.326 349.422 408.088C357.036 407.844 376.774 406.143 391.861 395.664C392.534 396.426 392.889 396.921 392.889 396.921Z" fill="white"/>
</g>
<path d="M391.662 383.677L394.515 412.2C394.515 412.2 384.328 420.334 390.035 419.942C390.035 419.942 407.348 417.909 409.182 410.329L407.555 377.731L391.662 383.677Z" fill="#F2927E"/>
<path d="M335.243 194.172C326.276 223.922 298.377 248.984 298.377 248.984C291.244 255.299 275.357 250.618 275.357 250.618L274.692 249.324L268.039 236.353L284.871 237.728C286.536 237.866 288.21 237.628 289.771 237.033C291.332 236.438 292.739 235.501 293.89 234.29C303.027 224.632 311.218 199.666 311.218 199.666L313.435 197.625L327.895 195.333L335.243 194.172Z" fill="#F5BA97"/>
<path d="M335.242 194.172C326.275 223.922 298.376 248.984 298.376 248.984C291.243 255.299 275.357 250.618 275.357 250.618L274.691 249.324C281.049 248.917 305 245.944 317.116 224.329L327.909 195.34L335.242 194.172Z" fill="#F2927E"/>
<path d="M447.681 161.567C447.681 161.567 448.421 170.877 444.488 174.989C442.477 177.119 439.239 177.858 434.035 175.218L412.235 167.476C412.235 167.476 406.942 165.849 407.962 156.065L408.369 125.501C408.369 125.501 391.662 128.356 379.65 132.637C379.65 132.637 362.337 139.966 347.67 149.957C347.67 149.957 350.516 158.919 352.557 166.226C352.557 166.226 354.597 194.327 334.024 196.183L311.219 199.666L311.914 193.75L316.519 154.453C316.519 154.453 320.57 125.117 327.992 110.127C329.902 106.305 332.956 103.174 336.73 101.172L368.879 84.0447C377.923 80.1864 387.839 78.8375 397.584 80.1401C404.059 81.039 410.288 83.2293 415.902 86.5812C421.535 89.9962 426.553 94.3362 430.746 99.4189C430.746 99.4189 450.934 118.779 447.681 161.567Z" fill="#E94F50"/>
<g opacity="0.2">
<path d="M444.495 174.974C442.485 177.104 439.247 177.843 434.043 175.203L412.243 167.461C412.243 167.461 406.95 165.834 407.97 156.05L408.376 125.486C408.376 125.486 391.67 128.341 379.657 132.623C379.657 132.623 362.344 139.951 347.678 149.942C347.678 149.942 350.524 158.905 352.564 166.211C352.564 166.211 354.604 194.312 334.032 196.168L311.219 199.666L311.914 193.75C320.511 194.978 343.775 195.665 343.612 167.084L335.296 105.549L340.145 103.715C340.145 103.715 365.405 127.557 387.197 98.4132L397.628 80.1548C404.103 81.0538 410.333 83.2441 415.946 86.5959C415.273 87.0544 408.273 92.6525 410.217 124.311L412.05 146.725C412.05 146.725 412.664 153.447 423.878 154.667C423.849 154.638 440.496 157.403 444.495 174.974Z" fill="black"/>
</g>
<path d="M392.445 324.509L385.252 321.729L390.759 310.252L391.003 311.25C391.958 315.423 392.454 319.688 392.482 323.969L392.445 324.509ZM386.265 321.322L391.698 323.43C391.642 319.745 391.246 316.074 390.515 312.463L386.265 321.322Z" fill="black"/>
<path d="M413.232 338.123L404.361 328.599L405.056 328.495C405.795 328.384 423.596 325.855 432.918 333.746L433.879 334.559L432.63 334.396C432.504 334.396 420.004 332.777 413.484 337.916L413.232 338.123ZM405.84 329.138L413.269 337.125C418.873 332.947 428.054 333.25 431.41 333.531C423.212 327.6 409.174 328.769 405.84 329.138Z" fill="black"/>
<path d="M407.555 377.768L412.648 415.054C412.648 415.054 407.348 422.183 411.628 421.983C411.628 421.983 423.648 423.817 428.128 413.627C428.128 413.627 425.015 385.526 426.568 375.912L422.014 365.907L407.555 377.768Z" fill="#F5BA97"/>
<path d="M269.245 255.506L268.639 246.95C265.985 248.577 262.318 246.95 262.318 246.95C255.399 256.12 246.055 248.984 246.055 248.984C242.595 255.913 237.502 251.631 237.502 251.631C237.909 261.622 232.202 258.154 232.202 258.154C226.096 254.079 228.336 274.659 228.336 274.659C229.962 287.29 218.962 286.277 218.962 286.277C205.116 283.622 211.023 276.7 211.023 276.7C214.283 275.68 211.222 273.003 211.222 273.003C209.935 271.455 208.911 269.706 208.191 267.826C207.056 264.854 206.429 261.711 206.336 258.531C206.95 244.48 218.555 242.639 218.555 242.639C232.601 216.556 251.762 231.228 251.762 231.228C263.331 228.403 267.182 233.306 268.454 236.59C268.784 237.418 268.994 238.29 269.075 239.178C274.774 241.618 275.181 245.493 275.181 245.493C277.214 255.299 269.245 255.506 269.245 255.506Z" fill="#3B1514"/>
<g opacity="0.2">
<path d="M269.245 255.506L268.639 246.95C265.985 248.577 262.318 246.95 262.318 246.95C255.399 256.12 246.055 248.984 246.055 248.984C242.595 255.913 237.502 251.631 237.502 251.631C237.909 261.622 232.202 258.153 232.202 258.153C226.096 254.079 228.336 274.659 228.336 274.659C229.962 287.29 218.962 286.277 218.962 286.277C205.116 283.622 211.023 276.7 211.023 276.7C214.283 275.68 211.222 273.003 211.222 273.003C209.935 271.455 208.911 269.706 208.191 267.826C208.931 266.266 210.786 264.18 215.702 263.219C215.702 263.219 221.409 264.033 221.002 256.29C221.002 256.29 218.718 250.004 225.393 246.758C227.612 245.7 230.096 245.329 232.527 245.693C236.319 246.24 244.163 246.543 248.095 240.805C248.095 240.805 252.168 228.78 259.923 236.116C259.923 236.116 262.436 237.743 268.469 236.59C268.799 237.418 269.008 238.29 269.09 239.178C274.789 241.618 275.196 245.493 275.196 245.493C277.214 255.299 269.245 255.506 269.245 255.506Z" fill="black"/>
</g>
<path d="M273.191 281.322C273.193 284.913 272.062 288.413 269.96 291.324C267.857 294.234 264.891 296.407 261.482 297.532C261.001 297.687 260.513 297.828 260.003 297.954C245.448 301.437 235.897 297.517 231.291 294.663C230.122 293.97 229.034 293.149 228.046 292.215L224.461 284.894C229.998 281.877 228.298 274.659 228.298 274.659C227.07 269.157 228.201 261.992 228.201 261.992C228.512 255.639 232.164 258.153 232.164 258.153C238.078 261.008 237.464 251.631 237.464 251.631C243.164 255.506 246.017 248.984 246.017 248.984C256.61 255.913 262.28 246.95 262.28 246.95C266.56 248.577 268.601 246.95 268.601 246.95L269.207 255.506C269.414 266.303 271.425 271.398 271.425 271.398C272.504 274.6 273.099 277.945 273.191 281.322Z" fill="#F5BA97"/>
<path d="M278.411 321.115H262.525L264.972 339.255C263.745 353.86 258.23 361.3 254.038 364.901C252.585 366.22 250.904 367.265 249.078 367.985C229.858 372.422 208.916 361.196 200.429 355.909C199.361 355.24 198.592 354.185 198.281 352.964C197.97 351.742 198.141 350.448 198.758 349.349L211.939 325.944L212.826 324.376C218.503 303.559 229.725 295.683 231.307 294.663C235.912 297.517 245.463 301.437 260.019 297.954C260.521 297.828 261.009 297.687 261.497 297.532L276.969 298.76C277.229 298.781 277.482 298.857 277.709 298.985C277.937 299.112 278.134 299.287 278.288 299.497C278.441 299.708 278.548 299.949 278.6 300.205C278.652 300.461 278.648 300.724 278.588 300.978C276.519 309.231 278.411 321.115 278.411 321.115Z" fill="#E94F50"/>
<g opacity="0.2">
<path d="M254.038 364.901C252.585 366.22 250.904 367.265 249.078 367.985C229.858 372.422 208.916 361.196 200.429 355.909C199.361 355.24 198.592 354.185 198.281 352.964C197.97 351.742 198.141 350.448 198.758 349.349L211.939 325.944L211.991 325.996C211.991 325.996 215.879 326.617 219.339 333.953C219.339 333.953 224.639 354.333 238.078 346.184C239.139 347.577 240.382 348.821 241.775 349.882L254.038 364.901Z" fill="black"/>
</g>
<g opacity="0.2">
<path d="M237.909 303.655C238.206 305.521 238.888 307.304 239.912 308.891L249.899 321.832C251.171 323.463 251.86 325.473 251.858 327.541C251.862 328.685 251.615 329.815 251.135 330.852C250.654 331.89 249.953 332.809 249.078 333.546L253.765 337.421L263.205 327.319L262.525 321.115C261.335 316.837 260.45 312.481 259.879 308.077C259.879 308.077 260.285 300.128 254.172 303.389C251.824 304.369 249.283 304.8 246.743 304.652C244.203 304.503 241.731 303.778 239.513 302.531C239.334 302.434 239.132 302.389 238.929 302.4C238.725 302.412 238.53 302.48 238.363 302.597C238.196 302.713 238.065 302.874 237.985 303.061C237.905 303.248 237.878 303.454 237.909 303.655V303.655Z" fill="black"/>
</g>
<path d="M277.132 349.445C276.922 349.45 276.711 349.432 276.504 349.394C274.567 349.26 273.2 348.654 272.475 347.508C272.178 346.982 271.996 346.398 271.941 345.797C271.887 345.195 271.96 344.589 272.157 344.017L272.675 342.598L272.874 344.077C272.892 344.234 272.944 344.387 273.027 344.522C273.11 344.658 273.222 344.773 273.355 344.86C274.331 345.6 276.755 345.637 280.008 345.038C280.627 344.915 281.266 344.938 281.875 345.103C282.484 345.269 283.047 345.573 283.519 345.992L283.83 346.273L283.512 346.539C280.555 349.098 278.212 349.445 277.132 349.445ZM272.697 345.26C272.641 345.906 272.792 346.553 273.126 347.108C273.717 348.018 274.9 348.543 276.637 348.661C276.711 348.661 279.195 349.142 282.706 346.288C281.959 345.79 281.045 345.606 280.163 345.777C277.694 346.236 274.434 346.554 272.948 345.474C272.849 345.41 272.755 345.338 272.667 345.26H272.697Z" fill="black"/>
<path d="M278.367 354.762C277.339 354.75 276.313 354.661 275.299 354.496L275.417 353.757C279.261 354.356 280.666 353.757 281.161 353.387C281.335 353.268 281.459 353.089 281.508 352.884H282.248C282.227 353.082 282.167 353.274 282.07 353.448C281.973 353.622 281.843 353.775 281.686 353.897C281.028 354.481 279.919 354.762 278.367 354.762Z" fill="black"/>
<path d="M278.085 359.074C277.118 359.045 276.161 358.87 275.246 358.556L275.468 357.853C278.927 358.948 279.718 357.816 279.726 357.809L280.362 358.186C280.295 358.305 279.785 359.074 278.085 359.074Z" fill="black"/>
<path d="M250.526 456.052L259.671 375.52L269.65 379.218L260.55 457.605C260.516 457.898 260.421 458.18 260.274 458.435C260.126 458.69 259.927 458.912 259.69 459.087C259.454 459.263 259.183 459.387 258.896 459.454C258.609 459.521 258.312 459.529 258.022 459.476L252.278 458.419C251.74 458.321 251.26 458.022 250.934 457.582C250.609 457.143 250.463 456.596 250.526 456.052V456.052Z" fill="#A67C52"/>
<path d="M394.367 382.634L402.262 456.148C402.369 457.152 402.861 458.074 403.635 458.721C404.409 459.368 405.403 459.689 406.409 459.617L409.987 459.358C410.514 459.322 411.028 459.178 411.497 458.937C411.967 458.695 412.382 458.36 412.718 457.952C413.053 457.545 413.302 457.073 413.449 456.565C413.596 456.058 413.638 455.526 413.573 455.002L404.362 379.684L394.367 382.634Z" fill="#A67C52"/>
<path d="M302.856 289.331C302.856 289.331 301.555 313.897 283.636 318.431C281.884 318.881 280.086 319.129 278.277 319.17C277.411 314.308 277.259 309.345 277.826 304.439C277.826 304.439 282.72 305.659 287.199 299.344L292.906 289.361L302.856 289.331Z" fill="#F5BA97"/>
<path d="M283.607 318.431C281.855 318.881 280.056 319.129 278.248 319.17C277.382 314.308 277.23 309.345 277.797 304.439C277.797 304.439 282.69 305.659 287.17 299.344L292.877 289.361H298.185C297.534 290.544 290.985 302.161 282.483 308.92C282.483 308.891 276.954 313.343 283.607 318.431Z" fill="#F2927E"/>
<path d="M294.297 290.551L278.411 291.978C277.295 293.768 275.675 295.187 273.754 296.056C271.833 296.926 269.699 297.208 267.618 296.867C260.484 295.646 264.151 288.518 264.151 288.518C264.151 293.406 270.065 293.199 270.065 293.199C277.805 294.019 276.992 286.883 276.992 286.883L292.272 284.665L294.297 290.551Z" fill="#E94F50"/>
<path d="M308.763 291.978C308.714 292.107 308.662 292.225 308.608 292.333C308.382 292.791 308.055 293.191 307.652 293.504C307.248 293.817 306.779 294.033 306.28 294.138C305.824 294.24 305.354 294.268 304.89 294.219C304.274 294.386 303.646 294.502 303.012 294.567C302.201 294.649 301.384 294.649 300.573 294.567C299.751 294.496 298.943 294.314 298.17 294.027C297.207 294.562 296.077 294.715 295.006 294.456C294.251 294.245 293.578 293.809 293.077 293.206C290.024 287.808 291.044 284.191 292.826 281.921C293.731 280.806 294.904 279.939 296.236 279.402C297.568 278.866 299.015 278.676 300.44 278.852C308.202 279.74 310.597 284.857 310.597 284.857C311.084 285.863 311.39 286.947 311.499 288.059C311.628 288.938 311.418 289.834 310.909 290.562C310.401 291.291 309.633 291.797 308.763 291.978Z" fill="#F5BA97"/>
<path d="M300.572 294.559C299.751 294.488 298.943 294.307 298.17 294.019C297.206 294.555 296.077 294.708 295.006 294.448C296.285 292.856 297.057 290.916 297.224 288.88C297.224 288.793 297.253 288.709 297.305 288.64C297.358 288.571 297.432 288.521 297.515 288.497C297.599 288.474 297.688 288.479 297.768 288.51C297.849 288.542 297.917 288.599 297.963 288.673C299.184 290.459 300.069 292.454 300.572 294.559V294.559Z" fill="#F2927E"/>
<path d="M306.279 294.138C305.823 294.24 305.354 294.268 304.889 294.219C304.274 294.386 303.646 294.502 303.012 294.567L303.98 289.316C304.001 289.213 304.055 289.12 304.134 289.05C304.212 288.98 304.311 288.938 304.416 288.928C304.52 288.919 304.625 288.944 304.714 288.999C304.804 289.055 304.873 289.137 304.912 289.235C305.513 290.825 305.971 292.466 306.279 294.138V294.138Z" fill="#F2927E"/>
<path d="M308.764 291.978C308.715 292.107 308.663 292.225 308.609 292.333C308.461 289.834 308.609 285.678 311.396 287.97L311.499 288.052C311.631 288.932 311.421 289.829 310.913 290.559C310.404 291.29 309.635 291.797 308.764 291.978Z" fill="#F2927E"/>
<path d="M270.056 293.199C270.056 293.199 264.143 293.406 264.143 288.518L276.976 286.883C276.976 286.883 277.796 294.019 270.056 293.199Z" fill="#E94F50"/>
<g opacity="0.2">
<path d="M270.056 293.199C270.056 293.199 264.143 293.406 264.143 288.518L276.976 286.883C276.976 286.883 277.796 294.019 270.056 293.199Z" fill="black"/>
</g>
<path d="M330.143 106.533L346.347 146.681C347.332 149.101 348.19 151.566 348.919 154.076C351.662 163.342 358.174 187.043 361.316 212.726L362.129 297.495C362.129 297.495 434.441 302.997 461.734 282.217L444.495 174.989C444.495 174.989 441.538 179.108 434.035 175.233L412.235 167.49C412.235 167.49 406.735 165.272 407.962 156.08L408.368 125.516C408.368 125.516 397.576 92.3936 397.066 79.9182C393.115 79.583 389.144 79.583 385.193 79.9182C385.193 79.9182 383.759 108.818 387.455 127.646C387.59 128.33 387.459 129.04 387.09 129.632C386.721 130.224 386.141 130.653 385.467 130.833C381.224 131.972 372.464 134.678 365.411 139.16C364.435 139.8 363.295 140.146 362.128 140.158C360.961 140.17 359.814 139.846 358.825 139.226C357.346 138.243 356.777 137.222 355.609 133.872L340.788 98.8495C340.788 98.8495 334.408 101.416 330.143 106.533Z" fill="#C3B8A7"/>
<path d="M353.354 103.294L357.708 108.167C358.119 108.637 358.64 108.998 359.224 109.219C359.808 109.439 360.437 109.512 361.056 109.432C362.535 109.225 364.553 108.256 366.8 105.328C370.038 100.095 371.932 94.1429 372.315 88.001C372.315 88.001 367.31 84.5475 369.099 81.1828L365.041 78.8237L353.354 103.294Z" fill="#F5BA97"/>
<path d="M353.354 103.294L363.858 88.001C366.2 90.0437 367.799 92.8057 368.404 95.8545C368.85 97.8223 368.8 99.87 368.26 101.814C367.719 103.758 366.704 105.537 365.307 106.991C363.259 109.106 360.509 110.608 357.722 108.167L353.354 103.294Z" fill="#F2927E"/>
<path d="M309.68 68.9588C309.68 68.9588 332.285 127.638 358.765 101.556C358.765 101.556 366.409 93.7174 364.575 69.262C364.575 69.262 362.306 62.917 352.703 61.6746C350.353 61.3809 347.972 61.4507 345.643 61.8817C340.868 62.7469 328.035 64.4256 323.429 58.6649C323.429 58.6649 317.523 69.2619 309.68 68.9588Z" fill="#F5BA97"/>
<path d="M396.556 86.5811L393.702 87.646C388.915 89.4482 383.658 89.5708 378.792 87.9936C370.024 85.0947 366.639 77.9585 365.353 73.381C364.958 72.037 364.698 70.6573 364.576 69.262C359.276 59.0716 345.645 61.8669 345.645 61.8669C326.92 65.0838 323.43 58.6501 323.43 58.6501C316.504 70.0606 309.681 68.944 309.681 68.944L310.42 70.6744C310.42 70.6744 304.647 67.6277 303.323 61.4824C302.584 58.088 303.212 53.7546 306.909 48.4671C306.909 48.4671 310.775 39.704 322.181 40.1107C322.181 40.1107 351.314 15.0489 365.16 43.5716C365.16 43.5716 379.664 36.0508 383.996 55.9287C384.466 58.159 384.643 60.4412 384.521 62.7173C384.233 68.7739 384.654 84.1334 396.556 86.5811Z" fill="#3B1514"/>
<g opacity="0.2">
<path d="M371.908 70.6892L365.351 73.381C364.957 72.037 364.697 70.6573 364.575 69.262C359.275 59.0716 345.643 61.8669 345.643 61.8669C326.919 65.0838 323.429 58.6501 323.429 58.6501C316.503 70.0606 309.68 68.944 309.68 68.944L310.419 70.6744C310.419 70.6744 304.645 67.6277 303.322 61.4824C306.937 56.3872 319.142 41.7598 334.607 51.1293C336.302 51.7964 338.113 52.1215 339.935 52.086C341.757 52.0504 343.554 51.6549 345.222 50.9223C345.222 50.9223 375.368 36.2357 371.908 70.6892Z" fill="black"/>
</g>
<g opacity="0.2">
<path d="M396.555 86.5811C375.575 90.4561 379.035 60.4988 379.035 60.4988C378.015 43.1796 365.182 43.5864 365.182 43.5864C365.182 43.5864 379.685 36.0656 384.017 55.9435C384.487 58.1738 384.664 60.456 384.542 62.7321C384.232 68.7739 384.653 84.1334 396.555 86.5811Z" fill="black"/>
</g>
<path d="M368.442 81.2863C371.704 81.2863 374.348 78.0019 374.348 73.9504C374.348 69.8989 371.704 66.6145 368.442 66.6145C365.18 66.6145 362.535 69.8989 362.535 73.9504C362.535 78.0019 365.18 81.2863 368.442 81.2863Z" fill="#F5BA97"/>
<path d="M434.67 166.189C434.485 167.379 434.13 169.62 433.635 172.585C431.417 185.786 426.376 213.362 420.765 226.569L402.632 231.258L401.153 230.319L393.436 225.349L408.959 211.491L412.212 167.476C412.212 167.476 429.828 155.163 434.389 164.148C434.695 164.782 434.793 165.496 434.67 166.189V166.189Z" fill="#F5BA97"/>
<path d="M434.67 166.189C434.485 167.379 434.13 169.62 433.635 172.585C425.141 163.379 420.329 167.268 417.948 171.217C416.779 173.191 416.078 175.408 415.901 177.695L412.618 216.793L401.182 230.319L393.465 225.349L408.989 211.491L412.241 167.476C412.241 167.476 429.857 155.163 434.418 164.148C434.714 164.785 434.802 165.499 434.67 166.189V166.189Z" fill="#F2927E"/>
<path d="M438.966 359.118C435.043 363.099 431.899 367.779 429.696 372.917L427.722 377.561L420.152 370.166L418.755 368.798L374.793 318.467L383.76 304.816L433.193 301.37C433.193 301.37 432.594 314.193 441.324 324.583C441.368 324.583 455.569 342.213 438.966 359.118Z" fill="#C3B8A7"/>
<path d="M371.295 256.527C371.295 256.527 390.441 251.025 399.608 239.207C399.608 239.207 407.554 262.635 425.067 263.249L426.087 277.299C426.087 277.299 418.554 292.992 396.754 294.825C396.754 294.825 378.606 297.222 377.83 283.053C377.83 282.794 377.83 282.535 377.83 282.269C377.83 280.095 377.601 267.464 371.295 256.527Z" fill="#F5BA97"/>
<path d="M402.817 227.804C402.817 227.804 397.095 218.442 382.458 233.136C382.458 233.136 358.448 247.645 365.818 268.632L371.732 290.633L379.686 289.272C378.416 287.31 377.767 285.012 377.823 282.675C377.823 282.675 378.207 268.817 371.266 256.601C371.266 256.601 389.592 251.683 399.549 239.237C399.549 239.237 406.712 262.043 425.053 263.234L426.095 277.284C424.669 279.528 423.106 281.681 421.416 283.733C421.416 283.733 434.463 290.107 441.575 278.283C441.575 278.283 450.741 278.061 454.193 271.124C454.193 271.124 449.514 270.385 447.378 264.291C446.327 261.222 445.093 258.22 443.681 255.299L436.245 240.184C436.245 240.184 428.268 220.424 402.817 227.804Z" fill="#3B1514"/>
<path d="M371.295 256.527C372.292 258.238 373.157 260.023 373.882 261.866C373.882 261.866 390.885 262.028 397.981 247.357C397.981 247.357 409.994 268.344 425.067 263.249C425.067 263.249 408.567 263.862 399.608 239.207C399.608 239.207 391.254 250.618 371.295 256.527Z" fill="#F2927E"/>
<path d="M426.901 277.514C430.502 277.514 433.421 274.047 433.421 269.771C433.421 265.495 430.502 262.029 426.901 262.029C423.3 262.029 420.381 265.495 420.381 269.771C420.381 274.047 423.3 277.514 426.901 277.514Z" fill="#F5BA97"/>
<path d="M434.234 297.687C434.217 299.019 433.888 300.329 433.273 301.511C430.316 307.197 421.608 308.484 421.608 308.484C380.669 310.932 372.516 301.962 372.516 301.962C375.983 295.853 373.336 288.924 373.336 288.924L377.032 288.821L410.424 287.904C435.461 287.09 434.234 297.687 434.234 297.687Z" fill="#C3B8A7"/>
<g opacity="0.2">
<path d="M434.234 297.687C434.217 299.019 433.888 300.329 433.273 301.511C430.316 307.197 421.608 308.484 421.608 308.484C380.669 310.932 372.516 301.962 372.516 301.962C375.983 295.853 373.336 288.924 373.336 288.924L377.032 288.821L410.424 287.904C435.461 287.09 434.234 297.687 434.234 297.687Z" fill="black"/>
</g>
<g opacity="0.2">
<path d="M433.273 301.511C430.316 307.197 421.608 308.484 421.608 308.484C380.669 310.932 372.516 301.962 372.516 301.962C375.983 295.853 373.336 288.924 373.336 288.924L377.032 288.821C378.222 292.345 378.858 296.032 378.917 299.751C378.912 300.212 379.059 300.662 379.336 301.031C379.612 301.4 380.003 301.668 380.448 301.792C387.877 303.84 418.888 311.531 433.199 301.341L433.273 301.511Z" fill="black"/>
</g>
<path d="M333.816 393.246C384.551 393.246 425.681 377.374 425.681 357.794C425.681 338.215 384.551 322.342 333.816 322.342C283.08 322.342 241.951 338.215 241.951 357.794C241.951 377.374 283.08 393.246 333.816 393.246Z" fill="#8C6239"/>
<g opacity="0.2">
<path d="M438.966 359.118C435.043 363.099 431.899 367.779 429.696 372.917L427.722 377.561L420.152 370.166C427.089 367.758 433.483 364.004 438.966 359.118V359.118Z" fill="black"/>
</g>
<path d="M333.609 385.304C384.344 385.304 425.474 369.432 425.474 349.852C425.474 330.273 384.344 314.4 333.609 314.4C282.873 314.4 241.744 330.273 241.744 349.852C241.744 369.432 282.873 385.304 333.609 385.304Z" fill="#A67C52"/>
<g opacity="0.2">
<path d="M359.822 369.501C376.471 369.501 389.968 365.442 389.968 360.434C389.968 355.427 376.471 351.368 359.822 351.368C343.173 351.368 329.676 355.427 329.676 360.434C329.676 365.442 343.173 369.501 359.822 369.501Z" fill="black"/>
</g>
<path d="M226.173 293.357C229.126 292.256 230.374 288.285 228.959 284.489C227.545 280.693 224.004 278.508 221.051 279.609C218.097 280.71 216.85 284.68 218.264 288.476C219.678 292.273 223.219 294.458 226.173 293.357Z" fill="#F5BA97"/>
<g opacity="0.2">
<path d="M291.99 369.907C308.639 369.907 322.136 365.848 322.136 360.841C322.136 355.834 308.639 351.775 291.99 351.775C275.341 351.775 261.844 355.834 261.844 360.841C261.844 365.848 275.341 369.907 291.99 369.907Z" fill="black"/>
</g>
<path d="M270.76 350.469L270.627 351.196L281.796 353.241L281.929 352.513L270.76 350.469Z" fill="#F2927E"/>
<path d="M270.997 355.389L270.82 356.107L279.951 358.355L280.127 357.637L270.997 355.389Z" fill="#F2927E"/>
<path d="M270.369 292.385C273.239 292.385 275.566 290.789 275.566 288.821C275.566 286.852 273.239 285.256 270.369 285.256C267.499 285.256 265.172 286.852 265.172 288.821C265.172 290.789 267.499 292.385 270.369 292.385Z" fill="#C3B8A7"/>
<path d="M295.612 322.024C295.612 322.024 313.539 321.011 317.789 333.642C317.789 333.642 320.842 341.998 313.31 349.741L304.136 361.795C303.302 362.89 302.079 363.621 300.72 363.836C296.832 364.45 288.013 365.152 276.377 361.817C275.693 361.618 275.055 361.284 274.501 360.835C273.947 360.385 273.489 359.829 273.154 359.199L267.004 347.656C267.004 347.656 257.904 336.09 267.27 328.954C267.3 328.954 274.433 319.784 295.612 322.024Z" fill="#E94F50"/>
<g opacity="0.2">
<path d="M265.607 338.027C265.611 339.161 265.842 340.283 266.288 341.326C267.316 343.524 268.923 345.4 270.937 346.753C275.476 350.007 282.484 352.093 290.357 352.093C295.367 352.148 300.34 351.221 304.994 349.364C307.332 348.435 309.493 347.109 311.381 345.445C313.739 343.293 315.077 340.756 315.077 338.05C315.077 330.285 303.988 323.999 290.327 323.999C276.666 323.999 265.607 330.263 265.607 338.027Z" fill="black"/>
</g>
<path d="M266.287 341.326C268.897 347.5 278.684 352.093 290.357 352.093C299.227 352.093 307.012 349.438 311.38 345.437L311.617 344.875C311.617 344.875 311.506 339.543 301.933 339.95C301.933 339.95 295.413 328.946 284.413 332.008C284.413 332.008 277.287 334.041 274.226 337.303C274.226 337.303 266.989 337.014 266.331 341.133L266.287 341.326Z" fill="white"/>
<path d="M270.938 346.753C275.476 350.007 282.484 352.093 290.357 352.093C295.367 352.148 300.34 351.221 304.994 349.364C304.846 349.157 302.288 345.666 294.194 346.68C294.194 346.68 289.67 332.318 270.952 346.628L270.938 346.753Z" fill="#B4BFE2"/>
<path d="M289.705 331.401C289.705 331.401 284.006 316.73 274.632 321.825C274.632 321.825 271.572 323.385 272.696 328.414C272.696 328.414 268.12 325.899 265.872 328.954C265.872 328.954 262.76 333.457 271.446 337.525C272.35 337.27 273.294 337.197 274.226 337.31C274.226 337.31 279.726 331.601 289.705 331.401Z" fill="#22B573"/>
<path d="M280.045 358.001L281.487 358.8C281.659 358.891 281.806 359.026 281.911 359.19C282.016 359.355 282.076 359.544 282.085 359.739C282.152 362.276 272.912 359.835 272.912 359.835C259.472 358.608 258.046 355.354 258.046 355.354C244.399 354.126 234.826 343.736 234.826 343.736C238.522 331.904 244.599 328.865 244.599 328.865L258.644 341.096C263.538 344.794 267.205 342.93 267.205 342.93C270.162 340.446 272.18 339.935 273.488 340.091C274.043 340.145 274.571 340.355 275.011 340.697C275.073 340.746 275.122 340.81 275.153 340.882C275.184 340.955 275.197 341.034 275.189 341.113C275.182 341.191 275.155 341.267 275.111 341.333C275.067 341.398 275.007 341.452 274.937 341.488C273.799 342.124 272.498 344.15 272.498 344.15C272.808 346.48 277.731 345.851 280.06 345.422C280.624 345.31 281.206 345.33 281.762 345.48C282.317 345.63 282.83 345.906 283.261 346.288C286.077 348.846 281.871 352.943 281.871 352.943C286.558 356.367 280.045 358.001 280.045 358.001Z" fill="#F5BA97"/>
<path d="M273.517 340.083C271.422 341.169 269.441 342.463 267.603 343.943C261.689 347.197 256.396 343.123 256.396 343.123L244.99 336.4C240.769 331.571 234.958 343.418 234.811 343.729C238.507 331.897 244.583 328.858 244.583 328.858L258.629 341.089C263.522 344.786 267.189 342.923 267.189 342.923C270.168 340.438 272.186 339.928 273.517 340.083Z" fill="#F2927E"/>
<path d="M283.452 339.321C285.554 338.7 286.549 335.79 285.673 332.82C284.797 329.851 282.383 327.947 280.28 328.568C278.177 329.189 277.183 332.099 278.058 335.068C278.934 338.037 281.349 339.941 283.452 339.321Z" fill="#C3B8A7"/>
<path d="M305.163 344.509C308.719 343.1 310.259 338.565 308.602 334.381C306.945 330.196 302.719 327.947 299.162 329.356C295.606 330.766 294.066 335.3 295.723 339.485C297.38 343.669 301.606 345.919 305.163 344.509Z" fill="#C3B8A7"/>
<path d="M373.041 300.793L368.376 300.838C362.27 307.153 359.824 303.056 359.824 303.056C354.523 308.78 351.877 306.155 351.877 306.155C348.632 307.441 347.722 306.591 347.951 304.89C348.417 301.451 353.51 294.537 353.51 294.537C356.157 290.056 359.617 290.263 359.617 290.263L373.913 290.085C375.377 297.828 373.041 300.793 373.041 300.793Z" fill="#F5BA97"/>
<path d="M368.376 299.61V300.838C362.27 307.153 359.824 303.056 359.824 303.056C354.523 308.78 351.877 306.155 351.877 306.155C348.632 307.441 347.722 306.591 347.951 304.89C349.009 305.474 350.487 305.711 352.084 304.151L354.523 300.682C354.523 300.682 353.104 306.598 360.023 301.496C360.008 301.444 362.677 305.519 368.376 299.61Z" fill="#F2927E"/>
<path d="M346.377 319.991C346.377 319.991 328.458 318.97 324.2 331.601C324.2 331.601 321.147 339.957 328.68 347.7L337.831 359.754C338.663 360.847 339.883 361.578 341.239 361.795C345.135 362.416 353.947 363.111 365.582 359.776C366.266 359.582 366.904 359.252 367.457 358.806C368.011 358.36 368.469 357.807 368.805 357.181L374.963 345.644C374.963 345.644 384.063 334.071 374.69 326.942C374.69 326.92 367.563 317.75 346.377 319.991Z" fill="#E94F50"/>
<g opacity="0.2">
<path d="M376.39 335.994C376.387 337.126 376.153 338.246 375.702 339.285C374.678 341.486 373.07 343.363 371.052 344.712C366.521 347.966 359.505 350.052 351.64 350.052C346.628 350.108 341.653 349.184 336.996 347.33C334.663 346.394 332.506 345.068 330.616 343.411C328.258 341.259 326.92 338.715 326.92 336.016C326.92 328.251 338.008 321.965 351.67 321.965C365.331 321.965 376.39 328.229 376.39 335.994Z" fill="black"/>
</g>
<path d="M375.701 339.285C373.092 345.467 363.312 350.052 351.639 350.052C342.768 350.052 334.977 347.397 330.615 343.396L330.379 342.834C330.379 342.834 330.49 337.495 340.063 337.909C340.063 337.909 346.583 326.905 357.583 329.959C357.583 329.959 364.709 332 367.769 335.254C367.769 335.254 374.999 334.973 375.664 339.085L375.701 339.285Z" fill="white"/>
<path d="M371.051 344.712C366.519 347.966 359.504 350.052 351.638 350.052C346.626 350.108 341.652 349.184 336.994 347.33C337.142 347.116 339.707 343.633 347.802 344.646C347.802 344.646 352.326 330.277 371.043 344.594L371.051 344.712Z" fill="#B4BFE2"/>
<path d="M352.283 329.36C352.283 329.36 357.99 314.689 367.356 319.784C367.356 319.784 370.424 321.344 369.3 326.373C369.3 326.373 373.876 323.858 376.116 326.92C376.116 326.92 379.236 331.416 370.55 335.483C369.646 335.234 368.702 335.161 367.77 335.269C367.77 335.269 362.27 329.567 352.283 329.36Z" fill="#22B573"/>
<path d="M346.286 337.485C347.943 333.301 346.403 328.766 342.846 327.357C339.29 325.947 335.063 328.197 333.406 332.381C331.749 336.566 333.289 341.1 336.846 342.51C340.403 343.919 344.629 341.67 346.286 337.485Z" fill="#C3B8A7"/>
<path d="M363.935 333.036C364.811 330.067 363.816 327.157 361.713 326.536C359.611 325.915 357.196 327.819 356.32 330.788C355.444 333.757 356.439 336.668 358.542 337.288C360.645 337.909 363.059 336.005 363.935 333.036Z" fill="#C3B8A7"/>
<path d="M344.601 322.757L352.489 304.676L357.582 304.269L350.833 322.978C350.833 322.978 352.696 329.035 348.948 332.592C348.248 333.246 347.389 333.705 346.457 333.923C345.223 334.265 343.944 334.417 342.664 334.374C342.4 334.348 342.148 334.247 341.939 334.084C341.73 333.92 341.571 333.701 341.481 333.451C341.391 333.201 341.374 332.93 341.432 332.671C341.49 332.412 341.62 332.174 341.807 331.986C343.1 330.706 345.222 327.733 344.601 322.757Z" fill="#E94F50"/>
<path d="M346.102 329.214C346.823 326.715 346.002 324.283 344.269 323.782C342.535 323.281 340.545 324.902 339.823 327.401C339.102 329.901 339.923 332.333 341.657 332.834C343.391 333.334 345.381 331.714 346.102 329.214Z" fill="#C3B8A7"/>
</svg>