<svg width="586" height="392" viewBox="0 0 586 392" fill="none" xmlns="http://www.w3.org/2000/svg">
<path d="M291.32 356.517C383.664 356.517 458.523 285.933 458.523 198.863C458.523 111.793 383.664 41.2083 291.32 41.2083C198.976 41.2083 124.117 111.793 124.117 198.863C124.117 285.933 198.976 356.517 291.32 356.517Z" fill="#79C9EC"/>
<path d="M371.085 221.266C369.948 225.52 366.784 229.134 361.796 231.984C356.802 234.838 350.068 236.868 342.016 237.959C325.919 240.14 304.825 238.529 282.576 232.552C260.327 226.575 241.256 217.396 228.403 207.439C221.975 202.458 217.155 197.323 214.253 192.349C211.354 187.38 210.416 182.664 211.553 178.41C212.69 174.157 215.854 170.542 220.842 167.692C225.837 164.839 232.572 162.808 240.622 161.718C256.719 159.536 277.814 161.148 300.062 167.125C322.311 173.102 341.384 182.28 354.236 192.238C360.664 197.218 365.484 202.353 368.386 207.328C371.285 212.297 372.222 217.013 371.085 221.266V221.266Z" stroke="white" stroke-width="4"/>
<path d="M416.179 232.405C411.109 251.375 392.794 265.137 366.742 271.816C340.736 278.482 307.311 277.99 272.659 268.681C238.008 259.373 208.816 243.044 189.618 224.233C170.388 205.391 161.39 184.291 166.46 165.321C171.53 146.35 189.845 132.588 215.897 125.909C241.903 119.243 275.328 119.735 309.98 129.044C344.63 138.352 373.823 154.682 393.02 173.491C412.251 192.334 421.249 213.434 416.179 232.405V232.405Z" stroke="white" stroke-width="4"/>
<path d="M454.772 237.692C447.205 266.004 422.377 286.998 387.994 297.904C353.627 308.806 309.894 309.554 264.964 297.485C220.034 285.415 182.533 262.844 158.207 236.176C133.87 209.495 122.838 178.867 130.405 150.556C137.971 122.244 162.799 101.25 197.183 90.3438C231.549 79.4421 275.283 78.6939 320.213 90.7635C365.143 102.834 402.644 125.405 426.969 152.073C451.307 178.754 462.339 209.38 454.772 237.692Z" stroke="white" stroke-width="4"/>
<path d="M326.283 147.525C354.631 166.931 361.951 205.647 342.643 233.997C323.334 262.347 284.703 269.606 256.354 250.2C228.007 230.794 220.686 192.078 239.994 163.728C259.303 135.377 297.935 128.119 326.283 147.525V147.525Z" stroke="white" stroke-width="4"/>
<path d="M482.531 350.571C482.531 350.571 454.59 328.384 436.178 325.841C417.96 323.324 369.938 326.274 334.303 311.13C333.969 310.991 333.694 310.739 333.525 310.418C333.356 310.097 333.305 309.727 333.379 309.372C333.945 306.786 336.618 301.279 349.466 301.814C366.188 302.538 379.005 302.759 379.005 302.759C379.005 302.759 327.634 251.852 314.737 237.019C312.19 234.092 310.468 231.452 309.344 229.052C305.846 221.565 315.443 214.841 321.388 220.574L356.186 254.106C356.186 254.106 354.54 248.85 358.216 245.589C361.7 242.513 370.524 244.208 375.677 249.779C375.677 249.779 374.326 243.722 380.135 241.038C385.943 238.354 393.575 242.992 396.813 246C396.813 246 394.274 240.503 397.901 237.362C401.528 234.221 411.146 237.282 413.725 239.13C416.305 240.978 440.39 252.537 466.486 284.93L517.614 300.807C517.614 300.807 524.77 319.776 482.531 350.571ZM102.627 42.6633C102.627 42.6633 130.569 64.85 148.98 67.3941C167.198 69.9095 215.221 66.9601 250.855 82.1042C251.189 82.2433 251.465 82.4951 251.633 82.8161C251.802 83.1372 251.854 83.5072 251.779 83.8623C251.214 86.4488 248.54 91.9554 235.692 91.4204C218.97 90.6964 206.153 90.4748 206.153 90.4748C206.153 90.4748 257.524 141.383 270.421 156.215C272.969 159.142 274.691 161.783 275.814 164.183C279.313 171.669 269.716 178.393 263.77 172.661L228.973 139.129C228.973 139.129 230.618 144.385 226.943 147.646C223.459 150.721 214.634 149.026 209.481 143.455C209.481 143.455 210.832 149.513 205.024 152.196C199.215 154.88 191.583 150.243 188.346 147.234C188.346 147.234 190.885 152.731 187.258 155.872C183.631 159.013 174.013 155.952 171.433 154.104C168.853 152.256 144.768 140.697 118.673 108.304L67.5439 92.4272C67.5439 92.4272 60.3874 73.4578 102.627 42.664V42.6633Z" fill="#F8AE9D"/>
<path d="M291.329 174.189H291.612C293.29 196.538 310.974 196.882 310.974 196.882C310.974 196.882 291.474 197.24 291.474 223.064C291.474 197.24 271.974 196.882 271.974 196.882C271.974 196.882 289.65 196.538 291.329 174.189Z" fill="white"/>
<path d="M470.097 243.407C476.88 248.091 487.242 244.817 487.242 244.817C487.242 244.817 486.601 233.949 479.814 229.27C473.03 224.586 462.672 227.855 462.672 227.855C462.672 227.855 463.314 238.723 470.097 243.407Z" fill="url(#paint0_linear_116_393)"/>
<path d="M95.3152 204.836C102.342 212.006 115.481 210.494 115.481 210.494C115.481 210.494 117.22 197.357 110.187 190.192C103.16 183.023 90.0275 184.53 90.0275 184.53C90.0275 184.53 88.2887 197.666 95.3152 204.836Z" fill="url(#paint1_linear_116_393)"/>
<path d="M312.364 333.847C306.211 333.847 301.223 338.631 301.223 344.531C301.223 350.431 306.211 355.214 312.364 355.214C318.516 355.214 323.504 350.431 323.504 344.531C323.504 338.631 318.516 333.847 312.364 333.847Z" fill="#79C9EC"/>
<path d="M109.474 246.719C105.884 246.719 102.974 249.636 102.974 253.235C102.974 256.834 105.884 259.752 109.474 259.752C113.063 259.752 115.974 256.834 115.974 253.235C115.974 249.636 113.063 246.719 109.474 246.719Z" fill="#79C9EC"/>
<path d="M223.549 41.2493C220.138 41.2493 217.374 38.4776 217.374 35.0585C217.374 31.6394 220.138 28.8677 223.549 28.8677C226.959 28.8677 229.724 31.6394 229.724 35.0585C229.724 38.4776 226.959 41.2493 223.549 41.2493Z" fill="#79C9EC"/>
<path d="M429.695 143.754C424.077 143.754 419.523 139.188 419.523 133.557C419.523 127.925 424.077 123.359 429.695 123.359C435.312 123.359 439.866 127.925 439.866 133.557C439.866 139.188 435.312 143.754 429.695 143.754Z" fill="#79C9EC"/>
<path d="M398.595 355.095C395.076 355.095 392.223 352.235 392.223 348.707C392.223 345.179 395.076 342.319 398.595 342.319C402.113 342.319 404.966 345.179 404.966 348.707C404.966 352.235 402.113 355.095 398.595 355.095Z" fill="#E1E4E5"/>
<path d="M201.123 338.409C194.662 338.409 189.423 333.158 189.423 326.679C189.423 320.201 194.662 314.949 201.123 314.949C207.585 314.949 212.823 320.201 212.823 326.679C212.823 333.158 207.585 338.409 201.123 338.409Z" fill="white"/>
<path d="M307.074 327.983C304.92 327.983 303.174 326.232 303.174 324.073C303.174 321.913 304.92 320.163 307.074 320.163C309.228 320.163 310.974 321.913 310.974 324.073C310.974 326.232 309.228 327.983 307.074 327.983Z" fill="white"/>
<path d="M457.415 170.663C454.796 170.663 452.674 168.534 452.674 165.909C452.674 163.284 454.796 161.156 457.415 161.156C460.033 161.156 462.156 163.284 462.156 165.909C462.156 168.534 460.033 170.663 457.415 170.663Z" fill="#E1E4E5"/>
<path d="M412.46 98.7686C408.463 98.7686 405.223 95.5204 405.223 91.5136C405.223 87.5067 408.463 84.2585 412.46 84.2585C416.456 84.2585 419.696 87.5067 419.696 91.5136C419.696 95.5204 416.456 98.7686 412.46 98.7686Z" fill="white"/>
<path d="M157.744 195.454C157.744 197.48 156.105 199.123 154.083 199.123C152.062 199.123 150.423 197.48 150.423 195.454C150.423 193.427 152.062 191.784 154.083 191.784C156.105 191.784 157.744 193.427 157.744 195.454Z" fill="#E1E4E5"/>
<path d="M104.873 123.258C102.388 123.258 100.373 121.238 100.373 118.747C100.373 116.255 102.388 114.236 104.873 114.236C107.358 114.236 109.372 116.255 109.372 118.747C109.372 121.238 107.358 123.258 104.873 123.258Z" fill="#E1E4E5"/>
<path d="M479.617 276.45C476.942 276.45 474.773 274.711 474.773 272.565C474.773 270.42 476.942 268.681 479.617 268.681C482.292 268.681 484.461 270.42 484.461 272.565C484.461 274.711 482.292 276.45 479.617 276.45Z" fill="#E1E4E5"/>
<path d="M318.774 75.4619C318.774 79.2409 315.718 82.3044 311.949 82.3044C308.179 82.3044 305.124 79.2409 305.124 75.4619C305.124 71.6829 308.179 68.6194 311.949 68.6194C315.718 68.6194 318.774 71.6829 318.774 75.4619Z" fill="white"/>
<path d="M461.327 117.494H461.454C462.204 128.153 470.11 128.316 470.11 128.316C470.11 128.316 461.392 128.487 461.392 140.803C461.392 128.487 452.674 128.316 452.674 128.316C452.674 128.316 460.576 128.153 461.327 117.494ZM181.898 41.2493H181.997C182.584 49.8904 188.774 50.024 188.774 50.024C188.774 50.024 181.949 50.1621 181.949 60.1476C181.949 50.1621 175.124 50.024 175.124 50.024C175.124 50.024 181.31 49.891 181.898 41.2493Z" fill="#E1E4E5"/>
<path d="M173.715 273.404C176.904 272.646 180.275 275.357 180.275 275.357C180.275 275.357 178.476 279.293 175.287 280.049C172.099 280.806 168.729 278.097 168.729 278.097C168.729 278.097 170.528 274.161 173.715 273.404Z" fill="url(#paint2_linear_116_393)"/>
<path d="M188.642 202.992C185.817 201.041 181.5 202.405 181.5 202.405C181.5 202.405 181.767 206.932 184.595 208.882C187.42 210.833 191.735 209.471 191.735 209.471C191.735 209.471 191.468 204.943 188.642 202.992Z" fill="url(#paint3_linear_116_393)"/>
<path d="M392.11 192.809C387.842 188.454 379.862 189.373 379.862 189.373C379.862 189.373 378.806 197.351 383.078 201.703C387.345 206.058 395.322 205.142 395.322 205.142C395.322 205.142 396.378 197.164 392.11 192.809Z" fill="url(#paint4_linear_116_393)"/>
<path d="M197.013 185.523C201.567 185.523 205.259 181.99 205.259 177.632C205.259 173.274 201.567 169.741 197.013 169.741C192.46 169.741 188.768 173.274 188.768 177.632C188.768 181.99 192.46 185.523 197.013 185.523Z" fill="#79C9EC"/>
<path d="M457.019 96.2303C461.572 96.2303 465.264 92.5293 465.264 87.9639C465.264 83.3985 461.572 79.6975 457.019 79.6975C452.465 79.6975 448.773 83.3985 448.773 87.9639C448.773 92.5293 452.465 96.2303 457.019 96.2303Z" fill="#79C9EC"/>
<path d="M150.119 306.478C154.259 306.478 157.615 310.011 157.615 314.369C157.615 318.727 154.259 322.26 150.119 322.26C145.98 322.26 142.624 318.727 142.624 314.369C142.624 310.011 145.98 306.478 150.119 306.478Z" fill="white"/>
<path d="M477.895 189.178C481.414 189.178 484.266 192.037 484.266 195.565C484.266 199.093 481.414 201.953 477.895 201.953C474.376 201.953 471.523 199.093 471.523 195.565C471.523 192.037 474.376 189.178 477.895 189.178Z" fill="#79C9EC"/>
<path d="M250.297 106.615C252.401 106.615 254.107 108.325 254.107 110.435C254.107 112.545 252.401 114.255 250.297 114.255C248.193 114.255 246.487 112.545 246.487 110.435C246.487 108.325 248.193 106.615 250.297 106.615Z" fill="white"/>
<path d="M377.176 80.3115C379.389 80.3115 381.184 82.1105 381.184 84.3297C381.184 86.5489 379.389 88.3479 377.176 88.3479C374.962 88.3479 373.168 86.5489 373.168 84.3297C373.168 82.1105 374.962 80.3115 377.176 80.3115Z" fill="white"/>
<path d="M212.06 225.419C213.15 225.419 214.034 226.305 214.034 227.399C214.034 228.492 213.15 229.378 212.06 229.378C210.969 229.378 210.085 228.492 210.085 227.399C210.085 226.305 210.969 225.419 212.06 225.419Z" fill="#E1E4E5"/>
<path d="M254.187 333.848C255.852 333.848 257.201 335.2 257.201 336.869C257.201 338.538 255.852 339.891 254.187 339.891C252.523 339.891 251.173 338.538 251.173 336.869C251.173 335.2 252.523 333.848 254.187 333.848Z" fill="white"/>
<path d="M363.624 171.017C363.624 168.81 365.408 167.021 367.609 167.021C369.811 167.021 371.595 168.81 371.595 171.017C371.595 173.224 369.811 175.013 367.609 175.013C365.408 175.013 363.624 173.224 363.624 171.017Z" fill="#E1E4E5"/>
<path d="M430.146 196.998C432.423 196.998 434.269 198.848 434.269 201.131C434.269 203.414 432.423 205.265 430.146 205.265C427.869 205.265 426.023 203.414 426.023 201.131C426.023 198.848 427.869 196.998 430.146 196.998Z" fill="#E1E4E5"/>
<path d="M119.431 149.451C123.364 149.451 126.552 151.974 126.552 155.087C126.552 158.2 123.364 160.723 119.431 160.723C115.498 160.723 112.31 158.2 112.31 155.087C112.31 151.974 115.498 149.451 119.431 149.451Z" fill="#E1E4E5"/>
<path d="M228.835 304.762C228.249 302.567 229.548 300.311 231.737 299.723C233.926 299.135 236.176 300.438 236.763 302.632C237.349 304.827 236.05 307.083 233.861 307.671C231.672 308.259 229.422 306.956 228.835 304.762Z" fill="white"/>
<path d="M203.67 253.099H203.617C203.305 248.659 200.012 248.591 200.012 248.591C200.012 248.591 203.643 248.52 203.643 243.39C203.643 248.52 207.275 248.591 207.275 248.591C207.275 248.591 203.983 248.659 203.67 253.099ZM322.511 276.325H322.449C322.082 271.013 318.219 270.931 318.219 270.931C318.219 270.931 322.48 270.846 322.48 264.708C322.48 270.846 326.739 270.931 326.739 270.931C326.739 270.931 322.878 271.013 322.511 276.325Z" fill="#E1E4E5"/>
<defs>
<linearGradient id="paint0_linear_116_393" x1="496.52" y1="258.776" x2="442.982" y2="202.466" gradientUnits="userSpaceOnUse">
<stop stop-color="white"/>
<stop offset="1" stop-color="#EEEEEE"/>
</linearGradient>
<linearGradient id="paint1_linear_116_393" x1="123.349" y1="229.326" x2="72.3678" y2="149.613" gradientUnits="userSpaceOnUse">
<stop stop-color="white"/>
<stop offset="1" stop-color="#EEEEEE"/>
</linearGradient>
<linearGradient id="paint2_linear_116_393" x1="185.72" y1="271.521" x2="157.788" y2="284.683" gradientUnits="userSpaceOnUse">
<stop stop-color="white"/>
<stop offset="1" stop-color="#EEEEEE"/>
</linearGradient>
<linearGradient id="paint3_linear_116_393" x1="177.636" y1="196.59" x2="199.937" y2="220.047" gradientUnits="userSpaceOnUse">
<stop stop-color="white"/>
<stop offset="1" stop-color="#EEEEEE"/>
</linearGradient>
<linearGradient id="paint4_linear_116_393" x1="375.083" y1="177.934" x2="406.048" y2="226.351" gradientUnits="userSpaceOnUse">
<stop stop-color="white"/>
<stop offset="1" stop-color="#EEEEEE"/>
</linearGradient>
</defs>
</svg>
