<svg width="26" height="32" viewBox="0 0 26 32" fill="none" xmlns="http://www.w3.org/2000/svg">
<path d="M17.2444 0.247314C17.0977 0.0927734 16.8965 0 16.688 0H4.20483C1.90137 0 0 1.8938 0 4.19702V27.8027C0 30.1062 1.90137 32 4.20483 32H21.1477C23.4512 32 25.3525 30.1062 25.3525 27.8027V9.05884C25.3525 8.85791 25.2598 8.66479 25.1284 8.51782L17.2444 0.247314ZM17.4685 2.72852L22.7478 8.27051H19.3159C18.2957 8.27051 17.4685 7.45117 17.4685 6.43091V2.72852ZM21.1477 30.4541H4.20483C2.75952 30.4541 1.5459 29.2561 1.5459 27.8027V4.19702C1.5459 2.75171 2.75171 1.5459 4.20483 1.5459H15.9226V6.43091C15.9226 8.30908 17.4377 9.81641 19.3159 9.81641H23.8066V27.8027C23.8066 29.2561 22.6008 30.4541 21.1477 30.4541Z" fill="#555F61"/>
<path d="M19.0376 25.1209H6.31494C5.88989 25.1209 5.54199 25.4686 5.54199 25.8939C5.54199 26.3189 5.88989 26.6668 6.31494 26.6668H19.0454C19.4705 26.6668 19.8184 26.3189 19.8184 25.8939C19.8184 25.4686 19.4705 25.1209 19.0376 25.1209Z" fill="#555F61"/>
<path d="M12.1119 22.3459C12.2589 22.5005 12.4598 22.5933 12.6761 22.5933C12.8927 22.5933 13.0936 22.5005 13.2403 22.3459L17.7698 17.4841C18.0636 17.1748 18.0404 16.6802 17.7313 16.3943C17.4219 16.1006 16.9273 16.1235 16.6414 16.4329L13.449 19.8569V11.4165C13.449 10.9912 13.1011 10.6436 12.6761 10.6436C12.2511 10.6436 11.9032 10.9912 11.9032 11.4165V19.8569L8.71858 16.4329C8.42488 16.1238 7.93782 16.1006 7.62874 16.3943C7.31965 16.688 7.29646 17.175 7.59016 17.4841L12.1119 22.3459Z" fill="#555F61"/>
</svg>
