<svg xmlns="http://www.w3.org/2000/svg" version="1.1" xmlns:xlink="http://www.w3.org/1999/xlink" xmlns:svgjs="http://svgjs.com/svgjs" width="82.07" height="128"><svg xmlns:xlink="http://www.w3.org/1999/xlink" xmlns="http://www.w3.org/2000/svg" style="overflow: visible;" data-bbox="111.83059265240524 134.92781322267484 288.3388146951895 201.47660080791087" viewBox="214.96 134.93 82.07 128"><g transform="matrix(0.1878672093153, 0, 0, 0.1878672093153, 191.96279907226562, 135.1775665283203)" data-uid="o_f46j1d375_4"><path d="m158.304688 2.183594-122.445313 95.652344c-7.722656 6.035156-3.457031 18.429687 6.34375 18.429687h244.886719c9.804687 0 14.070312-12.394531 6.347656-18.429687l-122.445312-95.652344c-3.726563-2.910156-8.960938-2.910156-12.6875 0zm0 0" fill="#FFDE55" transform="matrix(1.3307298421859741, 0, 0, 1.3307298421859741, 121.76161193847656, -1.3307298421859741)" data-uid="o_f46j1d375_5"></path><path d="m170.992188 2.183594c-3.726563-2.910156-8.960938-2.910156-12.6875 0l-122.445313 95.652344c-7.722656 6.035156-3.457031 18.429687 6.34375 18.429687h11.292969l131.765625-102.933594zm0 0" fill="#FFCD00" transform="matrix(1.3307298421859741, 0, 0, 1.3307298421859741, 121.76161193847656, -1.3307298421859741)" data-uid="o_f46j1d375_6"></path><path d="m.5 384.203125v117.492187c0 5.691407 4.613281 10.304688 10.304688 10.304688h61.65625c5.289062 0 9.664062-4.011719 10.25-9.265625 4.605468-41.175781 39.53125-73.183594 81.9375-73.183594 42.402343 0 77.332031 32.007813 81.933593 73.183594.589844 5.253906 4.960938 9.265625 10.25 9.265625h61.65625c5.695313 0 10.308594-4.613281 10.308594-10.304688v-117.492187c0-5.695313-4.613281-10.308594-10.308594-10.308594h-307.683593c-5.691407 0-10.304688 4.613281-10.304688 10.308594zm0 0" fill="#C4C8F5" transform="matrix(1.3307298421859741, 0, 0, 1.3307298421859741, 121.76161193847656, -1.3307298421859741)" data-uid="o_f46j1d375_7"></path><path d="m41.726562 501.695312v-117.492187c0-5.695313 4.613282-10.308594 10.304688-10.308594h-41.226562c-5.691407 0-10.304688 4.613281-10.304688 10.308594v117.492187c0 5.691407 4.613281 10.304688 10.304688 10.304688h41.226562c-5.691406 0-10.304688-4.613281-10.304688-10.304688zm0 0" fill="#A7ADF0" transform="matrix(1.3307298421859741, 0, 0, 1.3307298421859741, 121.76161193847656, -1.3307298421859741)" data-uid="o_f46j1d375_8"></path><path d="m125.710938 239.914062h-63.988282c-5.097656 0-9.230468-4.132812-9.230468-9.230468v-105.1875c0-5.097656 4.132812-9.230469 9.230468-9.230469h63.988282c5.097656 0 9.230468 4.132813 9.230468 9.230469v105.1875c0 5.097656-4.132812 9.230468-9.230468 9.230468zm0 0" fill="#4DB5A6" transform="matrix(1.3307298421859741, 0, 0, 1.3307298421859741, 121.76161193847656, -1.3307298421859741)" data-uid="o_f46j1d375_9"></path><path d="m93.714844 230.683594v-105.1875c0-5.097656 4.132812-9.230469 9.230468-9.230469h-41.222656c-5.097656 0-9.230468 4.132813-9.230468 9.230469v105.1875c0 5.097656 4.132812 9.230468 9.230468 9.230468h41.222656c-5.097656 0-9.230468-4.132812-9.230468-9.230468zm0 0" fill="#3DA094" transform="matrix(1.3307298421859741, 0, 0, 1.3307298421859741, 121.76161193847656, -1.3307298421859741)" data-uid="o_f46j1d375_10"></path><path d="m267.574219 239.914062h-63.988281c-5.097657 0-9.230469-4.132812-9.230469-9.230468v-105.1875c0-5.097656 4.132812-9.230469 9.230469-9.230469h63.988281c5.097656 0 9.230469 4.132813 9.230469 9.230469v105.1875c0 5.097656-4.132813 9.230468-9.230469 9.230468zm0 0" fill="#FF7956" transform="matrix(1.3307298421859741, 0, 0, 1.3307298421859741, 121.76161193847656, -1.3307298421859741)" data-uid="o_f46j1d375_11"></path><path d="m235.578125 230.683594v-105.1875c0-5.097656 4.132813-9.230469 9.234375-9.230469h-41.226562c-5.097657 0-9.230469 4.132813-9.230469 9.230469v105.1875c0 5.097656 4.132812 9.230468 9.230469 9.230468h41.226562c-5.101562 0-9.234375-4.132812-9.234375-9.230468zm0 0" fill="#FF6243" transform="matrix(1.3307298421859741, 0, 0, 1.3307298421859741, 121.76161193847656, -1.3307298421859741)" data-uid="o_f46j1d375_12"></path><path d="m21.113281 363.589844v-113.371094c0-5.691406 4.613281-10.304688 10.304688-10.304688h122.921875c5.691406 0 10.308594 4.613282 10.308594 10.304688v113.371094c0 5.691406-4.617188 10.304687-10.308594 10.304687h-122.921875c-5.691407 0-10.304688-4.613281-10.304688-10.304687zm0 0" fill="#FF5555" transform="matrix(1.3307298421859741, 0, 0, 1.3307298421859741, 121.76161193847656, -1.3307298421859741)" data-uid="o_f46j1d375_13"></path><path d="m62.335938 363.589844v-113.371094c0-5.691406 4.613281-10.304688 10.308593-10.304688h-41.226562c-5.691407 0-10.304688 4.613282-10.304688 10.304688v113.371094c0 5.691406 4.613281 10.304687 10.304688 10.304687h41.226562c-5.691406 0-10.308593-4.613281-10.308593-10.304687zm0 0" fill="#E04141" transform="matrix(1.3307298421859741, 0, 0, 1.3307298421859741, 121.76161193847656, -1.3307298421859741)" data-uid="o_f46j1d375_14"></path><path d="m164.648438 363.589844v-113.371094c0-5.691406 4.613281-10.304688 10.304687-10.304688h122.925781c5.691406 0 10.304688 4.613282 10.304688 10.304688v113.371094c0 5.691406-4.613282 10.304687-10.304688 10.304687h-122.925781c-5.691406 0-10.304687-4.613281-10.304687-10.304687zm0 0" fill="#92DD79" transform="matrix(1.3307298421859741, 0, 0, 1.3307298421859741, 121.76161193847656, -1.3307298421859741)" data-uid="o_f46j1d375_15"></path><path d="m205.871094 363.589844v-113.371094c0-5.691406 4.617187-10.304688 10.308594-10.304688h-41.226563c-5.691406 0-10.304687 4.613282-10.304687 10.304688v113.371094c0 5.691406 4.613281 10.304687 10.304687 10.304687h41.226563c-5.691407 0-10.308594-4.613281-10.308594-10.304687zm0 0" fill="#7EC66A" transform="matrix(1.3307298421859741, 0, 0, 1.3307298421859741, 121.76161193847656, -1.3307298421859741)" data-uid="o_f46j1d375_16"></path></g></svg><style>@media (prefers-color-scheme: light) { :root { filter: none; } }
</style></svg>