<svg width="159" height="158" viewBox="0 0 159 158" fill="none" xmlns="http://www.w3.org/2000/svg">
<g clip-path="url(#clip0_54_665)">
<path d="M135.875 95.3699L126.492 92.3481L128.994 84.5804C129.62 82.6385 128.55 80.5894 126.631 79.9715L106.954 73.6341C105.013 73.0087 102.963 74.0789 102.346 75.9974L99.8437 83.7651L93.4331 81.7003L95.9349 73.9327C96.5603 71.9907 95.4901 69.9417 93.5716 69.3238L73.8716 62.9788C71.9297 62.3534 69.8806 63.4236 69.2627 65.3421L66.7609 73.1098L60.3502 71.045L62.8521 63.2774C63.4775 61.3354 62.4073 59.2864 60.4888 58.6685L40.8356 52.3386C38.8937 51.7131 36.8446 52.7834 36.2267 54.7019L33.7249 62.4696L24.2961 59.4327C22.3541 58.8073 20.3051 59.8775 19.6872 61.796L5.82924 104.822C5.20379 106.764 6.27402 108.813 8.19254 109.431L17.5746 112.453L15.0803 120.197C14.4549 122.139 15.5251 124.188 17.4436 124.806L37.1436 131.151C39.0855 131.777 41.1345 130.706 41.7524 128.788L44.2543 121.02L50.6649 123.085L48.1631 130.853C47.5377 132.795 48.6079 134.844 50.5264 135.462L70.2264 141.806C72.1683 142.432 74.2173 141.362 74.8353 139.443L77.3371 131.676L83.7009 133.725L81.1991 141.493C80.5737 143.435 81.6439 145.484 83.5624 146.102L103.262 152.447C105.204 153.072 107.253 152.002 107.871 150.083L110.373 142.316L119.755 145.337C121.697 145.963 123.746 144.893 124.364 142.974L138.207 99.9946C138.879 98.0678 137.793 95.9878 135.875 95.3699ZM89.3643 140.275L108.211 81.76L120.915 85.8519L102.069 144.367L89.3643 140.275ZM56.2815 129.62L75.128 71.1047L87.8323 75.1966L68.9859 133.711L56.2815 129.62ZM23.1987 118.964L42.0452 60.4494L54.7495 64.5413L35.9031 123.056L23.1987 118.964ZM13.9242 103.582L25.529 67.5511L31.4016 69.4425L19.7968 105.473L13.9242 103.582ZM46.4923 114.071L58.0971 78.0406L64.5078 80.1054L52.903 116.136L46.4923 114.071ZM79.5751 124.727L91.1799 88.6959L97.5906 90.7607L85.9858 126.791L79.5751 124.727ZM118.53 137.273L112.658 135.382L124.263 99.3512L130.135 101.243L118.53 137.273Z" fill="#DE7BA8"/>
<path d="M50.0717 71.6081C50.5885 69.6828 49.6503 67.6247 47.7084 66.9992C45.8835 66.4114 43.6088 67.4606 43.0995 69.3625C42.5827 71.2878 43.5209 73.3459 45.4628 73.9714C47.2644 74.5516 49.5315 73.5258 50.0717 71.6081Z" fill="#DE7BA8"/>
<path d="M35.4667 114.549C35.9835 112.623 35.0454 110.565 33.1034 109.94C31.2785 109.352 29.0038 110.401 28.4946 112.303C27.9778 114.228 28.9159 116.287 30.8578 116.912C32.6594 117.492 34.9341 116.443 35.4667 114.549Z" fill="#DE7BA8"/>
<path d="M82.4526 82.0374C82.9694 80.1121 82.0312 78.054 80.0893 77.4285C78.2644 76.8407 75.9897 77.8899 75.4804 79.7918C74.9636 81.7171 75.9018 83.7753 77.8437 84.4007C79.6452 84.9809 81.9124 83.9551 82.4526 82.0374Z" fill="#DE7BA8"/>
<path d="M68.5498 125.204C69.0665 123.279 68.1284 121.221 66.1865 120.595C64.3615 120.007 62.0868 121.057 61.5776 122.959C61.0608 124.884 61.9989 126.942 63.9409 127.567C65.7424 128.148 68.0171 127.098 68.5498 125.204Z" fill="#DE7BA8"/>
<path d="M115.536 92.6927C116.052 90.7674 115.114 88.7092 113.172 88.0838C111.347 87.496 109.073 88.5452 108.563 90.4471C108.047 92.3724 108.985 94.4305 110.927 95.056C112.752 95.6438 114.995 94.6104 115.536 92.6927Z" fill="#DE7BA8"/>
<path d="M101.632 135.859C102.149 133.934 101.211 131.876 99.269 131.251C97.444 130.663 95.1693 131.712 94.6601 133.614C94.1508 135.516 95.0815 137.597 97.0234 138.223C98.8483 138.811 101.1 137.754 101.632 135.859Z" fill="#DE7BA8"/>
<path d="M56.494 28.8983C61.0564 30.3677 65.9365 28.6857 68.6983 25.0819L136.034 46.7693C137.976 47.3947 140.025 46.3245 140.643 44.406C141.261 42.4875 140.198 40.415 138.279 39.7971L70.9205 18.1022C70.8195 13.5247 67.8618 9.3183 63.276 7.84132C57.4971 5.98004 51.2329 9.15304 49.3641 14.9554C47.4953 20.7578 50.7151 27.037 56.494 28.8983ZM61.0229 14.8369C62.9648 15.4624 64.02 17.5582 63.4021 19.4767C62.7841 21.3953 60.6807 22.4738 58.7622 21.8559C56.8437 21.238 55.7652 19.1346 56.3831 17.2161C57.001 15.2975 59.081 14.2115 61.0229 14.8369Z" fill="#DE7BA8"/>
<path d="M44.9535 40.6756L112.289 62.363C112.428 66.9012 115.363 71.1001 119.972 72.5846C125.774 74.4534 131.992 71.2654 133.86 65.463C135.729 59.6606 132.541 53.4433 126.739 51.5744C122.176 50.105 117.296 51.787 114.535 55.3908L47.1991 33.7034C45.2571 33.078 43.2081 34.1482 42.5902 36.0667C41.9722 37.9852 43.0115 40.0502 44.9535 40.6756ZM126.872 63.1865C126.247 65.1284 124.151 66.1835 122.232 65.5656C120.314 64.9477 119.235 62.8443 119.853 60.9258C120.471 59.0073 122.575 57.9287 124.493 58.5466C126.412 59.1645 127.49 61.2679 126.872 63.1865Z" fill="#DE7BA8"/>
</g>
<defs>
<clipPath id="clip0_54_665">
<rect width="125.408" height="125.408" fill="white" transform="translate(39.1304 0.0646973) rotate(17.8527)"/>
</clipPath>
</defs>
</svg>
