<svg width="161" height="161" viewBox="0 0 161 161" fill="none" xmlns="http://www.w3.org/2000/svg">
<g clip-path="url(#clip0_44_124)">
<path d="M126.694 38.253L88.9098 24.5458C88.0636 24.2384 87.0626 24.265 86.2111 24.6652L35.2943 48.5962C34.4854 48.9764 33.7847 49.6974 33.4802 50.5978L19.9436 88.4262C19.3369 90.1214 20.095 92.0108 21.7099 92.7925L102.997 132.926C103.914 133.383 105.05 133.423 106.051 132.953C106.987 132.513 107.734 131.614 107.978 130.585L128.95 42.3892C129.336 40.6671 128.365 38.8777 126.694 38.253ZM92.3998 33.2984L116.311 41.9841L96.0255 51.5185L92.3998 33.2984ZM85.1511 32.9711L88.5823 50.0031L70.123 40.0344L85.1511 32.9711ZM85.6266 56.4321L60.1256 68.4177L64.7737 45.186L85.6266 56.4321ZM57.4151 46.0072L53.3109 66.5808L42.387 53.0704L57.4151 46.0072ZM38.0133 58.8602L49.7065 73.2885L29.4207 82.823L38.0133 58.8602ZM31.3721 89.7397L54.4039 78.9146L89.8269 118.617L31.3721 89.7397ZM99.2841 118.612L61.0452 75.7932L90.6757 61.8668L99.2841 118.612ZM105.292 111.323L97.3596 58.7253L120.391 47.9003L105.292 111.323Z" fill="#DE7BA8"/>
</g>
<defs>
<clipPath id="clip0_44_124">
<rect width="120" height="121" fill="white" transform="translate(0.267578 51.0435) rotate(-25.1737)"/>
</clipPath>
</defs>
</svg>
