<svg width="1897" height="121" viewBox="0 0 1897 121" fill="none" xmlns="http://www.w3.org/2000/svg">
<g clip-path="url(#clip0_44_179)">
<path opacity="0.25" d="M-4.83789 120.675V74.3848C71.8651 52.1848 161.424 42.2148 248.752 46.3848C361.68 51.7548 467.562 79.6948 580.666 83.8848C699.179 88.2448 817.468 67.0048 930.877 48.6248C1042.06 30.6248 1152.85 23.7448 1266.96 35.5448C1324.98 41.5448 1379.07 53.3848 1434.61 64.8848C1583.29 95.6748 1781.53 134.965 1921.16 68.2048V120.675H-4.83789Z" fill="#E8EAED"/>
<path opacity="0.5" d="M-4.83789 130.177V114.367C16.0271 93.2569 39.5243 73.3169 71.7046 58.1269C154.715 18.9069 259.987 19.1769 355.613 38.5969C405.609 48.7469 452.057 64.6669 499.533 78.3969C565.21 97.3969 635.525 124.397 709.516 128.067C767.713 130.917 823.31 118.647 867.768 96.5069C918.759 71.1169 967.792 34.5069 1034.09 23.5069C1099 12.7169 1164.66 30.1969 1225.3 47.7869C1285.94 65.3769 1345.93 86.7869 1412.95 90.8369C1508.82 96.6869 1594.77 67.9569 1684.04 51.9969C1732.51 43.3369 1778.73 45.8269 1823.82 59.4969C1859.82 70.3869 1900.86 86.4269 1921.16 108.737V130.177H-4.83789Z" fill="#E8EAED"/>
<path d="M-4.83789 120.675V115.045C235.8 61.6748 499.277 49.3548 758.869 78.1048C827.884 85.7448 894.058 98.2248 963.683 104.565C1058.38 113.195 1144.21 92.3248 1229.41 69.1648C1323.99 43.4548 1417.19 25.4348 1521.84 30.6748C1660.72 37.6748 1798.64 76.3848 1921.16 115.485V120.675H-4.83789Z" fill="#E8EAED"/>
</g>
<defs>
<clipPath id="clip0_44_179">
<rect width="1926" height="120" fill="white" transform="matrix(1 0 0 -1 -4.83789 120.675)"/>
</clipPath>
</defs>
</svg>
