<svg width="202" height="99" viewBox="0 0 202 99" fill="none" xmlns="http://www.w3.org/2000/svg">
<path d="M118.194 29.5066C118.056 29.5128 117.921 29.5513 117.8 29.6188C117.679 29.6863 117.576 29.7809 117.499 29.8951C117.422 30.0093 117.373 30.1397 117.356 30.276C117.34 30.4123 117.355 30.5507 117.403 30.6798C119.748 37.4568 117.571 44.9521 111.951 49.4671C106.331 53.982 98.4698 54.5463 92.2489 50.8833C86.0278 47.2206 82.7816 40.116 84.1109 33.0746C84.1529 32.8464 84.1018 32.6111 83.9689 32.4201C83.8359 32.2292 83.6319 32.098 83.4015 32.0555C83.1712 32.013 82.9331 32.0625 82.7395 32.1932C82.546 32.324 82.4126 32.5253 82.3687 32.7531C80.9039 40.5106 84.4894 48.3533 91.3431 52.3887C98.1967 56.4239 106.876 55.8027 113.067 50.8287C119.259 45.8545 121.659 37.5783 119.076 30.112C119.016 29.9295 118.898 29.7714 118.739 29.662C118.579 29.5526 118.388 29.498 118.194 29.5066V29.5066Z" fill="#0E1E40"/>
<path d="M98.9259 33.4681C98.9065 33.4675 98.887 33.4675 98.8675 33.4681C91.7392 34.2439 86.0149 39.27 84.9943 45.7833C84.9739 45.8982 84.9768 46.0159 85.0029 46.1296C85.0291 46.2433 85.0779 46.3505 85.1465 46.4452C85.2152 46.54 85.3022 46.6203 85.4026 46.6813C85.503 46.7424 85.6147 46.7829 85.7311 46.8007C85.8476 46.8184 85.9664 46.8131 86.0807 46.7849C86.195 46.7566 86.3025 46.7059 86.3967 46.636C86.491 46.5661 86.5703 46.4783 86.6298 46.3777C86.6893 46.2771 86.728 46.1658 86.7434 46.0502C87.6315 40.3843 92.6536 35.9067 99.0611 35.2096C99.2872 35.1822 99.494 35.0698 99.6383 34.8954C99.7827 34.7211 99.8536 34.4982 99.8363 34.2735C99.8189 34.0488 99.7147 33.8395 99.5453 33.6888C99.3759 33.5382 99.1543 33.4578 98.9266 33.4647L98.9259 33.4681Z" fill="#0E1E40"/>
<path fill-rule="evenodd" clip-rule="evenodd" d="M100.023 5.0804C96.9093 5.08041 91.4075 6.41782 91.4075 6.41782L90.8025 6.56153L90.291 11.1146L92.0506 11.3062L92.4205 8.02562C93.1439 7.86268 97.6494 6.83182 100.023 6.83181C102.395 6.8318 106.891 7.86227 107.618 8.02555L107.991 11.7373L109.751 11.5619L109.246 6.56059L108.634 6.41688C108.634 6.41688 103.136 5.07953 100.023 5.07954L100.023 5.0804Z" fill="#68C2E8"/>
<path fill-rule="evenodd" clip-rule="evenodd" d="M100.211 0.000427834C100.12 -1.52814e-05 100.029 0.0135961 99.9417 0.0407418L85.7814 4.44698C85.5991 4.50324 85.4402 4.61629 85.3282 4.76927C85.2162 4.92225 85.1572 5.10692 85.16 5.2958C85.1628 5.48468 85.2272 5.66761 85.3436 5.81729C85.4601 5.96698 85.6223 6.07546 85.8061 6.12643L89.3462 7.11156L91.1162 7.60429L92.0012 7.85065L92.4818 6.16404L91.5968 5.91789L89.8268 5.42537L89.1423 5.23376L100.208 1.79215L111.271 5.23365L110.587 5.42528L108.817 5.91781L107.932 6.16396L108.412 7.85057L109.297 7.6042L111.067 7.11146L114.607 6.12629C114.791 6.07532 114.953 5.96684 115.07 5.81715C115.186 5.66747 115.251 5.48453 115.253 5.29565C115.256 5.10678 115.197 4.92211 115.085 4.76913C114.973 4.61615 114.814 4.5031 114.632 4.44684L100.472 0.0407393C100.388 0.0146298 100.3 0.00103138 100.212 0.000427829L100.211 0.000427834Z" fill="#68C2E8"/>
<path fill-rule="evenodd" clip-rule="evenodd" d="M86.0476 51.2285C85.9093 51.228 85.7727 51.2597 85.649 51.3209C85.5252 51.3821 85.4176 51.4712 85.3349 51.581C85.2522 51.6907 85.1967 51.818 85.1728 51.9529C85.1488 52.0877 85.1572 52.2264 85.1971 52.3575L86.0752 55.3986C86.1042 55.5124 86.156 55.6194 86.2276 55.713C86.2992 55.8066 86.389 55.885 86.4919 55.9435C86.5947 56.0021 86.7083 56.0396 86.8261 56.0539C86.9438 56.0681 87.0633 56.0588 87.1773 56.0265C87.2914 55.9942 87.3977 55.9395 87.49 55.8657C87.5822 55.7919 87.6585 55.7004 87.7144 55.5969C87.7702 55.4933 87.8045 55.3797 87.8151 55.2628C87.8257 55.1459 87.8124 55.0281 87.7761 54.9163L86.898 51.875C86.8472 51.69 86.7366 51.5266 86.583 51.4099C86.4294 51.2931 86.2413 51.2294 86.0476 51.2285V51.2285Z" fill="#68C2E8"/>
<path fill-rule="evenodd" clip-rule="evenodd" d="M88.5242 51.0181C88.3858 51.0176 88.2493 51.0493 88.1255 51.1105C88.0018 51.1716 87.8942 51.2608 87.8115 51.3705C87.7288 51.4803 87.6733 51.6076 87.6493 51.7424C87.6254 51.8773 87.6337 52.016 87.6737 52.147L88.5518 55.1882C88.5808 55.302 88.6326 55.4089 88.7042 55.5025C88.7757 55.5962 88.8656 55.6745 88.9684 55.7331C89.0712 55.7917 89.1849 55.8292 89.3026 55.8434C89.4204 55.8577 89.5399 55.8484 89.6539 55.8161C89.7679 55.7837 89.8743 55.729 89.9665 55.6552C90.0588 55.5814 90.1351 55.49 90.191 55.3864C90.2468 55.2828 90.281 55.1693 90.2916 55.0524C90.3022 54.9354 90.289 54.8176 90.2526 54.7059L89.3745 51.6646C89.3238 51.4796 89.2132 51.3162 89.0596 51.1994C88.906 51.0826 88.7179 51.0189 88.5242 51.0181Z" fill="#68C2E8"/>
<path fill-rule="evenodd" clip-rule="evenodd" d="M91.1451 51.2285C91.0067 51.228 90.8702 51.2597 90.7464 51.3209C90.6226 51.3821 90.515 51.4712 90.4323 51.581C90.3496 51.6907 90.2941 51.818 90.2702 51.9529C90.2462 52.0877 90.2546 52.2264 90.2945 52.3575L91.1726 55.3986C91.2016 55.5124 91.2534 55.6194 91.325 55.713C91.3966 55.8066 91.4865 55.885 91.5893 55.9435C91.6921 56.0021 91.8057 56.0396 91.9235 56.0539C92.0413 56.0681 92.1607 56.0588 92.2748 56.0265C92.3888 55.9942 92.4951 55.9395 92.5874 55.8657C92.6796 55.7919 92.756 55.7004 92.8118 55.5969C92.8677 55.4933 92.9019 55.3797 92.9125 55.2628C92.9231 55.1459 92.9098 55.0281 92.8735 54.9163L91.9954 51.875C91.9447 51.69 91.834 51.5266 91.6804 51.4099C91.5268 51.2931 91.3388 51.2294 91.1451 51.2285V51.2285Z" fill="#68C2E8"/>
<path fill-rule="evenodd" clip-rule="evenodd" d="M116.14 51.4396C115.952 51.447 115.771 51.5139 115.623 51.6302C115.476 51.7464 115.37 51.9061 115.321 52.0861L114.442 55.1275C114.406 55.2392 114.393 55.357 114.403 55.4739C114.414 55.5908 114.448 55.7044 114.504 55.808C114.56 55.9115 114.636 56.003 114.729 56.0768C114.821 56.1506 114.927 56.2053 115.041 56.2376C115.155 56.27 115.275 56.2792 115.392 56.265C115.51 56.2507 115.624 56.2132 115.727 56.1546C115.829 56.0961 115.919 56.0177 115.991 55.9241C116.062 55.8305 116.114 55.7235 116.143 55.6097L117.021 52.5686C117.062 52.435 117.07 52.2935 117.045 52.1563C117.019 52.019 116.961 51.8899 116.875 51.7794C116.788 51.669 116.677 51.5804 116.549 51.5213C116.421 51.4622 116.281 51.4342 116.14 51.4396V51.4396Z" fill="#68C2E8"/>
<path fill-rule="evenodd" clip-rule="evenodd" d="M113.451 51.4396C113.263 51.447 113.082 51.5139 112.934 51.6302C112.787 51.7464 112.681 51.9061 112.632 52.0861L111.753 55.1275C111.717 55.2392 111.704 55.357 111.714 55.4739C111.725 55.5908 111.759 55.7044 111.815 55.808C111.871 55.9115 111.947 56.003 112.04 56.0768C112.132 56.1506 112.238 56.2053 112.352 56.2376C112.466 56.27 112.586 56.2792 112.703 56.265C112.821 56.2507 112.935 56.2132 113.038 56.1546C113.14 56.0961 113.23 56.0177 113.302 55.9241C113.373 55.8305 113.425 55.7235 113.454 55.6097L114.332 52.5686C114.373 52.435 114.381 52.2935 114.356 52.1563C114.33 52.019 114.272 51.8899 114.186 51.7794C114.099 51.669 113.988 51.5804 113.86 51.5213C113.732 51.4622 113.592 51.4342 113.451 51.4396V51.4396Z" fill="#68C2E8"/>
<path fill-rule="evenodd" clip-rule="evenodd" d="M110.617 51.4396C110.429 51.447 110.248 51.5139 110.1 51.6302C109.953 51.7464 109.847 51.9061 109.798 52.0861L108.919 55.1275C108.883 55.2392 108.87 55.357 108.88 55.4739C108.891 55.5908 108.925 55.7044 108.981 55.808C109.037 55.9115 109.113 56.003 109.206 56.0768C109.298 56.1506 109.404 56.2053 109.518 56.2376C109.632 56.27 109.752 56.2792 109.869 56.265C109.987 56.2507 110.101 56.2132 110.204 56.1546C110.306 56.0961 110.396 56.0177 110.468 55.9241C110.539 55.8305 110.591 55.7235 110.62 55.6097L111.498 52.5686C111.539 52.435 111.547 52.2935 111.522 52.1563C111.496 52.019 111.438 51.8899 111.352 51.7794C111.265 51.669 111.154 51.5804 111.026 51.5213C110.898 51.4622 110.758 51.4342 110.617 51.4396V51.4396Z" fill="#68C2E8"/>
<path d="M104.328 33.2539C104.107 33.2679 103.899 33.3634 103.745 33.5217C103.592 33.6799 103.504 33.8895 103.499 34.1087C103.494 34.3279 103.573 34.541 103.719 34.7058C103.865 34.8706 104.068 34.9752 104.289 34.9988C109.082 35.5827 113.191 38.3206 115.217 42.2165C115.267 42.3234 115.338 42.4191 115.427 42.498C115.516 42.5768 115.619 42.6373 115.732 42.6755C115.845 42.7137 115.964 42.7289 116.083 42.7204C116.202 42.7119 116.318 42.6796 116.424 42.6257C116.53 42.5717 116.624 42.4973 116.7 42.4067C116.776 42.316 116.833 42.211 116.867 42.0981C116.901 41.9851 116.912 41.8664 116.898 41.7492C116.885 41.6321 116.848 41.5187 116.79 41.4161C114.474 36.9623 109.84 33.911 104.503 33.2607C104.444 33.2549 104.385 33.2549 104.326 33.2607L104.328 33.2539Z" fill="#0E1E40"/>
<path d="M91.1414 15.7343C86.2641 15.7344 82.2912 19.6655 82.2912 24.4918C82.2912 29.3178 86.264 33.2491 91.1413 33.2491C96.0186 33.2491 99.9915 29.3178 99.9915 24.4917C99.9915 19.6654 96.0187 15.7343 91.1414 15.7343ZM91.1414 17.4859C95.0622 17.4858 98.2215 20.612 98.2215 24.4917C98.2215 28.3714 95.0621 31.4976 91.1413 31.4976C87.2207 31.4976 84.0612 28.3714 84.0612 24.4917C84.0613 20.6121 87.2208 17.4859 91.1414 17.4859Z" fill="#0E1E40"/>
<path d="M111.281 19.2434C110.086 19.2924 108.906 19.7381 107.962 20.5706C107.787 20.7253 107.681 20.9426 107.668 21.1745C107.655 21.4065 107.735 21.6341 107.891 21.8074C108.048 21.9806 108.267 22.0853 108.502 22.0984C108.736 22.1116 108.966 22.0322 109.141 21.8775C110.405 20.7615 112.275 20.6832 113.628 21.6925C114.981 22.702 115.423 24.5035 114.686 26.0131C113.95 27.5229 112.25 28.3011 110.61 27.881C108.97 27.4609 107.866 25.9664 107.962 24.2924C107.972 24.1758 107.958 24.0585 107.922 23.9472C107.885 23.836 107.826 23.733 107.749 23.6446C107.671 23.5562 107.577 23.4841 107.471 23.4325C107.364 23.3809 107.249 23.3511 107.131 23.3444C107.013 23.3377 106.894 23.3545 106.783 23.3938C106.672 23.4331 106.569 23.4939 106.482 23.573C106.395 23.6521 106.325 23.7478 106.275 23.8542C106.226 23.9606 106.199 24.0756 106.196 24.1926C106.052 26.6898 107.721 28.9503 110.168 29.5771C112.615 30.2038 115.181 29.028 116.28 26.7753C117.379 24.5226 116.712 21.8022 114.693 20.2962C113.684 19.543 112.476 19.194 111.281 19.2427L111.281 19.2434Z" fill="#68C2E8"/>
<path d="M111.534 21.6216C111.299 21.6216 111.074 21.7141 110.907 21.8786C110.741 22.0432 110.647 22.2663 110.647 22.4991C110.647 22.7318 110.741 22.9551 110.907 23.1197C111.074 23.2842 111.299 23.3767 111.534 23.3767C111.87 23.3767 112.122 23.626 112.122 23.958C112.122 24.0732 112.145 24.1875 112.189 24.294C112.234 24.4004 112.299 24.4971 112.382 24.5786C112.464 24.6601 112.562 24.7246 112.669 24.7687C112.777 24.8128 112.892 24.8357 113.009 24.8357C113.125 24.8357 113.24 24.8128 113.348 24.7687C113.456 24.7246 113.553 24.6601 113.636 24.5786C113.718 24.4971 113.783 24.4004 113.828 24.294C113.873 24.1875 113.896 24.0732 113.896 23.958C113.896 22.6778 112.828 21.6216 111.534 21.6216Z" fill="#68C2E8"/>
<path d="M112.382 15.7343C107.505 15.7344 103.532 19.6655 103.532 24.4918C103.532 29.3178 107.505 33.2491 112.382 33.2491C117.26 33.2491 121.232 29.3178 121.232 24.4917C121.233 19.6654 117.26 15.7343 112.382 15.7343ZM112.382 17.4859C116.303 17.4858 119.462 20.612 119.462 24.4917C119.462 28.3714 116.303 31.4976 112.382 31.4976C108.462 31.4976 105.302 28.3714 105.302 24.4917C105.302 20.6121 108.462 17.4859 112.382 17.4859Z" fill="#0E1E40"/>
<path d="M86.349 7.49706C84.8967 7.49706 83.7044 8.68705 83.7044 10.1243C83.7028 10.2404 83.7244 10.3556 83.7682 10.4633C83.8119 10.571 83.8768 10.669 83.9592 10.7516C84.0415 10.8342 84.1396 10.8999 84.2478 10.9447C84.356 10.9895 84.4721 11.0125 84.5894 11.0125C84.7067 11.0125 84.8228 10.9895 84.931 10.9447C85.0392 10.8999 85.1374 10.8342 85.2197 10.7516C85.302 10.669 85.367 10.571 85.4107 10.4633C85.4544 10.3556 85.4761 10.2404 85.4744 10.1243C85.4745 9.62714 85.8598 9.24837 86.349 9.24836C86.8381 9.24836 87.2202 9.62713 87.2202 10.1243C87.2202 10.3239 87.1954 10.6049 87.1654 10.7127C87.1313 10.8242 87.1202 10.9413 87.1325 11.0572C87.1448 11.1731 87.1803 11.2855 87.237 11.3876C87.2937 11.4897 87.3704 11.5795 87.4626 11.6519C87.5549 11.7243 87.6608 11.7777 87.7742 11.8091C87.8876 11.8405 88.0061 11.8493 88.123 11.8348C88.2398 11.8203 88.3525 11.7828 88.4545 11.7246C88.5565 11.6665 88.6458 11.5887 88.7171 11.496C88.7884 11.4033 88.8403 11.2975 88.8697 11.1846C88.9848 10.7792 88.9901 10.4085 88.9901 10.1243C88.9901 8.68703 87.8014 7.49705 86.3489 7.49706L86.349 7.49706Z" fill="#68C2E8"/>
<path fill-rule="evenodd" clip-rule="evenodd" d="M85.0146 4.86914L85.0146 8.37207L86.7847 8.37206L86.7847 4.86913L85.0146 4.86914Z" fill="#68C2E8"/>
<path d="M89.5999 19.2791C88.407 19.4263 87.2636 19.9717 86.3917 20.8869C86.312 20.9707 86.2498 21.0692 86.2085 21.1767C86.1673 21.2843 86.1479 21.399 86.1515 21.514C86.155 21.629 86.1814 21.7421 86.2291 21.847C86.2768 21.9519 86.345 22.0464 86.4296 22.1252C86.5143 22.204 86.6138 22.2658 86.7225 22.3066C86.8313 22.3473 86.947 22.3665 87.0632 22.363C87.1795 22.3595 87.2938 22.3335 87.3999 22.2862C87.5059 22.239 87.6014 22.1715 87.6811 22.0878C88.8502 20.8605 90.7205 20.6278 92.1581 21.5334C93.5959 22.4392 94.1732 24.2147 93.5443 25.7822C92.9154 27.3495 91.2635 28.2471 89.5895 27.9302C87.9154 27.6136 86.7166 26.1754 86.7166 24.489C86.7183 24.373 86.6966 24.2579 86.6529 24.1502C86.6091 24.0426 86.5442 23.9444 86.4619 23.8617C86.3795 23.7791 86.2814 23.7136 86.1732 23.6688C86.065 23.6241 85.9489 23.6008 85.8316 23.6008C85.7143 23.6008 85.5982 23.6241 85.49 23.6689C85.3818 23.7136 85.2837 23.7791 85.2013 23.8618C85.119 23.9444 85.0541 24.0426 85.0103 24.1503C84.9666 24.2579 84.9449 24.373 84.9466 24.489C84.9466 27.0048 86.7603 29.1785 89.2576 29.6512C91.7548 30.1235 94.2518 28.7668 95.1899 26.4287C96.1281 24.0903 95.2537 21.4067 93.1088 20.0556C92.0365 19.3803 90.7927 19.132 89.5999 19.2791V19.2791Z" fill="#68C2E8"/>
<path d="M90.5065 22.043C90.2713 22.043 90.0457 22.1355 89.8794 22.3C89.7131 22.4646 89.6196 22.6877 89.6196 22.9204C89.6196 23.1532 89.7131 23.3765 89.8794 23.5411C90.0457 23.7056 90.2713 23.7981 90.5065 23.7981C90.8419 23.7981 91.0941 24.0474 91.0941 24.3794C91.0941 24.6121 91.1875 24.8355 91.3538 25C91.5201 25.1646 91.7457 25.2571 91.9809 25.2571C92.2161 25.2571 92.4416 25.1646 92.6079 25C92.7743 24.8354 92.8677 24.6121 92.8677 24.3794C92.8677 23.0992 91.8002 22.043 90.5065 22.043V22.043Z" fill="#68C2E8"/>
<path fill-rule="evenodd" clip-rule="evenodd" d="M81.6675 9.8241C81.5504 9.82231 81.4341 9.84336 81.3254 9.88634C81.2167 9.92932 81.1176 9.99321 81.034 10.0743C80.9504 10.1554 80.8839 10.2522 80.8384 10.359C80.7928 10.4657 80.7691 10.5804 80.7686 10.6962C80.7683 10.7108 80.7683 10.7253 80.7686 10.7399C80.7686 10.7399 80.7686 10.7645 80.7686 10.7645C80.7682 10.7802 80.7682 10.796 80.7686 10.8117C80.7686 10.8765 80.8323 12.0378 81.0555 13.4322C81.1706 14.1485 81.3262 14.9117 81.5499 15.6114C81.7736 16.3109 82.0329 16.9543 82.5455 17.4587C82.6273 17.5424 82.7252 17.609 82.8334 17.6548C82.9415 17.7006 83.0579 17.7246 83.1755 17.7254C83.2932 17.7262 83.4098 17.7036 83.5186 17.6593C83.6274 17.615 83.7261 17.5498 83.8091 17.4673C83.8921 17.3847 83.9576 17.2864 84.0018 17.1786C84.046 17.0707 84.068 16.9551 84.0666 16.8387C84.0651 16.7223 84.0402 16.6074 83.9934 16.5006C83.9465 16.3938 83.8786 16.2973 83.7936 16.2168C83.6661 16.0924 83.4192 15.6546 83.2371 15.0846C83.0548 14.5147 82.9077 13.8205 82.8015 13.1586C82.6953 12.4976 82.7077 12.3673 82.667 11.9067C83.5377 12.2124 84.4163 12.57 85.5121 12.7411C89.1262 13.3065 92.6034 12.2008 95.5169 12.9601C96.0806 13.1073 97.121 13.6342 97.9438 14.1196C98.7666 14.6051 99.4061 15.0401 99.4061 15.0401C99.5436 15.1343 99.7051 15.188 99.8722 15.1951C100.039 15.2023 100.205 15.1625 100.35 15.0803C100.35 15.0803 101.155 14.6204 102.182 14.1121C103.21 13.6039 104.487 13.0548 105.228 12.891C108.101 12.2562 111.441 13.2441 114.932 12.7436C116.055 12.5824 117.013 12.2219 117.867 11.9397C117.867 12.3591 117.89 12.4646 117.809 13.12C117.731 13.7599 117.599 14.4567 117.397 15.0937C117.328 15.3153 117.35 15.555 117.459 15.7603C117.569 15.9656 117.755 16.1196 117.979 16.1889C118.203 16.2581 118.445 16.2368 118.653 16.1296C118.861 16.0224 119.017 15.8381 119.088 15.617C119.333 14.8419 119.477 14.0502 119.565 13.3319C119.744 11.8972 119.696 10.7354 119.696 10.7354C119.691 10.5986 119.653 10.4649 119.586 10.3451C119.519 10.2253 119.425 10.1226 119.31 10.0455C119.196 9.96833 119.065 9.91891 118.928 9.90092C118.791 9.88293 118.651 9.89696 118.52 9.94198C118.52 9.94198 115.829 10.8411 114.68 11.0057C111.723 11.4297 108.325 10.4072 104.841 11.1775C103.751 11.4182 102.469 12.0089 101.391 12.5424C100.584 12.9415 100.238 13.1406 99.949 13.3018C99.694 13.1319 99.4672 12.9752 98.8497 12.6106C97.971 12.0922 96.9304 11.5131 95.9698 11.2631C92.3776 10.3269 88.8216 11.4842 85.7888 11.0099C84.6445 10.8311 81.9547 9.87073 81.9547 9.87073C81.8597 9.83468 81.7591 9.8152 81.6574 9.81298L81.6675 9.8241Z" fill="#0E1E40"/>
<path fill-rule="evenodd" clip-rule="evenodd" d="M101.262 27.9983C101.038 28.0037 100.824 28.0929 100.664 28.2481L97.5667 31.255C97.4228 31.3953 97.3317 31.5799 97.3086 31.7784C97.2854 31.9769 97.3315 32.1772 97.4392 32.3462L100.537 37.2209C100.617 37.3459 100.727 37.4489 100.858 37.5203C100.989 37.5917 101.136 37.6291 101.285 37.6291C101.435 37.6291 101.582 37.5917 101.713 37.5203C101.843 37.4489 101.954 37.3459 102.034 37.2209L105.131 32.3461C105.239 32.1771 105.285 31.9768 105.262 31.7783C105.239 31.5798 105.148 31.3952 105.004 31.255L101.906 28.2481C101.822 28.166 101.721 28.1014 101.61 28.0584C101.5 28.0155 101.382 27.9952 101.263 27.9983L101.262 27.9983ZM101.287 30.1021L103.254 32.011L101.284 35.1101L99.3164 32.011L101.287 30.1021Z" fill="#68C2E8"/>
<path d="M6.07886 73.7222L16.7916 73.7222L16.7916 77.2388L0.318711 77.2389L0.318729 74.4416L10.6547 62.1064L0.534146 62.1065L0.534169 58.5898L16.388 58.5897L16.388 61.3871L6.07886 73.7222ZM19.2948 77.2388L19.295 57.4708L23.4939 57.4707L23.4938 77.2388L19.2948 77.2388ZM34.2873 77.4519C32.762 77.4519 31.3938 77.1367 30.1825 76.5061C28.9713 75.8756 28.0247 75.0009 27.3429 73.882C26.661 72.763 26.3201 71.4931 26.3201 70.0722C26.3201 68.6513 26.661 67.3814 27.3429 66.2625C28.0248 65.1435 28.9714 64.2688 30.1826 63.6382C31.3939 63.0077 32.7621 62.6924 34.2874 62.6924C35.8127 62.6924 37.1764 63.0077 38.3787 63.6382C39.581 64.2687 40.523 65.1434 41.2049 66.2624C41.8868 67.3813 42.2277 68.6512 42.2277 70.0721C42.2277 71.493 41.8868 72.7629 41.2049 73.8819C40.523 75.0008 39.5809 75.8756 38.3786 76.5061C37.1763 77.1366 35.8126 77.4519 34.2873 77.4519ZM34.2873 74.0418C35.364 74.0418 36.2477 73.6821 36.9386 72.9628C37.6295 72.2434 37.9749 71.2799 37.9749 70.0722C37.9749 68.8644 37.6295 67.9009 36.9386 67.1815C36.2478 66.4622 35.364 66.1026 34.2874 66.1026C33.2107 66.1026 32.3225 66.4622 31.6226 67.1816C30.9228 67.9009 30.5729 68.8644 30.5729 70.0722C30.5729 71.2799 30.9228 72.2435 31.6226 72.9628C32.3224 73.6821 33.2107 74.0418 34.2873 74.0418ZM53.5865 62.6924C54.9323 62.6923 56.157 62.9987 57.2606 63.6115C58.3642 64.2242 59.23 65.0856 59.858 66.1957C60.4861 67.3058 60.8001 68.5979 60.8001 70.072C60.8001 71.5462 60.486 72.8383 59.858 73.9484C59.2299 75.0585 58.3641 75.9199 57.2605 76.5327C56.1569 77.1454 54.9322 77.4518 53.5864 77.4518C51.5946 77.4518 50.0783 76.8302 49.0375 75.5869L49.0375 77.2387L45.027 77.2387L45.0271 57.4706L49.2261 57.4706L49.226 64.4241C50.2848 63.2696 51.7382 62.6924 53.5865 62.6924ZM52.8597 74.0417C53.9364 74.0417 54.8201 73.682 55.511 72.9627C56.2018 72.2434 56.5473 71.2798 56.5473 70.0721C56.5473 68.8643 56.2019 67.9008 55.511 67.1815C54.8202 66.4621 53.9364 66.1025 52.8597 66.1025C51.7831 66.1025 50.8993 66.4622 50.2085 67.1815C49.5176 67.9008 49.1722 68.8643 49.1722 70.0721C49.1722 71.2799 49.5176 72.2434 50.2084 72.9627C50.8993 73.682 51.783 74.0417 52.8597 74.0417ZM77.7844 70.1252C77.7844 70.1785 77.7575 70.5515 77.7036 71.2442L66.7486 71.2442C66.946 72.1323 67.4125 72.8339 68.1483 73.3489C68.884 73.864 69.7991 74.1215 70.8937 74.1215C71.6474 74.1215 72.3158 74.0105 72.899 73.7885C73.4822 73.5665 74.025 73.2157 74.5275 72.7361L76.7615 75.1339C75.3977 76.6791 73.4059 77.4517 70.786 77.4517C69.1531 77.4517 67.7086 77.1365 66.4525 76.506C65.1964 75.8755 64.2274 75.0007 63.5455 73.8818C62.8637 72.7628 62.5227 71.4929 62.5227 70.072C62.5227 68.6689 62.8592 67.4034 63.5321 66.2756C64.205 65.1478 65.1292 64.2686 66.3045 63.6381C67.4799 63.0075 68.7943 62.6923 70.2478 62.6923C71.6654 62.6923 72.9484 62.9942 74.0969 63.5981C75.2453 64.2019 76.147 65.0678 76.802 66.1956C77.4569 67.3234 77.7844 68.6333 77.7844 70.1252ZM70.2747 65.836C69.3237 65.836 68.5251 66.1024 67.8791 66.6352C67.2331 67.1681 66.8384 67.8963 66.6948 68.8199L73.8277 68.8198C73.6841 67.914 73.2893 67.1903 72.6433 66.6485C71.9974 66.1068 71.2078 65.836 70.2747 65.836ZM91.3771 77.2385L86.8014 71.6171L84.7826 73.5886L84.7826 77.2385L80.5836 77.2385L80.5838 57.4705L84.7827 57.4704L84.7827 68.6599L90.9197 62.9053L95.9261 62.9053L89.8968 68.9796L96.4644 77.2385L91.3771 77.2385ZM127.499 77.2383L123.408 77.2383L123.381 66.0489L117.836 75.2669L115.871 75.2669L110.353 66.2887L110.353 77.2384L106.262 77.2384L106.262 58.5893L109.869 58.5893L116.921 70.1783L123.865 58.5892L127.445 58.5892L127.499 77.2383ZM131.671 77.2383L131.671 62.9051L135.87 62.9051L135.87 77.2383L131.671 77.2383ZM133.771 60.907C132.999 60.907 132.371 60.685 131.887 60.241C131.402 59.7969 131.16 59.2463 131.16 58.5892C131.16 57.932 131.402 57.3814 131.887 56.9374C132.371 56.4934 132.999 56.2713 133.771 56.2713C134.542 56.2713 135.17 56.4845 135.655 56.9107C136.139 57.337 136.382 57.8698 136.382 58.5092C136.382 59.2019 136.139 59.7747 135.655 60.2276C135.17 60.6805 134.542 60.907 133.771 60.907ZM153.958 70.1249C153.958 70.1782 153.931 70.5512 153.877 71.2438L142.922 71.2439C143.12 72.1319 143.586 72.8335 144.322 73.3486C145.058 73.8636 145.973 74.1212 147.067 74.1212C147.821 74.1212 148.489 74.0102 149.073 73.7881C149.656 73.5661 150.199 73.2153 150.701 72.7358L152.935 75.1335C151.571 76.6787 149.58 77.4514 146.96 77.4514C145.327 77.4514 143.882 77.1361 142.626 76.5056C141.37 75.8751 140.401 75.0004 139.719 73.8814C139.037 72.7625 138.696 71.4926 138.696 70.0717C138.696 68.6686 139.033 67.4031 139.706 66.2752C140.379 65.1474 141.303 64.2682 142.478 63.6377C143.654 63.0072 144.968 62.6919 146.421 62.6919C147.839 62.6919 149.122 62.9938 150.27 63.5977C151.419 64.2016 152.321 65.0674 152.976 66.1953C153.631 67.3231 153.958 68.633 153.958 70.1249ZM146.448 65.8356C145.497 65.8356 144.699 66.102 144.053 66.6349C143.407 67.1677 143.012 67.8959 142.868 68.8195L150.001 68.8195C149.858 67.9137 149.463 67.1899 148.817 66.6482C148.171 66.1065 147.381 65.8356 146.448 65.8356ZM155.681 82.6198C154.209 82.6198 153.088 82.3534 152.316 81.8206L153.447 78.8101C153.931 79.1475 154.523 79.3162 155.223 79.3162C155.761 79.3162 156.183 79.1431 156.488 78.7967C156.793 78.4504 156.946 77.9309 156.946 77.2382L156.946 62.905L161.145 62.905L161.145 77.2115C161.145 78.8811 160.665 80.1998 159.705 81.1678C158.745 82.1358 157.403 82.6198 155.681 82.6198ZM159.045 60.9069C158.274 60.9069 157.646 60.6849 157.161 60.2408C156.677 59.7968 156.434 59.2462 156.434 58.5891C156.434 57.9319 156.677 57.3813 157.161 56.9373C157.646 56.4932 158.274 56.2712 159.045 56.2712C159.817 56.2712 160.445 56.4843 160.929 56.9106C161.414 57.3369 161.656 57.8697 161.656 58.5091C161.656 59.2018 161.414 59.7746 160.929 60.2275C160.445 60.6804 159.817 60.9069 159.045 60.9069ZM169.893 77.4513C168.69 77.4513 167.515 77.3047 166.366 77.0117C165.218 76.7186 164.303 76.3501 163.621 75.9061L165.021 72.9222C165.667 73.3307 166.447 73.6637 167.362 73.9213C168.278 74.1788 169.175 74.3076 170.054 74.3075C171.83 74.3075 172.719 73.8724 172.719 73.0021C172.719 72.5936 172.477 72.3005 171.992 72.1229C171.508 71.9453 170.763 71.7944 169.758 71.67C168.574 71.4924 167.596 71.2882 166.824 71.0573C166.052 70.8264 165.384 70.4179 164.819 69.8318C164.254 69.2457 163.971 68.4109 163.971 67.3275C163.971 66.4217 164.236 65.618 164.765 64.9164C165.294 64.2148 166.066 63.6687 167.08 63.2779C168.094 62.8872 169.291 62.6918 170.673 62.6918C171.696 62.6918 172.714 62.8028 173.728 63.0248C174.742 63.2468 175.581 63.5532 176.245 63.9439L174.845 66.9012C173.571 66.1907 172.18 65.8355 170.673 65.8355C169.776 65.8355 169.103 65.9598 168.654 66.2085C168.206 66.4572 167.981 66.7769 167.981 67.1676C167.981 67.6116 168.224 67.9224 168.708 68.1001C169.193 68.2777 169.964 68.4464 171.023 68.6062C172.207 68.8016 173.176 69.0103 173.93 69.2323C174.684 69.4543 175.339 69.8584 175.895 70.4445C176.451 71.0306 176.729 71.8476 176.729 72.8955C176.729 73.7836 176.46 74.5739 175.922 75.2666C175.383 75.9593 174.598 76.4966 173.567 76.8784C172.535 77.2603 171.31 77.4513 169.893 77.4513ZM190.107 77.238L185.531 71.6167L183.512 73.5882L183.512 77.2381L179.313 77.2381L179.313 57.47L183.512 57.47L183.512 68.6595L189.649 62.9048L194.656 62.9048L188.626 68.9791L195.194 77.238L190.107 77.238ZM196.97 77.238L196.971 62.9048L201.17 62.9048L201.169 77.238L196.97 77.238ZM199.07 60.9067C198.298 60.9067 197.67 60.6847 197.186 60.2406C196.701 59.7966 196.459 59.246 196.459 58.5889C196.459 57.9317 196.701 57.3811 197.186 56.9371C197.67 56.4931 198.298 56.271 199.07 56.271C199.842 56.271 200.47 56.4842 200.954 56.9104C201.439 57.3367 201.681 57.8695 201.681 58.5089C201.681 59.2016 201.439 59.7744 200.954 60.2273C200.47 60.6802 199.842 60.9067 199.07 60.9067Z" fill="#68C2E8"/>
<path d="M41.5895 86.1685L42.6682 86.1685L39.3657 94.8084L38.2539 94.8084L35.4991 87.7289L32.7443 94.8084L31.6324 94.8084L28.3467 86.1685L29.4751 86.1685L32.2133 93.5108L35.0179 86.1685L36.0302 86.1685L38.8181 93.5107L41.5895 86.1685ZM57.388 94.8083L52.6418 89.4043L50.2687 91.786L50.2687 94.8083L49.0407 94.8083L49.0408 83.3104L50.2688 83.3104L50.2687 90.2584L57.0894 83.3103L58.5 83.3103L53.4716 88.5173L58.8484 94.8083L57.388 94.8083ZM61.5534 87.8602C61.83 87.2798 62.2421 86.8418 62.7898 86.5462C63.3374 86.2505 64.015 86.1027 64.8227 86.1027L64.8227 87.236L64.5405 87.2196C63.6223 87.2196 62.9032 87.4989 62.3832 88.0573C61.8632 88.6158 61.6032 89.3988 61.6032 90.4062L61.6032 94.8083L60.4249 94.8083L60.425 86.1684L61.5534 86.1684L61.5534 87.8602ZM69.9837 86.1026C71.1233 86.1026 71.9973 86.3846 72.6058 86.9485C73.2142 87.5125 73.5185 88.3475 73.5185 89.4535L73.5184 94.8082L72.39 94.8082L72.39 93.4613C72.1245 93.9103 71.7345 94.2607 71.22 94.5126C70.7056 94.7644 70.0943 94.8903 69.3863 94.8904C68.4127 94.8904 67.6382 94.6604 67.0629 94.2005C66.4877 93.7406 66.2 93.1328 66.2 92.3772C66.2 91.6436 66.4683 91.0522 67.0049 90.6033C67.5415 90.1543 68.3961 89.9298 69.5688 89.9298L72.3402 89.9298L72.3402 89.4042C72.3402 88.6596 72.13 88.0929 71.7096 87.7041C71.2892 87.3154 70.6752 87.121 69.8676 87.121C69.3144 87.121 68.7833 87.2114 68.2744 87.3921C67.7655 87.5727 67.3285 87.8219 66.9634 88.1394L66.4324 87.2689C66.8749 86.8966 67.406 86.6091 68.0255 86.4065C68.6451 86.2039 69.2978 86.1026 69.9837 86.1026ZM69.5688 93.9705C70.2326 93.9705 70.8024 93.8199 71.2781 93.5188C71.7538 93.2177 72.1079 92.7824 72.3402 92.213L72.3402 90.8004L69.602 90.8004C68.1085 90.8004 67.3617 91.3151 67.3617 92.3444C67.3617 92.8481 67.5553 93.2451 67.9425 93.5352C68.3297 93.8254 68.8718 93.9705 69.5688 93.9705ZM79.0612 94.8903C78.3531 94.8903 77.6755 94.789 77.0283 94.5864C76.3811 94.3839 75.8749 94.1293 75.5098 93.8227L76.0409 92.9028C76.406 93.1875 76.8651 93.4202 77.4183 93.6009C77.9715 93.7816 78.5467 93.8719 79.1442 93.8719C79.9407 93.8719 80.5299 93.7487 80.9115 93.5023C81.2932 93.2559 81.4841 92.9083 81.4841 92.4593C81.4841 92.1417 81.379 91.8926 81.1688 91.7119C80.9586 91.5313 80.6931 91.3944 80.3722 91.3013C80.0514 91.2082 79.6254 91.1179 79.0944 91.0303C78.3864 90.8989 77.8166 90.7647 77.3851 90.6279C76.9536 90.491 76.5858 90.2583 76.2815 89.9298C75.9773 89.6013 75.8252 89.1468 75.8252 88.5665C75.8252 87.8437 76.1294 87.2524 76.7379 86.7925C77.3464 86.3326 78.1928 86.1026 79.277 86.1026C79.8412 86.1026 80.4054 86.1765 80.9697 86.3243C81.5339 86.4722 81.9986 86.6665 82.3637 86.9074L81.8492 87.8437C81.1301 87.3509 80.2727 87.1046 79.277 87.1046C78.5247 87.1046 77.9577 87.236 77.576 87.4988C77.1943 87.7616 77.0034 88.1065 77.0034 88.5336C77.0034 88.8621 77.1113 89.1249 77.327 89.322C77.5428 89.5191 77.8111 89.6642 78.1319 89.7573C78.4527 89.8504 78.8953 89.9462 79.4595 90.0447C80.1565 90.1761 80.7152 90.3076 81.1356 90.439C81.556 90.5704 81.9156 90.7948 82.2143 91.1124C82.513 91.43 82.6623 91.868 82.6623 92.4264C82.6623 93.182 82.3443 93.7816 81.7081 94.2251C81.072 94.6686 80.1897 94.8903 79.0612 94.8903ZM89.2838 86.1026C90.3791 86.1025 91.2503 86.4174 91.8975 87.047C92.5447 87.6767 92.8683 88.5938 92.8683 89.7983L92.8683 94.8081L91.6901 94.8081L91.6901 89.9133C91.6901 89.0153 91.4633 88.3309 91.0097 87.8601C90.5561 87.3892 89.9089 87.1538 89.0681 87.1538C88.1277 87.1538 87.3837 87.4303 86.836 87.9833C86.2884 88.5363 86.0146 89.3001 86.0146 90.2747L86.0145 94.8081L84.8363 94.8082L84.8363 86.1683L85.9648 86.1683L85.9648 87.7616C86.2856 87.2359 86.7309 86.828 87.3007 86.5378C87.8705 86.2477 88.5315 86.1026 89.2838 86.1026ZM102.079 86.1682L103.24 86.1682L98.8757 95.8429C98.5217 96.6532 98.1123 97.2281 97.6477 97.5676C97.183 97.9071 96.6243 98.0768 95.9716 98.0768C95.5512 98.0768 95.1584 98.0111 94.7933 97.8797C94.4282 97.7483 94.1129 97.5512 93.8474 97.2884L94.395 96.4178C94.8376 96.8558 95.3686 97.0748 95.9882 97.0748C96.3864 97.0748 96.7266 96.9653 97.0088 96.7463C97.2909 96.5273 97.5536 96.155 97.797 95.6294L98.1787 94.7917L94.2789 86.1682L95.507 86.1682L98.7928 93.5105L102.079 86.1682ZM115.786 86.1024C116.881 86.1024 117.742 86.4145 118.367 87.0387C118.992 87.6628 119.304 88.5827 119.304 89.7982L119.304 94.808L118.126 94.808L118.126 89.9132C118.126 89.0152 117.908 88.3308 117.471 87.86C117.034 87.3891 116.417 87.1537 115.62 87.1537C114.713 87.1537 113.999 87.4302 113.479 87.9832C112.959 88.5362 112.699 89.3 112.699 90.2745L112.699 94.808L111.521 94.808L111.521 89.9132C111.521 89.0153 111.303 88.3309 110.866 87.86C110.429 87.3891 109.806 87.1537 108.999 87.1537C108.103 87.1537 107.392 87.4302 106.866 87.9832C106.341 88.5362 106.078 89.3 106.078 90.2746L106.078 94.8081L104.9 94.8081L104.9 86.1682L106.028 86.1682L106.028 87.745C106.338 87.2194 106.77 86.8142 107.323 86.5295C107.876 86.2448 108.512 86.1025 109.231 86.1025C109.961 86.1025 110.595 86.2558 111.131 86.5624C111.668 86.869 112.069 87.3234 112.334 87.9257C112.655 87.3563 113.117 86.91 113.72 86.587C114.323 86.264 115.012 86.1024 115.786 86.1024ZM124.847 94.8901C124.139 94.8901 123.461 94.7888 122.814 94.5862C122.167 94.3836 121.661 94.1291 121.296 93.8224L121.827 92.9026C122.192 93.1873 122.651 93.42 123.204 93.6007C123.757 93.7814 124.333 93.8717 124.93 93.8717C125.727 93.8717 126.316 93.7485 126.697 93.5021C127.079 93.2557 127.27 92.9081 127.27 92.4591C127.27 92.1415 127.165 91.8924 126.955 91.7117C126.744 91.531 126.479 91.3942 126.158 91.3011C125.837 91.208 125.411 91.1177 124.88 91.0301C124.172 90.8987 123.602 90.7645 123.171 90.6276C122.739 90.4908 122.372 90.2581 122.067 89.9296C121.763 89.6011 121.611 89.1466 121.611 88.5662C121.611 87.8435 121.915 87.2522 122.524 86.7923C123.132 86.3323 123.979 86.1024 125.063 86.1024C125.627 86.1024 126.191 86.1763 126.756 86.3241C127.32 86.4719 127.784 86.6663 128.15 86.9072L127.635 87.8435C126.916 87.3507 126.059 87.1043 125.063 87.1043C124.311 87.1043 123.744 87.2358 123.362 87.4986C122.98 87.7614 122.789 88.1063 122.789 88.5334C122.789 88.8619 122.897 89.1247 123.113 89.3218C123.329 89.5189 123.597 89.664 123.918 89.7571C124.239 89.8502 124.681 89.946 125.245 90.0445C125.942 90.1759 126.501 90.3073 126.921 90.4387C127.342 90.5701 127.701 90.7946 128 91.1122C128.299 91.4297 128.448 91.8678 128.448 92.4262C128.448 93.1818 128.13 93.7813 127.494 94.2248C126.858 94.6683 125.976 94.8901 124.847 94.8901ZM134.804 93.4446L135.219 94.2823C134.998 94.4794 134.724 94.63 134.398 94.734C134.071 94.838 133.731 94.89 133.377 94.8901C132.558 94.8901 131.928 94.671 131.485 94.233C131.043 93.795 130.821 93.1763 130.821 92.3769L130.821 87.1536L129.261 87.1536L129.261 86.1681L130.821 86.1681L130.821 84.2791L132 84.2791L132 86.1681L134.655 86.168L134.655 87.1536L132 87.1536L132 92.3112C132 92.8259 132.13 93.2174 132.39 93.4857C132.65 93.7539 133.023 93.8881 133.51 93.8881C133.753 93.8881 133.988 93.8498 134.215 93.7731C134.442 93.6965 134.638 93.5869 134.804 93.4446ZM140.413 86.1023C141.553 86.1023 142.427 86.3843 143.035 86.9482C143.644 87.5122 143.948 88.3471 143.948 89.4531L143.948 94.8079L142.82 94.8079L142.82 93.461C142.554 93.9099 142.164 94.2604 141.65 94.5122C141.135 94.7641 140.524 94.89 139.816 94.89C138.842 94.89 138.068 94.6601 137.492 94.2002C136.917 93.7402 136.63 93.1325 136.63 92.3769C136.63 91.6432 136.898 91.0519 137.434 90.6029C137.971 90.154 138.826 89.9295 139.998 89.9295L142.77 89.9295L142.77 89.4038C142.77 88.6592 142.56 88.0925 142.139 87.7038C141.719 87.3151 141.105 87.1207 140.297 87.1207C139.744 87.1207 139.213 87.211 138.704 87.3917C138.195 87.5724 137.758 87.8215 137.393 88.1391L136.862 87.2685C137.304 86.8962 137.836 86.6088 138.455 86.4062C139.075 86.2036 139.727 86.1023 140.413 86.1023ZM139.998 93.9702C140.662 93.9702 141.232 93.8196 141.708 93.5185C142.183 93.2173 142.537 92.7821 142.77 92.2126L142.77 90.8L140.032 90.8C138.538 90.8 137.791 91.3147 137.791 92.3441C137.791 92.8478 137.985 93.2447 138.372 93.5349C138.759 93.8251 139.301 93.9702 139.998 93.9702ZM158.718 86.1679L159.796 86.1679L156.494 94.8078L155.382 94.8078L152.627 87.7284L149.872 94.8078L148.761 94.8079L145.475 86.168L146.603 86.168L149.341 93.5102L152.146 86.168L153.158 86.168L155.946 93.5102L158.718 86.1679ZM161.572 94.8078L161.572 86.1679L162.75 86.1679L162.75 94.8078L161.572 94.8078ZM162.169 84.279C161.926 84.279 161.721 84.1968 161.555 84.0326C161.389 83.8683 161.307 83.6712 161.307 83.4413C161.307 83.2223 161.389 83.0306 161.555 82.8664C161.721 82.7021 161.926 82.62 162.169 82.62C162.413 82.62 162.618 82.6994 162.783 82.8581C162.949 83.0169 163.032 83.2058 163.032 83.4248C163.032 83.6657 162.949 83.8683 162.783 84.0326C162.618 84.1968 162.413 84.279 162.169 84.279ZM173.653 90.4878L173.637 90.8492L166.335 90.8492C166.401 91.7471 166.75 92.4726 167.38 93.0256C168.011 93.5786 168.807 93.8551 169.77 93.8551C170.312 93.8551 170.81 93.7592 171.264 93.5676C171.717 93.376 172.11 93.094 172.442 92.7217L173.106 93.4773C172.718 93.9372 172.234 94.2876 171.653 94.5285C171.073 94.7694 170.434 94.8899 169.737 94.8899C168.841 94.8899 168.047 94.701 167.355 94.3232C166.664 93.9454 166.125 93.4225 165.737 92.7546C165.35 92.0866 165.157 91.331 165.157 90.4878C165.157 89.6447 165.342 88.8891 165.712 88.2211C166.083 87.5531 166.592 87.033 167.239 86.6607C167.886 86.2883 168.614 86.1022 169.421 86.1022C170.229 86.1022 170.954 86.2883 171.595 86.6606C172.237 87.0329 172.741 87.5503 173.106 88.2128C173.471 88.8753 173.653 89.6337 173.653 90.4878ZM169.421 87.1041C168.581 87.1041 167.875 87.3697 167.306 87.9008C166.736 88.4319 166.412 89.1245 166.335 89.9786L172.525 89.9786C172.447 89.1245 172.124 88.4319 171.554 87.9008C170.984 87.3697 170.273 87.1041 169.421 87.1041Z" fill="#0E1E40"/>
</svg>
