<svg xmlns:xlink="http://www.w3.org/1999/xlink" xmlns="http://www.w3.org/2000/svg" width="512" height="512" style="overflow: visible;" viewBox="0 0 512 512"><g transform="matrix(0.3501037184830318, 0, 0, 0.3501037184830318, 1.8712644842338477, 101.49300779012012)" data-uid="o_f3kkihfm0_33"><path d="m158.304688 2.183594-122.445313 95.652344c-7.722656 6.035156-3.457031 18.429687 6.34375 18.429687h244.886719c9.804687 0 14.070312-12.394531 6.347656-18.429687l-122.445312-95.652344c-3.726563-2.910156-8.960938-2.910156-12.6875 0zm0 0" fill="#FFDE55" transform="matrix(0.9980473623278137, 0, 0, 0.9980473623278137, 91.32120889707467, -0.9980473623278137)" data-uid="o_f3kkihfm0_20"></path><path d="m170.992188 2.183594c-3.726563-2.910156-8.960938-2.910156-12.6875 0l-122.445313 95.652344c-7.722656 6.035156-3.457031 18.429687 6.34375 18.429687h11.292969l131.765625-102.933594zm0 0" fill="#FFCD00" transform="matrix(0.9980473623278137, 0, 0, 0.9980473623278137, 91.32120889707467, -0.9980473623278137)" data-uid="o_f3kkihfm0_21"></path><path d="m.5 384.203125v117.492187c0 5.691407 4.613281 10.304688 10.304688 10.304688h61.65625c5.289062 0 9.664062-4.011719 10.25-9.265625 4.605468-41.175781 39.53125-73.183594 81.9375-73.183594 42.402343 0 77.332031 32.007813 81.933593 73.183594.589844 5.253906 4.960938 9.265625 10.25 9.265625h61.65625c5.695313 0 10.308594-4.613281 10.308594-10.304688v-117.492187c0-5.695313-4.613281-10.308594-10.308594-10.308594h-307.683593c-5.691407 0-10.304688 4.613281-10.304688 10.308594zm0 0" fill="#C4C8F5" transform="matrix(0.9980473623278137, 0, 0, 0.9980473623278137, 91.32120889707467, -0.9980473623278137)" data-uid="o_f3kkihfm0_22"></path><path d="m41.726562 501.695312v-117.492187c0-5.695313 4.613282-10.308594 10.304688-10.308594h-41.226562c-5.691407 0-10.304688 4.613281-10.304688 10.308594v117.492187c0 5.691407 4.613281 10.304688 10.304688 10.304688h41.226562c-5.691406 0-10.304688-4.613281-10.304688-10.304688zm0 0" fill="#A7ADF0" transform="matrix(0.9980473623278137, 0, 0, 0.9980473623278137, 91.32120889707467, -0.9980473623278137)" data-uid="o_f3kkihfm0_23"></path><path d="m125.710938 239.914062h-63.988282c-5.097656 0-9.230468-4.132812-9.230468-9.230468v-105.1875c0-5.097656 4.132812-9.230469 9.230468-9.230469h63.988282c5.097656 0 9.230468 4.132813 9.230468 9.230469v105.1875c0 5.097656-4.132812 9.230468-9.230468 9.230468zm0 0" fill="#4DB5A6" transform="matrix(0.9980473623278137, 0, 0, 0.9980473623278137, 91.32120889707467, -0.9980473623278137)" data-uid="o_f3kkihfm0_24"></path><path d="m93.714844 230.683594v-105.1875c0-5.097656 4.132812-9.230469 9.230468-9.230469h-41.222656c-5.097656 0-9.230468 4.132813-9.230468 9.230469v105.1875c0 5.097656 4.132812 9.230468 9.230468 9.230468h41.222656c-5.097656 0-9.230468-4.132812-9.230468-9.230468zm0 0" fill="#3DA094" transform="matrix(0.9980473623278137, 0, 0, 0.9980473623278137, 91.32120889707467, -0.9980473623278137)" data-uid="o_f3kkihfm0_25"></path><path d="m267.574219 239.914062h-63.988281c-5.097657 0-9.230469-4.132812-9.230469-9.230468v-105.1875c0-5.097656 4.132812-9.230469 9.230469-9.230469h63.988281c5.097656 0 9.230469 4.132813 9.230469 9.230469v105.1875c0 5.097656-4.132813 9.230468-9.230469 9.230468zm0 0" fill="#FF7956" transform="matrix(0.9980473623278137, 0, 0, 0.9980473623278137, 91.32120889707467, -0.9980473623278137)" data-uid="o_f3kkihfm0_26"></path><path d="m235.578125 230.683594v-105.1875c0-5.097656 4.132813-9.230469 9.234375-9.230469h-41.226562c-5.097657 0-9.230469 4.132813-9.230469 9.230469v105.1875c0 5.097656 4.132812 9.230468 9.230469 9.230468h41.226562c-5.101562 0-9.234375-4.132812-9.234375-9.230468zm0 0" fill="#FF6243" transform="matrix(0.9980473623278137, 0, 0, 0.9980473623278137, 91.32120889707467, -0.9980473623278137)" data-uid="o_f3kkihfm0_27"></path><path d="m21.113281 363.589844v-113.371094c0-5.691406 4.613281-10.304688 10.304688-10.304688h122.921875c5.691406 0 10.308594 4.613282 10.308594 10.304688v113.371094c0 5.691406-4.617188 10.304687-10.308594 10.304687h-122.921875c-5.691407 0-10.304688-4.613281-10.304688-10.304687zm0 0" fill="#FF5555" transform="matrix(0.9980473623278137, 0, 0, 0.9980473623278137, 91.32120889707467, -0.9980473623278137)" data-uid="o_f3kkihfm0_28"></path><path d="m62.335938 363.589844v-113.371094c0-5.691406 4.613281-10.304688 10.308593-10.304688h-41.226562c-5.691407 0-10.304688 4.613282-10.304688 10.304688v113.371094c0 5.691406 4.613281 10.304687 10.304688 10.304687h41.226562c-5.691406 0-10.308593-4.613281-10.308593-10.304687zm0 0" fill="#E04141" transform="matrix(0.9980473623278137, 0, 0, 0.9980473623278137, 91.32120889707467, -0.9980473623278137)" data-uid="o_f3kkihfm0_29"></path><path d="m164.648438 363.589844v-113.371094c0-5.691406 4.613281-10.304688 10.304687-10.304688h122.925781c5.691406 0 10.304688 4.613282 10.304688 10.304688v113.371094c0 5.691406-4.613282 10.304687-10.304688 10.304687h-122.925781c-5.691406 0-10.304687-4.613281-10.304687-10.304687zm0 0" fill="#92DD79" transform="matrix(0.9980473623278137, 0, 0, 0.9980473623278137, 91.32120889707467, -0.9980473623278137)" data-uid="o_f3kkihfm0_30"></path><path d="m205.871094 363.589844v-113.371094c0-5.691406 4.617187-10.304688 10.308594-10.304688h-41.226563c-5.691406 0-10.304687 4.613282-10.304687 10.304688v113.371094c0 5.691406 4.613281 10.304687 10.304687 10.304687h41.226563c-5.691407 0-10.308594-4.613281-10.308594-10.304687zm0 0" fill="#7EC66A" transform="matrix(0.9980473623278137, 0, 0, 0.9980473623278137, 91.32120889707467, -0.9980473623278137)" data-uid="o_f3kkihfm0_31"></path></g><path text="Zlobek Miejski" fill="#000000" space="preserve" text-anchor="middle" offset="0.5" font-scale="contain" font-size="48" font-family="Cinzel" transform="matrix(0.9481948550743844, 0, 0, 0.9481948550743844, 325.69629056784476, 194.58031304397988)" font-weight="400" font-style="normal" data-uid="o_f3kkihfm0_34" data-fl-textpath="" d="M-149.54-7.39L-151.13 0L-176.28 0L-176.28-0.43L-156.12-32.21L-172.29999999999998-32.21Q-173.5-32.16 -174.31-31.34Q-175.13-30.53 -175.13-29.33L-175.13-29.33L-175.13-28.46L-175.60999999999999-28.46L-175.60999999999999-34.51Q-174.89-34.22 -173.06-33.94Q-171.24-33.65 -170.5-33.65Q-169.75-33.65 -169.75-33.65L-169.75-33.65L-156.41-33.65Q-154.06-33.65 -152.81-33.91Q-151.56-34.18 -151.32-34.27L-151.32-34.27L-151.32-33.84L-171.85999999999999-1.44L-156.6-1.44Q-154.06-1.44 -152.42-3.07Q-150.79-4.7 -150.01999999999998-7.39L-150.01999999999998-7.39L-149.54-7.39ZM-145.27200000000002-0.48L-144.602-0.48Q-143.452-0.48 -142.65200000000002-1.22Q-141.862-1.97 -141.812-3.02L-141.812-3.02L-141.812-25.73Q-141.862-26.78 -142.702-27.55Q-143.542-28.32 -144.692-28.32L-144.692-28.32L-145.27200000000002-28.32L-145.27200000000002-28.8L-135.332-28.8L-135.332-28.32L-135.912-28.32Q-137.062-28.32 -137.90200000000002-27.55Q-138.74200000000002-26.78 -138.74200000000002-25.73L-138.74200000000002-25.73L-138.74200000000002-1.49L-131.252-1.49Q-129.05200000000002-1.49 -127.512-2.26Q-125.97200000000001-3.02 -125.182-4.08Q-124.39200000000001-5.14 -123.62200000000001-6.86L-123.62200000000001-6.86L-123.14200000000001-6.86L-125.78200000000001 0L-145.27200000000002 0L-145.27200000000002-0.48ZM-111.964-27.58Q-108.26400000000001-29.47 -103.82400000000001-29.47Q-99.38400000000001-29.47 -95.68400000000001-27.58Q-91.994-25.68 -89.804-22.22Q-87.62400000000001-18.77 -87.62400000000001-14.4Q-87.62400000000001-10.03 -89.804-6.58Q-91.994-3.12 -95.68400000000001-1.22Q-99.38400000000001 0.67 -103.274 0.67Q-107.164 0.67 -110.13400000000001-0.43Q-113.114-1.54 -115.29400000000001-3.5Q-117.48400000000001-5.47 -118.754-8.3Q-120.024-11.14 -120.024-14.95Q-120.024-18.77 -117.84400000000001-22.22Q-115.65400000000001-25.68 -111.964-27.58ZM-112.84400000000001-4.58Q-109.224-0.77 -103.84400000000001-0.77Q-98.474-0.77 -94.82400000000001-4.58Q-91.174-8.4 -91.174-14.4Q-91.174-20.4 -94.82400000000001-24.22Q-98.474-28.03 -103.84400000000001-28.03Q-109.224-28.03 -112.84400000000001-24.22Q-116.474-20.4 -116.474-14.4Q-116.474-8.4 -112.84400000000001-4.58ZM-64.29200000000002-24.82L-64.29200000000002-24.82Q-63.57200000000002-23.42 -63.57200000000002-21.46Q-63.57200000000002-19.49 -65.16200000000002-17.83Q-66.74200000000002-16.18 -68.85200000000002-15.65L-68.85200000000002-15.65Q-65.35200000000002-15.26 -63.07200000000002-13.1Q-60.792000000000016-10.94 -60.792000000000016-8.38Q-60.792000000000016-5.81 -61.77200000000002-4.18Q-62.762000000000015-2.54 -64.39200000000002-1.68L-64.39200000000002-1.68Q-67.51200000000001 0 -71.45200000000003 0L-71.45200000000003 0L-83.35200000000002 0L-83.35200000000002-0.48L-82.77200000000002-0.48Q-81.57200000000002-0.48 -80.76200000000001-1.22Q-79.94200000000002-1.97 -79.89200000000002-3.07L-79.89200000000002-3.07L-79.89200000000002-25.73Q-79.94200000000002-27.31 -81.33200000000002-27.98L-81.33200000000002-27.98Q-81.96200000000002-28.32 -82.77200000000002-28.32L-82.77200000000002-28.32L-83.35200000000002-28.32L-83.35200000000002-28.8L-73.56200000000001-28.8Q-66.41200000000002-28.8 -64.29200000000002-24.82ZM-64.20200000000003-8.06L-64.20200000000003-8.06Q-64.20200000000003-15.22 -75.38200000000002-15.22L-75.38200000000002-15.22L-75.38200000000002-15.7Q-66.93200000000002-15.7 -66.93200000000002-21.6L-66.93200000000002-21.6Q-66.93200000000002-27.36 -73.61200000000002-27.36L-73.61200000000002-27.36L-76.87200000000001-27.36L-76.87200000000001-1.44L-71.49200000000002-1.44Q-68.23200000000001-1.44 -66.21200000000002-3.1Q-64.20200000000003-4.75 -64.20200000000003-8.06ZM-55.992000000000004-0.48L-55.322-0.48Q-54.172000000000004-0.48 -53.37200000000001-1.22Q-52.58200000000001-1.97 -52.532000000000004-3.02L-52.532000000000004-3.02L-52.532000000000004-25.82Q-52.532000000000004-26.88 -53.352000000000004-27.6Q-54.172000000000004-28.32 -55.322-28.32L-55.322-28.32L-55.992000000000004-28.32L-55.992000000000004-28.8L-41.97200000000001-28.8Q-40.012-28.8 -38.522000000000006-29.09Q-37.032000000000004-29.38 -36.602000000000004-29.57L-36.602000000000004-29.57L-36.602000000000004-24.1L-37.132000000000005-24.14L-37.132000000000005-24.86Q-37.132000000000005-25.87 -37.80200000000001-26.59Q-38.47200000000001-27.31 -39.532000000000004-27.31L-39.532000000000004-27.31L-49.51200000000001-27.31L-49.51200000000001-15.12L-41.30200000000001-15.12Q-40.342000000000006-15.12 -39.842000000000006-15.7Q-39.33200000000001-16.27 -39.33200000000001-17.14L-39.33200000000001-17.14L-39.33200000000001-17.76L-38.812000000000005-17.76L-38.812000000000005-11.04L-39.33200000000001-11.04L-39.33200000000001-11.66Q-39.33200000000001-13.01 -40.342000000000006-13.49L-40.342000000000006-13.49Q-40.732000000000006-13.63 -41.162000000000006-13.68L-41.162000000000006-13.68L-49.51200000000001-13.68L-49.51200000000001-1.49L-41.97200000000001-1.49Q-39.772000000000006-1.49 -38.25200000000001-2.26Q-36.742000000000004-3.02 -35.952000000000005-4.08Q-35.162000000000006-5.14 -34.342000000000006-6.86L-34.342000000000006-6.86L-33.86200000000001-6.86L-36.50200000000001 0L-55.992000000000004 0L-55.992000000000004-0.48ZM-2.714000000000002-0.48L-2.714000000000002 0L-4.484000000000002 0Q-9.194000000000003 0 -11.544000000000004-2.74L-11.544000000000004-2.74L-22.104000000000003-14.3L-11.784000000000002-26.45Q-11.254000000000005-27.12 -11.614000000000004-27.72Q-11.974000000000004-28.32 -12.844000000000005-28.32L-12.844000000000005-28.32L-13.274000000000004-28.32L-13.274000000000004-28.8L-3.4840000000000018-28.8L-3.4840000000000018-28.32L-3.674000000000003-28.32Q-6.604000000000003-28.32 -8.324000000000005-26.59L-8.324000000000005-26.59L-18.794000000000004-15.41L-6.884000000000004-2.45Q-6.0240000000000045-1.39 -5.114000000000004-0.96Q-4.204000000000004-0.53 -2.714000000000002-0.48L-2.714000000000002-0.48ZM-20.954000000000004-0.48L-20.954000000000004-0.48L-20.424000000000003-0.48L-20.424000000000003 0L-30.264000000000003 0L-30.264000000000003-0.48L-29.684000000000005-0.48Q-28.534000000000002-0.48 -27.724000000000004-1.25Q-26.904000000000003-2.02 -26.854000000000003-3.07L-26.854000000000003-3.07L-26.854000000000003-25.73Q-26.904000000000003-26.78 -27.724000000000004-27.55Q-28.534000000000002-28.32 -29.684000000000005-28.32L-29.684000000000005-28.32L-30.264000000000003-28.32L-30.264000000000003-28.8L-20.424000000000003-28.8L-20.424000000000003-28.32L-21.004000000000005-28.32Q-22.534000000000006-28.32 -23.404000000000003-27.07L-23.404000000000003-27.07Q-23.784000000000006-26.5 -23.784000000000006-25.78L-23.784000000000006-25.78L-23.784000000000006-3.02Q-23.784000000000006-1.97 -22.944000000000003-1.22Q-22.104000000000003-0.48 -20.954000000000004-0.48ZM 52.248000000000005-0.48L 52.248000000000005-0.48L 53.018-0.48L 53.018 0L 42.598 0L 42.598-0.43L 43.318-0.43Q 44.138000000000005-0.43  44.708-1.08Q 45.288-1.73  45.188-2.5L 45.188-2.5L 43.02799999999999-26.64L 32.94799999999999-4.22Q 31.607999999999997-1.3  31.317999999999998 0.67L 31.317999999999998 0.67L 30.837999999999997 0.67L 18.548-25.97L 16.488-2.5Q 16.387999999999998-1.73  16.967999999999996-1.08Q 17.548-0.43  18.308-0.43L 18.308-0.43L 19.077999999999996-0.43L 19.077999999999996 0L 9.767999999999999 0L 9.767999999999999-0.48L 10.537999999999998-0.48Q 11.877999999999998-0.48  12.867999999999999-1.3Q 13.847999999999999-2.11  14.037999999999998-3.5L 14.037999999999998-3.5L 17.637999999999998-34.27L 18.118-34.27L 31.508-5.33L 44.617999999999995-34.27L 45.048-34.27L 48.748000000000005-3.5Q 48.988-1.58  50.66799999999999-0.82L 50.66799999999999-0.82Q 51.388000000000005-0.48  52.248000000000005-0.48ZM 56.376000000000005-0.48L 57.04600000000001-0.48Q 58.346000000000004-0.48  59.306000000000004-1.25Q 60.266000000000005-2.02  60.266000000000005-3.07L 60.266000000000005-3.07L 60.266000000000005-25.73Q 60.266000000000005-26.78  59.306000000000004-27.55Q 58.346000000000004-28.32  56.996-28.32L 56.996-28.32L 56.376000000000005-28.32L 56.376000000000005-28.8L 67.226-28.8L 67.226-28.32L 66.596-28.32Q 65.30600000000001-28.32  64.366-27.6Q 63.43600000000001-26.88  63.336000000000006-25.82L 63.336000000000006-25.82L 63.336000000000006-3.02Q 63.386-1.97  64.346-1.22Q 65.30600000000001-0.48  66.596-0.48L 66.596-0.48L 67.226-0.48L 67.27600000000001 0L 56.376000000000005 0L 56.376000000000005-0.48ZM 72.504-0.48L 73.174-0.48Q 74.324-0.48  75.12400000000001-1.22Q 75.914-1.97  75.964-3.02L 75.964-3.02L 75.964-25.82Q 75.964-26.88  75.144-27.6Q 74.324-28.32  73.174-28.32L 73.174-28.32L 72.504-28.32L 72.504-28.8L 86.524-28.8Q 88.48400000000001-28.8  89.974-29.09Q 91.464-29.38  91.894-29.57L 91.894-29.57L 91.894-24.1L 91.364-24.14L 91.364-24.86Q 91.364-25.87  90.694-26.59Q 90.024-27.31  88.964-27.31L 88.964-27.31L 78.98400000000001-27.31L 78.98400000000001-15.12L 87.194-15.12Q 88.154-15.12  88.654-15.7Q 89.164-16.27  89.164-17.14L 89.164-17.14L 89.164-17.76L 89.684-17.76L 89.684-11.04L 89.164-11.04L 89.164-11.66Q 89.164-13.01  88.154-13.49L 88.154-13.49Q 87.76400000000001-13.63  87.334-13.68L 87.334-13.68L 78.98400000000001-13.68L 78.98400000000001-1.49L 86.524-1.49Q 88.724-1.49  90.244-2.26Q 91.754-3.02  92.54400000000001-4.08Q 93.334-5.14  94.154-6.86L 94.154-6.86L 94.634-6.86L 91.994 0L 72.504 0L 72.504-0.48ZM 109.22200000000001-28.32L 108.602-28.32Q 106.822-28.32  105.912-27.02L 105.912-27.02Q 105.53200000000001-26.45  105.482-25.73L 105.482-25.73L 105.482 0Q 105.482 3.5  102.86200000000001 6.02Q 100.25200000000001 8.54  96.69200000000001 8.54L 96.69200000000001 8.54L 96.69200000000001 8.06Q 99.052 7.34  100.732 4.99Q 102.412 2.64  102.412 0L 102.412 0L 102.412-25.92Q 102.312-26.93  101.422-27.62Q 100.532-28.32  99.292-28.32L 99.292-28.32L 98.712-28.32L 98.662-28.8L 109.22200000000001-28.8L 109.22200000000001-28.32ZM 113.684-1.58L 113.684-1.58Q 113.544-2.16  113.544-3.94Q 113.544-5.71  114.164-7.54L 114.164-7.54L 114.744-7.54Q 114.694-7.1  114.694-6.67L 114.694-6.67Q 114.694-4.08  116.404-2.42Q 118.104-0.77  121.124-0.77L 121.124-0.77Q 124.294-0.77  126.074-2.23Q 127.844-3.7  127.844-6.02Q 127.844-8.35  126.124-9.89L 126.124-9.89L 116.524-17.28Q 114.214-19.25  114.214-22.56L 114.214-22.56Q 114.214-24.43  115.244-26.02Q 116.28399999999999-27.6  118.124-28.54Q 119.97399999999999-29.47  122.47399999999999-29.47Q 124.964-29.47  126.884-29.04L 126.884-29.04L 128.474-29.04L 128.564-23.81L 128.04399999999998-23.81Q 128.04399999999998-25.82  126.64399999999999-26.93Q 125.25399999999999-28.03  122.664-28.03Q 120.074-28.03  118.39399999999999-26.71Q 116.714-25.39  116.714-23.3Q 116.714-21.22  118.584-19.68L 118.584-19.68L 128.284-12.19Q 130.48399999999998-10.37  130.48399999999998-7.1Q 130.48399999999998-3.84  128.014-1.58Q 125.544 0.67  121.994 0.67L 121.994 0.67Q 119.64399999999999 0.67  117.28399999999999 0.1Q 114.934-0.48  113.684-1.58ZM 163.26999999999998-0.48L 163.26999999999998 0L 161.5 0Q 156.79 0  154.44-2.74L 154.44-2.74L 143.88-14.3L 154.2-26.45Q 154.73-27.12  154.36999999999998-27.72Q 154.01-28.32  153.14-28.32L 153.14-28.32L 152.70999999999998-28.32L 152.70999999999998-28.8L 162.5-28.8L 162.5-28.32L 162.30999999999997-28.32Q 159.38-28.32  157.65999999999997-26.59L 157.65999999999997-26.59L 147.19-15.41L 159.1-2.45Q 159.95999999999998-1.39  160.86999999999998-0.96Q 161.77999999999997-0.53  163.26999999999998-0.48L 163.26999999999998-0.48ZM 145.02999999999997-0.48L 145.02999999999997-0.48L 145.55999999999997-0.48L 145.55999999999997 0L 135.71999999999997 0L 135.71999999999997-0.48L 136.29999999999998-0.48Q 137.45-0.48  138.26-1.25Q 139.07999999999998-2.02  139.13-3.07L 139.13-3.07L 139.13-25.73Q 139.07999999999998-26.78  138.26-27.55Q 137.45-28.32  136.29999999999998-28.32L 136.29999999999998-28.32L 135.71999999999997-28.32L 135.71999999999997-28.8L 145.55999999999997-28.8L 145.55999999999997-28.32L 144.98-28.32Q 143.45-28.32  142.57999999999998-27.07L 142.57999999999998-27.07Q 142.2-26.5  142.2-25.78L 142.2-25.78L 142.2-3.02Q 142.2-1.97  143.04-1.22Q 143.88-0.48  145.02999999999997-0.48ZM 165.67199999999997-0.48L 166.34199999999998-0.48Q 167.642-0.48  168.60199999999998-1.25Q 169.56199999999998-2.02  169.56199999999998-3.07L 169.56199999999998-3.07L 169.56199999999998-25.73Q 169.56199999999998-26.78  168.60199999999998-27.55Q 167.642-28.32  166.29199999999997-28.32L 166.29199999999997-28.32L 165.67199999999997-28.32L 165.67199999999997-28.8L 176.522-28.8L 176.522-28.32L 175.892-28.32Q 174.60199999999998-28.32  173.66199999999998-27.6Q 172.73199999999997-26.88  172.63199999999998-25.82L 172.63199999999998-25.82L 172.63199999999998-3.02Q 172.682-1.97  173.642-1.22Q 174.60199999999998-0.48  175.892-0.48L 175.892-0.48L 176.522-0.48L 176.57199999999997 0L 165.67199999999997 0L 165.67199999999997-0.48Z"></path><path text="w Krasnymstawie" fill="#000000" space="preserve" text-anchor="middle" offset="0.5" font-scale="contain" font-size="48" font-family="Cinzel" transform="matrix(0.6321885007015304, 0, 0, 0.6321885007015304, 297.6780216998445, 232.22621529410873)" data-uid="o_f3kkihfm0_35" data-fl-textpath="" d="M-176.30599999999998-28.8L-176.30599999999998-28.32L-176.636-28.32Q-179.516-28.32 -180.576-25.49L-180.576-25.49L-187.536-4.75Q-188.596-1.73 -188.636 0.58L-188.636 0.58L-189.11599999999999 0.58L-198.046-22.27L-204.286-4.75Q-205.246-1.78 -205.346 0.58L-205.346 0.58L-205.776 0.58L-215.856-25.68Q-216.956-28.32 -219.696-28.32L-219.696-28.32L-220.076-28.32L-220.076-28.8L-210.196-28.8L-210.196-28.32L-210.576-28.32Q-211.436-28.32 -211.896-27.79Q-212.356-27.26 -212.356-26.74Q-212.356-26.21 -212.206-25.73L-212.206-25.73L-205.826-6.19L-197.716-29.57L-197.236-29.52L-188.636-7.63L-183.266-25.44Q-183.026-26.11 -183.026-26.64Q-183.026-27.17 -183.406-27.74Q-183.796-28.32 -184.706-28.32L-184.706-28.32L-185.086-28.32L-185.086-28.8L-176.30599999999998-28.8ZM-151.77399999999997-0.48L-151.77399999999997-0.48L-151.154-0.48L-151.154 0L-161.664 0L-161.664-0.48L-161.04399999999998-0.48Q-159.79399999999998-0.48 -158.904-1.37Q-158.01399999999998-2.26 -157.96399999999997-3.5L-157.96399999999997-3.5L-157.96399999999997-30.14Q-158.01399999999998-31.39 -158.904-32.26Q-159.79399999999998-33.12 -161.04399999999998-33.12L-161.04399999999998-33.12L-161.664-33.12L-161.664-33.6L-151.154-33.6L-151.154-33.12L-151.77399999999997-33.12Q-153.02399999999997-33.12 -153.914-32.26Q-154.80399999999997-31.39 -154.844-30.14L-154.844-30.14L-154.844-3.5Q-154.844-2.26 -153.93399999999997-1.37Q-153.02399999999997-0.48 -151.77399999999997-0.48ZM-132.48399999999998-0.48L-132.48399999999998 0L-134.54399999999998 0Q-139.444 0 -141.74399999999997-2.74L-141.74399999999997-2.74L-153.314-16.7L-141.98399999999998-30.91Q-141.60399999999998-31.39 -141.60399999999998-31.78Q-141.60399999999998-32.16 -141.74399999999997-32.45L-141.74399999999997-32.45Q-142.12399999999997-33.17 -143.134-33.17L-143.134-33.17L-143.61399999999998-33.17L-143.61399999999998-33.6L-133.48399999999998-33.6L-133.48399999999998-33.17L-133.68399999999997-33.17Q-136.844-33.17 -138.86399999999998-30.91L-138.86399999999998-30.91L-150.14399999999998-17.86L-137.04399999999998-2.45Q-135.12399999999997-0.53 -132.48399999999998-0.48L-132.48399999999998-0.48ZM-121.38799999999998-27.31L-121.38799999999998-27.31L-123.93799999999999-27.31L-123.93799999999999-3.07Q-123.88799999999998-1.58 -122.58799999999998-0.82L-122.58799999999998-0.82Q-121.96799999999999-0.48 -121.19799999999998-0.48L-121.19799999999998-0.48L-120.57799999999997-0.48L-120.52799999999998 0L-130.368 0L-130.368-0.48L-129.69799999999998-0.48Q-128.588-0.48 -127.79799999999999-1.22Q-127.00799999999998-1.97 -127.00799999999998-3.02L-127.00799999999998-3.02L-127.00799999999998-25.82Q-127.00799999999998-26.88 -127.79799999999999-27.6Q-128.588-28.32 -129.69799999999998-28.32L-129.69799999999998-28.32L-130.368-28.32L-130.368-28.8L-118.31799999999998-28.8Q-113.80799999999998-28.8 -111.18799999999999-26.74Q-108.57799999999997-24.67 -108.57799999999997-21.31Q-108.57799999999997-17.95 -110.68799999999999-15.7Q-112.79799999999997-13.44 -116.06799999999998-13.1L-116.06799999999998-13.1Q-114.52799999999998-12.43 -112.36799999999998-9.36L-112.36799999999998-9.36Q-112.41799999999998-9.36 -110.70799999999998-7.25Q-109.00799999999998-5.14 -107.97799999999998-3.96Q-106.94799999999998-2.78 -106.26799999999999-2.16L-106.26799999999999-2.16Q-104.49799999999998-0.48 -102.18799999999999-0.48L-102.18799999999999-0.48L-102.18799999999999 0L-103.67799999999998 0Q-107.46799999999999 0 -109.62799999999999-1.49L-109.62799999999999-1.49Q-111.26799999999999-2.59 -112.60799999999998-4.22L-112.60799999999998-4.22Q-112.89799999999998-4.61 -115.02799999999998-7.61Q-117.16799999999998-10.61 -117.30799999999998-10.8L-117.30799999999998-10.8Q-119.90799999999999-14.02 -122.15799999999999-14.02L-122.15799999999999-14.02L-122.15799999999999-14.5Q-116.54799999999997-14.5 -115.38799999999998-15.07L-115.38799999999998-15.07Q-113.80799999999998-15.89 -113.22799999999998-16.8L-113.22799999999998-16.8Q-112.02799999999998-18.72 -112.02799999999998-21.02L-112.02799999999998-21.02Q-112.02799999999998-23.95 -113.75799999999998-25.54Q-115.48799999999999-27.12 -118.41799999999998-27.26L-118.41799999999998-27.26Q-119.70799999999998-27.31 -121.38799999999998-27.31ZM-71.23199999999997-0.48L-71.23199999999997-0.48L-70.85199999999998-0.48L-70.85199999999998 0L-80.69199999999998 0L-80.69199999999998-0.48L-80.30199999999998-0.48Q-79.39199999999998-0.48 -78.91199999999998-1.1Q-78.43199999999997-1.73 -78.43199999999997-2.28Q-78.43199999999997-2.83 -78.62199999999999-3.36L-78.62199999999999-3.36L-81.26199999999997-9.74L-93.41199999999998-9.74L-96.05199999999998-3.5Q-96.29199999999997-2.88 -96.29199999999997-2.33Q-96.29199999999997-1.78 -95.81199999999998-1.13Q-95.33199999999998-0.48 -94.37199999999999-0.48L-94.37199999999999-0.48L-93.98199999999997-0.48L-93.98199999999997 0L-103.15199999999997 0L-103.15199999999997-0.48L-102.77199999999998-0.48Q-101.76199999999997-0.48 -100.73199999999997-1.18Q-99.69199999999998-1.87 -99.02199999999998-3.26L-99.02199999999998-3.26Q-88.51199999999997-25.73 -88.08199999999998-26.78L-88.08199999999998-26.78Q-87.26199999999997-28.8 -87.21199999999997-29.47L-87.21199999999997-29.47L-86.78199999999998-29.47L-74.93199999999997-3.26Q-73.53199999999998-0.48 -71.23199999999997-0.48ZM-87.21199999999997-24.34L-92.78199999999998-11.18L-81.84199999999998-11.18L-87.21199999999997-24.34ZM-68.30799999999998-1.58L-68.30799999999998-1.58Q-68.44799999999998-2.16 -68.44799999999998-3.94Q-68.44799999999998-5.71 -67.82799999999997-7.54L-67.82799999999997-7.54L-67.24799999999998-7.54Q-67.29799999999997-7.1 -67.29799999999997-6.67L-67.29799999999997-6.67Q-67.29799999999997-4.08 -65.58799999999998-2.42Q-63.88799999999998-0.77 -60.86799999999998-0.77L-60.86799999999998-0.77Q-57.69799999999998-0.77 -55.91799999999998-2.23Q-54.14799999999998-3.7 -54.14799999999998-6.02Q-54.14799999999998-8.35 -55.86799999999998-9.89L-55.86799999999998-9.89L-65.46799999999998-17.28Q-67.77799999999998-19.25 -67.77799999999998-22.56L-67.77799999999998-22.56Q-67.77799999999998-24.43 -66.74799999999998-26.02Q-65.70799999999998-27.6 -63.86799999999998-28.54Q-62.01799999999998-29.47 -59.51799999999998-29.47Q-57.02799999999998-29.47 -55.107999999999976-29.04L-55.107999999999976-29.04L-53.51799999999998-29.04L-53.42799999999998-23.81L-53.94799999999998-23.81Q-53.94799999999998-25.82 -55.34799999999998-26.93Q-56.73799999999998-28.03 -59.32799999999998-28.03Q-61.91799999999998-28.03 -63.59799999999998-26.71Q-65.27799999999998-25.39 -65.27799999999998-23.3Q-65.27799999999998-21.22 -63.40799999999998-19.68L-63.40799999999998-19.68L-53.707999999999984-12.19Q-51.50799999999998-10.37 -51.50799999999998-7.1Q-51.50799999999998-3.84 -53.97799999999998-1.58Q-56.44799999999998 0.67 -59.997999999999976 0.67L-59.997999999999976 0.67Q-62.34799999999998 0.67 -64.70799999999998 0.1Q-67.05799999999998-0.48 -68.30799999999998-1.58ZM-13.201999999999977-28.32L-14.01199999999998-28.32Q-15.071999999999974-28.32 -15.841999999999977-27.62Q-16.61199999999998-26.93 -16.65199999999998-25.92L-16.65199999999998-25.92L-16.65199999999998-5.47Q-16.65199999999998-2.69 -16.321999999999974-0.19L-16.321999999999974-0.19L-16.22199999999998 0.67L-16.65199999999998 0.67L-41.61199999999998-22.99L-41.61199999999998-2.98Q-41.61199999999998-1.92 -40.851999999999975-1.2Q-40.08199999999998-0.48 -38.97199999999998-0.48L-38.97199999999998-0.48L-38.16199999999998-0.48L-38.16199999999998 0L-47.23199999999998 0L-47.23199999999998-0.48L-46.41199999999998-0.48Q-45.311999999999976-0.48 -44.54199999999998-1.2Q-43.77199999999998-1.92 -43.77199999999998-2.98L-43.77199999999998-2.98L-43.77199999999998-23.52Q-43.77199999999998-26.45 -44.11199999999998-28.75L-44.11199999999998-28.75L-44.211999999999975-29.52L-43.681999999999974-29.47L-18.771999999999977-6L-18.771999999999977-25.92Q-18.861999999999977-26.93 -19.631999999999977-27.62Q-20.401999999999976-28.32 -21.451999999999977-28.32L-21.451999999999977-28.32L-22.271999999999977-28.32L-22.271999999999977-28.8L-13.201999999999977-28.8L-13.201999999999977-28.32ZM 19.440000000000026-28.8L 19.440000000000026-28.32L 18.860000000000024-28.32Q 17.570000000000025-28.32  16.390000000000025-27.62Q 15.220000000000024-26.93  14.450000000000024-25.87L 14.450000000000024-25.87L 5.230000000000025-11.9L 5.230000000000025-3.07Q 5.230000000000025-2.02  6.050000000000026-1.25Q 6.860000000000024-0.48  8.020000000000024-0.48L 8.020000000000024-0.48L 8.590000000000025-0.48L 8.590000000000025 0L-1.2499999999999751 0L-1.2499999999999751-0.48L-0.6699999999999751-0.48Q 0.4800000000000253-0.48  1.3000000000000256-1.25Q 2.110000000000026-2.02  2.110000000000026-3.07L 2.110000000000026-3.07L 2.110000000000026-11.95L-6.769999999999975-25.92Q-8.399999999999974-28.32 -11.179999999999975-28.32L-11.179999999999975-28.32L-11.759999999999975-28.32L-11.759999999999975-28.8L-0.6199999999999743-28.8L-0.6199999999999743-28.32L-1.1999999999999744-28.32Q-2.1099999999999746-28.32 -2.5199999999999747-27.74Q-2.929999999999975-27.17 -2.929999999999975-26.76Q-2.929999999999975-26.35 -2.829999999999975-26.02L-2.829999999999975-26.02L 4.180000000000025-13.58L 11.620000000000026-25.97Q 11.760000000000026-26.35  11.760000000000026-26.76Q 11.760000000000026-27.17  11.350000000000026-27.74Q 10.940000000000026-28.32  9.980000000000025-28.32L 9.980000000000025-28.32L 9.410000000000025-28.32L 9.410000000000025-28.8L 19.440000000000026-28.8ZM 59.09000000000003-0.48L 59.09000000000003-0.48L 59.81000000000003-0.48L 59.81000000000003 0L 49.82000000000002 0L 49.82000000000002-0.43L 50.54000000000002-0.43Q 51.26000000000002-0.43  51.82000000000002-0.98Q 52.37000000000002-1.54  52.270000000000024-2.3L 52.270000000000024-2.3L 49.78000000000003-22.08L 40.700000000000024-4.22Q 39.36000000000003-1.3  39.020000000000024 0.67L 39.020000000000024 0.67L 38.54000000000002 0.67L 26.980000000000025-21.65L 24.820000000000025-2.3Q 24.720000000000024-1.58  25.270000000000024-1.01Q 25.820000000000025-0.43  26.590000000000025-0.43L 26.590000000000025-0.43L 27.260000000000026-0.43L 27.260000000000026 0L 18.380000000000024 0L 18.380000000000024-0.48L 19.100000000000026-0.48Q 20.830000000000027-0.48  21.790000000000024-1.73L 21.790000000000024-1.73Q 22.270000000000024-2.35  22.370000000000026-3.22L 22.370000000000026-3.22L 26.110000000000024-29.47L 26.590000000000025-29.47L 39.260000000000026-5.09L 51.50000000000003-29.47L 51.940000000000026-29.47L 55.82000000000002-3.12Q 56.020000000000024-1.92  56.93000000000002-1.2Q 57.84000000000003-0.48  59.09000000000003-0.48ZM 62.92400000000003-1.58L 62.92400000000003-1.58Q 62.78400000000003-2.16  62.78400000000003-3.94Q 62.78400000000003-5.71  63.404000000000025-7.54L 63.404000000000025-7.54L 63.98400000000002-7.54Q 63.934000000000026-7.1  63.934000000000026-6.67L 63.934000000000026-6.67Q 63.934000000000026-4.08  65.64400000000003-2.42Q 67.34400000000002-0.77  70.36400000000003-0.77L 70.36400000000003-0.77Q 73.53400000000002-0.77  75.31400000000002-2.23Q 77.08400000000003-3.7  77.08400000000003-6.02Q 77.08400000000003-8.35  75.36400000000003-9.89L 75.36400000000003-9.89L 65.76400000000002-17.28Q 63.45400000000003-19.25  63.45400000000003-22.56L 63.45400000000003-22.56Q 63.45400000000003-24.43  64.48400000000002-26.02Q 65.52400000000003-27.6  67.36400000000003-28.54Q 69.21400000000003-29.47  71.71400000000003-29.47Q 74.20400000000002-29.47  76.12400000000002-29.04L 76.12400000000002-29.04L 77.71400000000003-29.04L 77.80400000000003-23.81L 77.28400000000002-23.81Q 77.28400000000002-25.82  75.88400000000003-26.93Q 74.49400000000003-28.03  71.90400000000002-28.03Q 69.31400000000002-28.03  67.63400000000003-26.71Q 65.95400000000002-25.39  65.95400000000002-23.3Q 65.95400000000002-21.22  67.82400000000003-19.68L 67.82400000000003-19.68L 77.52400000000003-12.19Q 79.72400000000002-10.37  79.72400000000002-7.1Q 79.72400000000002-3.84  77.25400000000002-1.58Q 74.78400000000002 0.67  71.23400000000002 0.67L 71.23400000000002 0.67Q 68.88400000000003 0.67  66.52400000000003 0.1Q 64.17400000000002-0.48  62.92400000000003-1.58ZM 106.46000000000002-27.41L 97.78000000000003-27.41L 97.78000000000003-3.02Q 97.82000000000002-1.54  99.22000000000003-0.82L 99.22000000000003-0.82Q 99.84000000000002-0.48  100.61000000000001-0.48L 100.61000000000001-0.48L 101.14000000000001-0.48L 101.14000000000001 0L 91.25000000000003 0L 91.25000000000003-0.48L 91.82000000000002-0.48Q 92.98000000000002-0.48  93.79000000000002-1.25Q 94.61000000000001-2.02  94.66000000000003-3.07L 94.66000000000003-3.07L 94.66000000000003-27.41L 85.97000000000003-27.41Q 84.86000000000003-27.41  84.22000000000003-26.69Q 83.57000000000002-25.97  83.57000000000002-24.96L 83.57000000000002-24.96L 83.57000000000002-24.19L 83.04000000000002-24.19L 83.04000000000002-29.62Q 84.00000000000003-29.23  85.75000000000003-29.04Q 87.50000000000003-28.85  88.37000000000002-28.85L 88.37000000000002-28.85L 104.02000000000002-28.85Q 107.47000000000003-28.85  109.39000000000001-29.62L 109.39000000000001-29.62L 109.39000000000001-24.19L 108.86000000000001-24.19L 108.86000000000001-24.96Q 108.86000000000001-25.97  108.19000000000003-26.69Q 107.52000000000002-27.41  106.46000000000002-27.41L 106.46000000000002-27.41ZM 138.38400000000001-0.48L 138.38400000000001-0.48L 138.764-0.48L 138.764 0L 128.92400000000004 0L 128.92400000000004-0.48L 129.31400000000002-0.48Q 130.22400000000002-0.48  130.704-1.1Q 131.18400000000003-1.73  131.18400000000003-2.28Q 131.18400000000003-2.83  130.99400000000003-3.36L 130.99400000000003-3.36L 128.354-9.74L 116.20400000000002-9.74L 113.56400000000002-3.5Q 113.32400000000003-2.88  113.32400000000003-2.33Q 113.32400000000003-1.78  113.80400000000002-1.13Q 114.28400000000002-0.48  115.24400000000003-0.48L 115.24400000000003-0.48L 115.63400000000001-0.48L 115.63400000000001 0L 106.46400000000003 0L 106.46400000000003-0.48L 106.84400000000002-0.48Q 107.85400000000003-0.48  108.88400000000003-1.18Q 109.92400000000002-1.87  110.59400000000002-3.26L 110.59400000000002-3.26Q 121.10400000000003-25.73  121.53400000000002-26.78L 121.53400000000002-26.78Q 122.35400000000003-28.8  122.40400000000002-29.47L 122.40400000000002-29.47L 122.83400000000002-29.47L 134.68400000000003-3.26Q 136.08400000000003-0.48  138.38400000000001-0.48ZM 122.40400000000002-24.34L 116.83400000000002-11.18L 127.77400000000003-11.18L 122.40400000000002-24.34ZM 177.598-28.8L 177.598-28.32L 177.26800000000003-28.32Q 174.38800000000003-28.32  173.32800000000003-25.49L 173.32800000000003-25.49L 166.36800000000002-4.75Q 165.30800000000002-1.73  165.26800000000003 0.58L 165.26800000000003 0.58L 164.788 0.58L 155.85800000000003-22.27L 149.61800000000002-4.75Q 148.65800000000002-1.78  148.55800000000002 0.58L 148.55800000000002 0.58L 148.12800000000001 0.58L 138.04800000000003-25.68Q 136.94800000000004-28.32  134.20800000000003-28.32L 134.20800000000003-28.32L 133.82800000000003-28.32L 133.82800000000003-28.8L 143.70800000000003-28.8L 143.70800000000003-28.32L 143.32800000000003-28.32Q 142.46800000000002-28.32  142.00800000000004-27.79Q 141.54800000000003-27.26  141.54800000000003-26.74Q 141.54800000000003-26.21  141.69800000000004-25.73L 141.69800000000004-25.73L 148.07800000000003-6.19L 156.18800000000002-29.57L 156.66800000000003-29.52L 165.26800000000003-7.63L 170.63800000000003-25.44Q 170.87800000000004-26.11  170.87800000000004-26.64Q 170.87800000000004-27.17  170.49800000000002-27.74Q 170.10800000000003-28.32  169.19800000000004-28.32L 169.19800000000004-28.32L 168.81800000000004-28.32L 168.81800000000004-28.8L 177.598-28.8ZM 180-0.48L 180.67000000000002-0.48Q 181.97000000000003-0.48  182.93-1.25Q 183.89000000000001-2.02  183.89000000000001-3.07L 183.89000000000001-3.07L 183.89000000000001-25.73Q 183.89000000000001-26.78  182.93-27.55Q 181.97000000000003-28.32  180.62-28.32L 180.62-28.32L 180-28.32L 180-28.8L 190.85000000000002-28.8L 190.85000000000002-28.32L 190.22000000000003-28.32Q 188.93-28.32  187.99-27.6Q 187.06-26.88  186.96-25.82L 186.96-25.82L 186.96-3.02Q 187.01000000000002-1.97  187.97000000000003-1.22Q 188.93-0.48  190.22000000000003-0.48L 190.22000000000003-0.48L 190.85000000000002-0.48L 190.9 0L 180 0L 180-0.48ZM 196.128-0.48L 196.798-0.48Q 197.948-0.48  198.748-1.22Q 199.538-1.97  199.588-3.02L 199.588-3.02L 199.588-25.82Q 199.588-26.88  198.768-27.6Q 197.948-28.32  196.798-28.32L 196.798-28.32L 196.128-28.32L 196.128-28.8L 210.148-28.8Q 212.108-28.8  213.598-29.09Q 215.088-29.38  215.518-29.57L 215.518-29.57L 215.518-24.1L 214.988-24.14L 214.988-24.86Q 214.988-25.87  214.31799999999998-26.59Q 213.648-27.31  212.588-27.31L 212.588-27.31L 202.608-27.31L 202.608-15.12L 210.81799999999998-15.12Q 211.778-15.12  212.278-15.7Q 212.788-16.27  212.788-17.14L 212.788-17.14L 212.788-17.76L 213.308-17.76L 213.308-11.04L 212.788-11.04L 212.788-11.66Q 212.788-13.01  211.778-13.49L 211.778-13.49Q 211.388-13.63  210.958-13.68L 210.958-13.68L 202.608-13.68L 202.608-1.49L 210.148-1.49Q 212.348-1.49  213.868-2.26Q 215.378-3.02  216.168-4.08Q 216.958-5.14  217.778-6.86L 217.778-6.86L 218.258-6.86L 215.618 0L 196.128 0L 196.128-0.48Z" font-weight="400" font-style="normal"></path></svg>