<svg xmlns:xlink="http://www.w3.org/1999/xlink" xmlns="http://www.w3.org/2000/svg" id="visual" viewBox="0 0 900 600" width="900" height="600"><g transform="translate(17.590155307035573 -3.6563950007161594)" style="transition: all 0.3s ease 0s;"><path d="M99.6 -149.7C129.4 -135.9 153.8 -108.7 160.8 -78C167.7 -47.3 157.1 -13.1 148.8 19C140.5 51.2 134.5 81.2 116.7 100.2C98.9 119.2 69.2 127.1 38.5 140.3C7.7 153.6 -24.2 172.3 -58.2 173.6C-92.3 174.9 -128.5 158.8 -152 131.7C-175.5 104.6 -186.2 66.5 -192.9 27.1C-199.5 -12.3 -202.1 -52.9 -187.7 -86.2C-173.2 -119.5 -141.7 -145.6 -107.6 -157.3C-73.5 -169.1 -36.8 -166.5 -0.9 -165.1C35 -163.7 69.9 -163.5 99.6 -149.7" fill="#FFFFFF" style="transition: all 0.3s ease 0s;"></path></g></svg>