<svg xmlns:xlink="http://www.w3.org/1999/xlink" xmlns="http://www.w3.org/2000/svg" id="visual" viewBox="0 0 960 540" width="960" height="540"><g transform="translate(15.31085050672317 20.12417014598705)" style="transition: all 0.3s ease 0s;"><path d="M126.5 -197.1C159.2 -175.7 177.8 -132.7 189.6 -91.2C201.3 -49.7 206 -9.7 204.9 32.6C203.8 75 196.7 119.7 170.4 144.5C144 169.4 98.4 174.4 58.8 174C19.3 173.6 -14.1 167.8 -44.7 156.7C-75.3 145.7 -103 129.5 -134.5 108.2C-166 86.9 -201.3 60.4 -220.4 22.9C-239.6 -14.7 -242.6 -63.4 -218.4 -92.8C-194.2 -122.2 -142.8 -132.2 -101.8 -149.8C-60.9 -167.4 -30.5 -192.7 8.2 -205.5C46.9 -218.2 93.7 -218.5 126.5 -197.1" fill="#FFFFFF" style="transition: all 0.3s ease 0s;"></path></g></svg>