<svg width="167" height="165" viewBox="0 0 167 165" fill="none" xmlns="http://www.w3.org/2000/svg">
<g clip-path="url(#clip0_44_152)">
<path d="M83.5415 0H82.5415C36.978 0 0.0415039 36.9365 0.0415039 82.5C0.0415039 128.063 36.978 165 82.5415 165H83.5415C129.105 165 166.042 128.063 166.042 82.5C166.042 36.9365 129.105 0 83.5415 0Z" fill="#AA8EEE"/>
<path d="M125.23 61.6094V58.4844C125.231 57.8371 125.101 57.1963 124.849 56.6003C124.596 56.0043 124.226 55.4653 123.761 55.0156C123.29 54.57 122.736 54.223 122.129 53.9949C121.522 53.7668 120.877 53.6623 120.23 53.6875C114.465 53.8435 108.72 54.4285 103.042 55.4375L100.98 55.8437C100.537 51.459 98.5056 47.3874 95.2695 44.3957C92.0335 41.404 87.8153 39.6986 83.4094 39.6007C79.0034 39.5027 74.7136 41.019 71.3479 43.8639C67.9821 46.7088 65.7725 50.6861 65.1353 55.0469C65.1353 55.3281 65.1353 55.5937 65.1353 55.8594C58.7806 54.5949 52.3307 53.8683 45.854 53.6875C45.2054 53.6687 44.5597 53.78 43.9548 54.0148C43.35 54.2496 42.7982 54.6032 42.3322 55.0546C41.8662 55.5061 41.4953 56.0463 41.2414 56.6434C40.9875 57.2405 40.8558 57.8824 40.854 58.5312V61.6562C39.0894 62.0165 37.5034 62.9753 36.3645 64.3705C35.2255 65.7656 34.6036 67.5115 34.604 69.3125V113.062C34.604 115.135 35.4271 117.122 36.8922 118.587C37.6177 119.312 38.4789 119.888 39.4268 120.28C40.3746 120.673 41.3905 120.875 42.4165 120.875H123.667C125.739 120.875 127.726 120.052 129.191 118.587C130.656 117.122 131.48 115.135 131.48 113.062V69.3125C131.491 67.5034 130.874 65.7466 129.734 64.3417C128.594 62.9369 127.002 61.9712 125.23 61.6094ZM68.2603 55.4844C68.7571 52.2368 70.3054 49.2418 72.6676 46.9586C75.0299 44.6754 78.0758 43.2299 81.3384 42.8438C81.904 42.7815 82.4725 42.7502 83.0415 42.75C86.7128 42.7412 90.2557 44.1004 92.979 46.5625C94.6183 48.0275 95.914 49.8362 96.7736 51.8597C97.6333 53.8832 98.0357 56.0714 97.9521 58.2683C97.8685 60.4652 97.301 62.6166 96.2901 64.5689C95.2792 66.5212 93.8498 68.2263 92.104 69.5625C90.78 70.5441 89.7025 71.8203 88.9568 73.2901C88.211 74.7599 87.8174 76.3831 87.8071 78.0313C87.803 78.6184 87.568 79.1804 87.1527 79.5956C86.7375 80.0108 86.1756 80.2459 85.5884 80.25H84.604V69.3125C84.6047 68.9474 84.4776 68.5936 84.2446 68.3125L78.5571 61.5H87.0728L84.2759 64.2969C84.0199 64.5958 83.8861 64.9803 83.9013 65.3735C83.9165 65.7668 84.0795 66.1398 84.3578 66.4181C84.6361 66.6963 85.0091 66.8594 85.4024 66.8745C85.7956 66.8897 86.1801 66.756 86.479 66.5L91.9477 61.0313C92.1619 60.8129 92.3072 60.5364 92.3657 60.2362C92.4242 59.936 92.3933 59.6252 92.2769 59.3424C92.1604 59.0596 91.9635 58.8172 91.7106 58.6452C91.4577 58.4733 91.1598 58.3793 90.854 58.375H75.229C74.9318 58.3745 74.6407 58.4588 74.3897 58.6179C74.1388 58.777 73.9384 59.0044 73.8121 59.2734C73.6858 59.5424 73.6388 59.8419 73.6767 60.1366C73.7146 60.4313 73.8357 60.7092 74.0259 60.9375L81.479 69.875V80.25H80.4946C80.1999 80.25 79.9081 80.1917 79.6359 80.0784C79.3638 79.9652 79.1168 79.7992 78.9091 79.5901C78.7014 79.3809 78.5372 79.1328 78.4258 78.8599C78.3145 78.587 78.2582 78.2947 78.2603 78C78.2421 76.3538 77.8434 74.7342 77.0953 73.2677C76.3471 71.8013 75.2699 70.5278 73.9477 69.5469C71.8241 67.9298 70.1752 65.7706 69.1744 63.296C68.1736 60.8215 67.8578 58.1231 68.2603 55.4844ZM43.979 58.5312C43.9809 58.2995 44.0293 58.0704 44.1213 57.8576C44.2133 57.6448 44.347 57.4526 44.5145 57.2924C44.682 57.1322 44.8799 57.0072 45.0966 56.9247C45.3132 56.8423 45.5442 56.8041 45.7759 56.8125C52.2551 56.9925 58.7064 57.7349 65.0571 59.0312C65.2365 61.5732 65.9582 64.0473 67.1737 66.287C68.3892 68.5267 70.0704 70.48 72.104 72.0156C73.0541 72.7053 73.8309 73.6063 74.3732 74.6476C74.9155 75.6888 75.2085 76.8418 75.229 78.0156C75.2288 79.4209 75.7805 80.7701 76.7654 81.7725C77.7503 82.7749 79.0895 83.3504 80.4946 83.375H85.5884C86.2956 83.373 86.9954 83.2314 87.6477 82.9584C88.3001 82.6854 88.8922 82.2864 89.39 81.7841C89.8879 81.2819 90.2818 80.6864 90.5491 80.0317C90.8164 79.3769 90.9519 78.6759 90.9478 77.9688C90.9731 76.8046 91.2686 75.6623 91.8109 74.6319C92.3532 73.6015 93.1275 72.7112 94.0728 72.0312C96.0967 70.4866 97.7679 68.528 98.975 66.2863C100.183 64.0446 100.897 61.5712 101.073 59.0312L103.667 58.5156C109.164 57.5379 114.726 56.9687 120.308 56.8125C120.542 56.8004 120.776 56.8388 120.995 56.9251C121.213 57.0114 121.41 57.1435 121.573 57.3125C121.738 57.4728 121.869 57.6648 121.957 57.8769C122.046 58.0891 122.09 58.317 122.089 58.5469V108.219C122.089 108.661 121.919 109.087 121.613 109.407C121.308 109.727 120.89 109.917 120.448 109.938C108.184 110.101 96.0471 112.445 84.604 116.859V89.625H86.1665C86.5809 89.625 86.9783 89.4604 87.2714 89.1674C87.5644 88.8743 87.729 88.4769 87.729 88.0625C87.729 87.6481 87.5644 87.2507 87.2714 86.9576C86.9783 86.6646 86.5809 86.5 86.1665 86.5H79.9165C79.5021 86.5 79.1047 86.6646 78.8116 86.9576C78.5186 87.2507 78.354 87.6481 78.354 88.0625C78.354 88.4769 78.5186 88.8743 78.8116 89.1674C79.1047 89.4604 79.5021 89.625 79.9165 89.625H81.479V116.875C70.0388 112.449 57.9007 110.1 45.6353 109.938C45.1903 109.921 44.769 109.733 44.4601 109.413C44.1512 109.092 43.9787 108.664 43.979 108.219V58.5312ZM37.729 113.062V69.3125C37.7317 68.3454 38.0335 67.4028 38.593 66.614C39.1524 65.8251 39.9422 65.2286 40.854 64.9063V108.219C40.8611 109.474 41.3525 110.679 42.2257 111.581C43.099 112.484 44.2867 113.014 45.5415 113.062C55.3511 113.295 65.0824 114.872 74.4634 117.75H42.4165C41.1733 117.75 39.981 117.256 39.1019 116.377C38.2229 115.498 37.729 114.306 37.729 113.062ZM128.354 113.062C128.354 114.306 127.861 115.498 126.982 116.377C126.102 117.256 124.91 117.75 123.667 117.75H91.604C100.99 114.871 110.727 113.294 120.542 113.062C121.797 113.014 122.985 112.484 123.858 111.581C124.731 110.679 125.222 109.474 125.23 108.219V64.8594C126.149 65.1844 126.944 65.788 127.504 66.5862C128.063 67.3844 128.362 68.3374 128.354 69.3125V113.062Z" fill="#1D1E20" stroke="#1D1E20" stroke-width="0.5"/>
<path d="M50.12 66.1875C52.1825 66.3281 54.2606 66.5156 56.2919 66.7656H56.4794C56.8938 66.7905 57.3011 66.6497 57.6117 66.3743C57.9223 66.0988 58.1108 65.7113 58.1356 65.2969C58.1605 64.8825 58.0197 64.4752 57.7443 64.1646C57.4688 63.854 57.0813 63.6655 56.6669 63.6406C54.5887 63.3906 52.4481 63.1875 50.3387 63.0469C49.9243 63.0199 49.5162 63.1587 49.2041 63.4327C48.8921 63.7067 48.7016 64.0934 48.6747 64.5078C48.6477 64.9222 48.7865 65.3303 49.0605 65.6424C49.3345 65.9545 49.7212 66.1449 50.1356 66.1719L50.12 66.1875Z" fill="#1D1E20" stroke="#1D1E20" stroke-width="0.5"/>
<path d="M50.12 72.6406C53.9318 72.8893 57.7284 73.3326 61.495 73.9688H61.7606C61.9658 73.9862 62.1724 73.963 62.3687 73.9006C62.5649 73.8382 62.7469 73.7378 62.9044 73.605C63.0618 73.4723 63.1915 73.3098 63.2862 73.1269C63.3808 72.944 63.4385 72.7443 63.4559 72.5391C63.4734 72.3339 63.4502 72.1273 63.3878 71.931C63.3254 71.7348 63.225 71.5527 63.0922 71.3953C62.9594 71.2379 62.797 71.1082 62.6141 71.0135C62.4312 70.9189 62.2314 70.8612 62.0262 70.8438C58.1563 70.1871 54.2554 69.7282 50.3387 69.4688C49.9243 69.4418 49.5162 69.5806 49.2041 69.8546C48.8921 70.1286 48.7016 70.5153 48.6747 70.9297C48.6477 71.3441 48.7865 71.7522 49.0605 72.0643C49.3345 72.3764 49.7212 72.5668 50.1356 72.5938L50.12 72.6406Z" fill="#1D1E20" stroke="#1D1E20" stroke-width="0.5"/>
<path d="M48.6666 81.9219C48.6409 82.3339 48.7793 82.7394 49.0515 83.0497C49.3238 83.3601 49.7078 83.55 50.1197 83.5781C58.477 84.0902 66.7435 85.5955 74.7447 88.0625C75.1405 88.1868 75.5694 88.1488 75.9372 87.9569C76.3049 87.765 76.5814 87.4348 76.7057 87.0391C76.83 86.6433 76.792 86.2144 76.6001 85.8466C76.4081 85.4789 76.078 85.2024 75.6822 85.0781C67.445 82.5152 58.932 80.9416 50.3229 80.3906C50.1125 80.3779 49.9018 80.4079 49.7034 80.4788C49.5049 80.5497 49.3229 80.6599 49.1681 80.803C49.0134 80.946 48.8892 81.1189 48.803 81.3112C48.7168 81.5035 48.6704 81.7112 48.6666 81.9219Z" fill="#1D1E20" stroke="#1D1E20" stroke-width="0.5"/>
<path d="M75.6981 92.75C67.4608 90.1872 58.9479 88.6136 50.3387 88.0625C50.1336 88.0492 49.9277 88.0764 49.7331 88.1426C49.5384 88.2088 49.3587 88.3127 49.2041 88.4483C48.8921 88.7223 48.7016 89.109 48.6747 89.5234C48.6477 89.9378 48.7865 90.346 49.0605 90.658C49.3345 90.9701 49.7212 91.1606 50.1356 91.1875C58.4935 91.7048 66.76 93.2154 74.7606 95.6875C75.1271 95.7413 75.5007 95.6631 75.8149 95.467C76.1291 95.2709 76.3634 94.9695 76.476 94.6166C76.5887 94.2638 76.5723 93.8824 76.4298 93.5405C76.2873 93.1986 76.028 92.9185 75.6981 92.75Z" fill="#1D1E20" stroke="#1D1E20" stroke-width="0.5"/>
<path d="M75.6981 100.562C67.4609 97.9995 58.9479 96.426 50.3387 95.875C49.9243 95.8481 49.5162 95.9868 49.2041 96.2608C48.8921 96.5348 48.7016 96.9215 48.6747 97.3359C48.6477 97.7503 48.7865 98.1585 49.0605 98.4705C49.3345 98.7826 49.7212 98.9731 50.1356 99C58.4958 99.5793 66.7572 101.153 74.745 103.688C75.1594 103.814 75.607 103.77 75.9894 103.567C76.3718 103.363 76.6577 103.016 76.7841 102.602C76.9104 102.187 76.867 101.74 76.6634 101.357C76.4597 100.975 76.1125 100.689 75.6981 100.562Z" fill="#1D1E20" stroke="#1D1E20" stroke-width="0.5"/>
<path d="M90.8539 88.1563C91.0093 88.1798 91.1673 88.1798 91.3227 88.1563C99.3232 85.684 107.59 84.1734 115.948 83.6563C116.363 83.6293 116.749 83.4389 117.023 83.1268C117.297 82.8147 117.436 82.4066 117.409 81.9922C117.382 81.5778 117.192 81.1911 116.88 80.9171C116.568 80.6431 116.159 80.5043 115.745 80.5313C107.136 81.0822 98.6224 82.6558 90.3852 85.2188C90.18 85.2495 89.9829 85.3204 89.8051 85.4274C89.6273 85.5343 89.4723 85.6753 89.349 85.8421C89.0999 86.1791 88.9949 86.6012 89.057 87.0156C89.1192 87.43 89.3434 87.8028 89.6804 88.0518C90.0174 88.3009 90.4395 88.4059 90.8539 88.3438V88.1563Z" fill="#1D1E20" stroke="#1D1E20" stroke-width="0.5"/>
<path d="M90.8539 95.7656C91.0093 95.7892 91.1673 95.7892 91.3227 95.7656C99.32 93.267 107.587 91.7301 115.948 91.1875C116.153 91.1742 116.354 91.1205 116.538 91.0297C116.723 90.9388 116.888 90.8126 117.023 90.658C117.159 90.5035 117.263 90.3238 117.329 90.1291C117.395 89.9344 117.422 89.7286 117.409 89.5234C117.396 89.3182 117.342 89.1177 117.251 88.9332C117.16 88.7488 117.034 88.584 116.88 88.4483C116.725 88.3127 116.545 88.2088 116.351 88.1426C116.156 88.0764 115.95 88.0492 115.745 88.0625C107.136 88.6136 98.6224 90.1872 90.3852 92.75C89.9708 92.8122 89.598 93.0364 89.349 93.3734C89.0999 93.7103 88.9949 94.1325 89.057 94.5469C89.1192 94.9613 89.3434 95.334 89.6804 95.5831C90.0174 95.8321 90.4395 95.9372 90.8539 95.875V95.7656Z" fill="#1D1E20" stroke="#1D1E20" stroke-width="0.5"/>
<path d="M90.8539 103.688C91.0093 103.711 91.1673 103.711 91.3227 103.688C99.3232 101.215 107.59 99.7046 115.948 99.1875C116.363 99.1606 116.749 98.9701 117.023 98.658C117.297 98.346 117.436 97.9378 117.409 97.5234C117.382 97.109 117.192 96.7223 116.88 96.4483C116.568 96.1744 116.159 96.0356 115.745 96.0625C107.143 96.5525 98.6302 98.0631 90.3852 100.563C89.9708 100.625 89.598 100.849 89.349 101.186C89.0999 101.523 88.9949 101.945 89.057 102.359C89.1192 102.774 89.3434 103.147 89.6804 103.396C90.0174 103.645 90.4395 103.75 90.8539 103.688Z" fill="#1D1E20" stroke="#1D1E20" stroke-width="0.5"/>
<path d="M83.0415 34.9375C83.4559 34.9375 83.8533 34.7729 84.1464 34.4799C84.4394 34.1868 84.604 33.7894 84.604 33.375V27.125C84.604 26.7106 84.4394 26.3132 84.1464 26.0201C83.8533 25.7271 83.4559 25.5625 83.0415 25.5625C82.6271 25.5625 82.2297 25.7271 81.9366 26.0201C81.6436 26.3132 81.479 26.7106 81.479 27.125V33.375C81.479 33.7894 81.6436 34.1868 81.9366 34.4799C82.2297 34.7729 82.6271 34.9375 83.0415 34.9375Z" fill="#1D1E20" stroke="#1D1E20" stroke-width="0.5"/>
<path d="M94.0887 39.5156C94.2943 39.5168 94.4982 39.4774 94.6885 39.3996C94.8789 39.3219 95.052 39.2073 95.198 39.0625L99.6199 34.6406C99.8759 34.3417 100.01 33.9572 99.9945 33.564C99.9793 33.1707 99.8163 32.7977 99.538 32.5194C99.2597 32.2412 98.8867 32.0781 98.4934 32.0629C98.1002 32.0478 97.7157 32.1815 97.4168 32.4375L92.9793 36.8437C92.7589 37.0623 92.6087 37.3415 92.5476 37.6458C92.4866 37.9501 92.5175 38.2657 92.6365 38.5523C92.7555 38.8389 92.9572 39.0836 93.2158 39.2552C93.4745 39.4268 93.7783 39.5174 94.0887 39.5156Z" fill="#1D1E20" stroke="#1D1E20" stroke-width="0.5"/>
<path d="M70.885 39.0625C71.1839 39.3185 71.5684 39.4522 71.9616 39.437C72.3549 39.4219 72.7279 39.2588 73.0062 38.9806C73.2845 38.7023 73.4475 38.3293 73.4627 37.936C73.4779 37.5428 73.3441 37.1583 73.0881 36.8594L68.6819 32.4219C68.383 32.1659 67.9985 32.0321 67.6052 32.0473C67.212 32.0625 66.8389 32.2255 66.5607 32.5038C66.2824 32.7821 66.1194 33.1551 66.1042 33.5484C66.089 33.9416 66.2228 34.3261 66.4787 34.625L70.885 39.0625Z" fill="#1D1E20" stroke="#1D1E20" stroke-width="0.5"/>
</g>
<defs>
<clipPath id="clip0_44_152">
<rect width="166" height="165" fill="white" transform="translate(0.0415039)"/>
</clipPath>
</defs>
</svg>
