<svg width="167" height="165" viewBox="0 0 167 165" fill="none" xmlns="http://www.w3.org/2000/svg">
<g clip-path="url(#clip0_44_168)">
<path d="M83.542 0H82.542C36.9785 0 0.0419922 36.9365 0.0419922 82.5C0.0419922 128.063 36.9785 165 82.542 165H83.542C129.105 165 166.042 128.063 166.042 82.5C166.042 36.9365 129.105 0 83.542 0Z" fill="#F0A193"/>
<path d="M124.129 115.569C127.085 112.429 128.911 108.215 128.911 103.573C128.911 95.828 123.854 89.251 116.874 86.94C116.874 86.898 116.876 86.856 116.876 86.814C116.876 74.832 110.529 63.792 100.259 57.707C100.455 56.659 100.57 55.583 100.57 54.48C100.57 44.817 92.7073 36.956 83.0443 36.956C73.3793 36.956 65.5173 44.817 65.5173 54.48C65.5173 55.584 65.6323 56.66 65.8283 57.707C55.5573 63.791 49.2103 74.832 49.2103 86.814C49.2103 86.856 49.2123 86.898 49.2123 86.94C42.2293 89.251 37.1733 95.828 37.1733 103.573C37.1733 108.214 38.9983 112.427 41.9523 115.565C41.9553 115.568 41.9563 115.572 41.9583 115.575C41.9643 115.582 41.9713 115.587 41.9773 115.594C42.3743 116.014 42.7913 116.415 43.2283 116.795C43.2493 116.813 43.2683 116.832 43.2883 116.85C43.6843 117.191 44.0983 117.512 44.5243 117.818C44.5943 117.868 44.6603 117.923 44.7313 117.972C45.0823 118.216 45.4463 118.438 45.8153 118.657C45.9643 118.746 46.1093 118.844 46.2613 118.928C46.5353 119.079 46.8213 119.209 47.1033 119.346C47.3533 119.467 47.5973 119.599 47.8523 119.707C48.0233 119.78 48.2033 119.836 48.3773 119.903C48.7463 120.047 49.1133 120.194 49.4923 120.312C49.5233 120.321 49.5553 120.327 49.5853 120.336C51.2213 120.836 52.9383 121.102 54.7013 121.102C55.2963 121.102 55.8873 121.071 56.4713 121.012C56.6803 120.991 56.8843 120.949 57.0923 120.92C57.4653 120.869 57.8393 120.823 58.2053 120.749C58.4293 120.703 58.6473 120.637 58.8693 120.583C59.2143 120.498 59.5613 120.419 59.9003 120.313C60.0973 120.251 60.2883 120.173 60.4833 120.104C60.8423 119.979 61.2013 119.854 61.5513 119.705C61.7033 119.641 61.8493 119.562 61.9993 119.493C62.3873 119.314 62.7723 119.131 63.1463 118.924C63.2493 118.866 63.3463 118.802 63.4473 118.742C63.8643 118.501 64.2743 118.247 64.6723 117.97C64.7283 117.931 64.7813 117.887 64.8373 117.847C65.2733 117.535 65.6973 117.205 66.1073 116.852C66.1303 116.832 66.1513 116.811 66.1743 116.791C66.3263 116.658 66.4753 116.52 66.6233 116.383C71.6293 119.165 77.2753 120.649 83.0423 120.649C88.8113 120.649 94.4553 119.166 99.4603 116.383C99.6113 116.525 99.7643 116.666 99.9213 116.802C99.9383 116.817 99.9533 116.832 99.9703 116.846C100.37 117.191 100.785 117.514 101.215 117.822C101.282 117.871 101.347 117.924 101.415 117.971C101.767 118.215 102.133 118.439 102.503 118.658C102.651 118.747 102.795 118.844 102.946 118.928C103.219 119.079 103.505 119.209 103.787 119.346C104.037 119.467 104.282 119.598 104.537 119.707C104.706 119.779 104.885 119.834 105.057 119.901C105.428 120.046 105.797 120.193 106.177 120.312C106.204 120.32 106.232 120.325 106.259 120.333C107.898 120.835 109.618 121.102 111.386 121.102C113.14 121.102 114.849 120.837 116.477 120.342C116.516 120.33 116.556 120.323 116.595 120.311C116.968 120.195 117.33 120.049 117.695 119.909C117.874 119.839 118.059 119.782 118.235 119.706C118.486 119.6 118.726 119.47 118.971 119.352C119.258 119.213 119.548 119.081 119.825 118.927C119.973 118.845 120.114 118.75 120.26 118.663C120.633 118.442 121.001 118.218 121.357 117.971C121.422 117.925 121.485 117.874 121.549 117.827C121.982 117.517 122.4 117.192 122.8 116.847C122.815 116.834 122.828 116.821 122.843 116.808C123.287 116.423 123.71 116.015 124.114 115.588C124.118 115.584 124.122 115.58 124.126 115.576C124.127 115.573 124.127 115.571 124.129 115.569ZM125.911 103.573C125.911 106.876 124.791 109.916 122.927 112.359C122.286 111.869 121.571 111.48 120.8 111.247L115.643 109.258C115.61 109.245 115.56 109.201 115.56 109.131V108.172C117.163 106.947 118.137 105.125 118.246 103.113C118.278 102.992 118.295 102.865 118.295 102.734V99.941C118.295 99.814 118.278 99.691 118.247 99.574C118.056 95.941 115.041 93.046 111.363 93.046C107.563 93.046 104.472 96.14 104.472 99.942V102.735C104.472 104.882 105.501 106.904 107.207 108.2V109.131C107.207 109.201 107.158 109.245 107.118 109.261L101.97 111.247C101.199 111.48 100.483 111.869 99.8413 112.358C97.9783 109.915 96.8583 106.877 96.8583 103.574C96.8583 95.564 103.376 89.049 111.386 89.049C119.396 89.048 125.911 95.563 125.911 103.573ZM119.783 115.406C119.534 115.585 119.276 115.749 119.017 115.911C118.872 116.001 118.729 116.092 118.58 116.177C118.375 116.295 118.165 116.406 117.954 116.514C117.742 116.622 117.529 116.726 117.312 116.824C117.135 116.904 116.958 116.979 116.779 117.052C116.521 117.156 116.259 117.251 115.995 117.34C115.835 117.394 115.674 117.448 115.512 117.497C115.224 117.582 114.93 117.655 114.634 117.723C114.482 117.758 114.33 117.797 114.176 117.827C113.857 117.89 113.531 117.934 113.205 117.975C113.067 117.993 112.932 118.017 112.793 118.031C112.329 118.076 111.86 118.102 111.385 118.102C110.91 118.102 110.44 118.076 109.976 118.031C109.837 118.017 109.702 117.993 109.564 117.975C109.239 117.934 108.914 117.889 108.595 117.827C108.439 117.797 108.286 117.758 108.132 117.722C107.838 117.655 107.546 117.582 107.259 117.497C107.095 117.448 106.933 117.393 106.77 117.339C106.507 117.25 106.249 117.156 105.993 117.053C105.811 116.981 105.632 116.904 105.454 116.824C105.239 116.727 105.027 116.624 104.817 116.516C104.605 116.408 104.394 116.296 104.187 116.177C104.04 116.092 103.896 116.001 103.751 115.912C103.493 115.75 103.236 115.587 102.987 115.408C102.924 115.363 102.864 115.314 102.801 115.268C102.494 115.04 102.192 114.805 101.901 114.552C102.202 114.358 102.53 114.207 102.873 114.108C102.913 114.096 102.953 114.083 102.993 114.067L108.189 112.062C109.395 111.604 110.206 110.426 110.206 109.13V107.397C110.206 106.859 109.918 106.362 109.451 106.095C108.229 105.396 107.471 104.109 107.471 102.735V99.942C107.471 97.794 109.216 96.046 111.362 96.046C113.508 96.046 115.256 97.793 115.256 99.942C115.256 100.055 115.27 100.165 115.294 100.271V102.398C115.269 102.506 115.256 102.619 115.256 102.735C115.256 104.115 114.526 105.366 113.303 106.081C112.843 106.35 112.56 106.874 112.56 107.407V109.132C112.56 110.427 113.372 111.606 114.571 112.061L119.776 114.069C119.815 114.085 119.855 114.097 119.896 114.109C120.238 114.21 120.566 114.36 120.867 114.554C120.574 114.809 120.271 115.045 119.963 115.274C119.901 115.316 119.844 115.363 119.783 115.406ZM83.0433 39.956C91.0533 39.956 97.5683 46.472 97.5683 54.48C97.5683 57.784 96.4483 60.823 94.5843 63.266C93.9433 62.777 93.2283 62.389 92.4573 62.155L87.2993 60.164C87.2673 60.152 87.2163 60.107 87.2163 60.038V59.08C88.8203 57.854 89.7943 56.032 89.9033 54.02C89.9353 53.899 89.9523 53.771 89.9523 53.641V50.848C89.9523 50.721 89.9353 50.598 89.9043 50.48C89.7133 46.849 86.6983 43.954 83.0213 43.954C79.2213 43.954 76.1303 47.047 76.1303 50.848V53.641C76.1303 55.789 77.1593 57.811 78.8653 59.105V60.037C78.8653 60.106 78.8153 60.151 78.7763 60.166L73.6283 62.154C72.8573 62.387 72.1423 62.775 71.5013 63.264C69.6383 60.821 68.5183 57.783 68.5183 54.48C68.5163 46.472 75.0333 39.956 83.0433 39.956ZM91.4343 66.319C91.1913 66.493 90.9413 66.652 90.6893 66.81C90.5383 66.905 90.3853 67 90.2303 67.089C90.0313 67.204 89.8283 67.31 89.6253 67.415C89.4063 67.527 89.1873 67.634 88.9623 67.735C88.7923 67.812 88.6203 67.885 88.4473 67.955C88.1833 68.061 87.9163 68.159 87.6443 68.249C87.4893 68.301 87.3333 68.354 87.1763 68.401C86.8833 68.488 86.5843 68.562 86.2833 68.631C86.1353 68.665 85.9873 68.703 85.8373 68.733C85.5153 68.796 85.1873 68.842 84.8583 68.883C84.7223 68.9 84.5893 68.925 84.4533 68.938C83.9893 68.983 83.5193 69.009 83.0443 69.009C82.5693 69.009 82.0993 68.983 81.6343 68.938C81.4983 68.925 81.3643 68.9 81.2293 68.883C80.9003 68.842 80.5723 68.796 80.2503 68.733C80.1003 68.704 79.9523 68.666 79.8023 68.631C79.5023 68.562 79.2033 68.488 78.9103 68.401C78.7533 68.354 78.5993 68.301 78.4443 68.25C78.1723 68.159 77.9023 68.061 77.6373 67.954C77.4663 67.885 77.2973 67.812 77.1293 67.737C76.9013 67.635 76.6783 67.526 76.4563 67.413C76.2573 67.31 76.0583 67.205 75.8623 67.093C75.7003 67 75.5433 66.901 75.3843 66.802C75.1403 66.648 74.8963 66.493 74.6603 66.324C74.5823 66.269 74.5083 66.209 74.4313 66.153C74.1353 65.932 73.8413 65.705 73.5593 65.459C73.8603 65.266 74.1873 65.115 74.5303 65.015C74.5713 65.003 74.6113 64.989 74.6513 64.974L79.8473 62.968C81.0543 62.51 81.8653 61.332 81.8653 60.036V58.302C81.8653 57.763 81.5763 57.266 81.1093 57C79.8883 56.302 79.1303 55.015 79.1303 53.641V50.848C79.1303 48.701 80.8763 46.954 83.0213 46.954C85.1683 46.954 86.9143 48.701 86.9143 50.848C86.9143 50.961 86.9283 51.071 86.9523 51.177V53.304C86.9273 53.412 86.9143 53.525 86.9143 53.641C86.9143 55.021 86.1843 56.272 84.9593 56.988C84.4993 57.257 84.2173 57.781 84.2173 58.314V60.038C84.2173 61.334 85.0293 62.512 86.2293 62.966L91.4343 64.975C91.4733 64.99 91.5143 65.004 91.5543 65.016C91.8973 65.116 92.2243 65.266 92.5253 65.46C92.2373 65.711 91.9383 65.943 91.6343 66.169C91.5653 66.219 91.5013 66.271 91.4343 66.319ZM54.7003 89.048C62.7093 89.048 69.2253 95.564 69.2253 103.573C69.2253 106.789 68.1693 109.841 66.2423 112.359C65.6003 111.869 64.8853 111.48 64.1153 111.247L58.9573 109.258C58.9243 109.245 58.8743 109.2 58.8743 109.131V108.172C60.4773 106.947 61.4523 105.125 61.5613 103.113C61.5933 102.992 61.6093 102.865 61.6093 102.734V99.941C61.6093 99.817 61.5933 99.696 61.5633 99.58C61.3753 95.945 58.3593 93.046 54.6793 93.046C50.8793 93.046 47.7883 96.14 47.7883 99.942V102.735C47.7883 104.882 48.8173 106.904 50.5233 108.2V109.131C50.5233 109.201 50.4743 109.245 50.4343 109.261L45.2863 111.247C44.5153 111.48 43.7993 111.869 43.1583 112.358C41.2953 109.915 40.1753 106.877 40.1753 103.574C40.1733 95.563 46.6903 89.048 54.7003 89.048ZM63.0883 115.412C62.8193 115.604 62.5443 115.783 62.2643 115.955C62.1463 116.028 62.0273 116.101 61.9073 116.17C61.6633 116.312 61.4153 116.443 61.1643 116.57C60.9963 116.654 60.8253 116.734 60.6533 116.812C60.4323 116.912 60.2093 117.009 59.9833 117.098C59.7713 117.181 59.5563 117.255 59.3403 117.328C59.1393 117.396 58.9383 117.466 58.7343 117.524C58.4823 117.597 58.2273 117.657 57.9713 117.715C57.7903 117.757 57.6113 117.804 57.4283 117.838C57.1303 117.896 56.8273 117.935 56.5243 117.973C56.3753 117.992 56.2293 118.018 56.0793 118.033C55.6233 118.076 55.1633 118.1 54.7003 118.1C54.2243 118.1 53.7553 118.074 53.2913 118.029C53.1523 118.015 53.0163 117.991 52.8783 117.973C52.5523 117.932 52.2283 117.887 51.9093 117.825C51.7533 117.795 51.6003 117.756 51.4463 117.72C51.1533 117.653 50.8603 117.58 50.5733 117.495C50.4083 117.446 50.2463 117.391 50.0833 117.336C49.8213 117.248 49.5623 117.154 49.3063 117.052C49.1243 116.979 48.9453 116.902 48.7663 116.821C48.5523 116.724 48.3413 116.622 48.1323 116.515C47.9193 116.406 47.7073 116.294 47.4993 116.174C47.3533 116.09 47.2113 116 47.0683 115.912C46.8083 115.749 46.5493 115.584 46.2993 115.404C46.2383 115.361 46.1803 115.314 46.1203 115.27C45.8123 115.041 45.5083 114.805 45.2153 114.55C45.5163 114.356 45.8433 114.205 46.1873 114.106C46.2283 114.094 46.2683 114.081 46.3073 114.065L51.5043 112.06C52.7103 111.602 53.5203 110.423 53.5203 109.128V107.395C53.5203 106.857 53.2323 106.36 52.7653 106.093C51.5443 105.395 50.7863 104.107 50.7863 102.733V99.94C50.7863 97.792 52.5323 96.044 54.6773 96.044C56.8233 96.044 58.5703 97.791 58.5703 99.94C58.5703 100.05 58.5833 100.159 58.6073 100.263V102.396C58.5823 102.504 58.5693 102.617 58.5693 102.733C58.5693 104.113 57.8393 105.364 56.6153 106.079C56.1553 106.348 55.8723 106.872 55.8723 107.405V109.13C55.8723 110.425 56.6843 111.604 57.8843 112.059L63.0893 114.067C63.1293 114.083 63.1683 114.095 63.2093 114.107C63.5513 114.208 63.8783 114.358 64.1793 114.552C63.8863 114.808 63.5813 115.045 63.2713 115.275C63.2103 115.32 63.1503 115.368 63.0883 115.412ZM68.6843 114.098C70.9713 111.075 72.2263 107.422 72.2253 103.574C72.2253 93.911 64.3633 86.049 54.7003 86.049C53.8593 86.049 53.0383 86.129 52.2283 86.244C52.4213 75.809 57.8713 66.214 66.6733 60.691C67.4973 62.854 68.7323 64.81 70.2903 66.467C70.2943 66.472 70.2963 66.478 70.3003 66.483C70.3103 66.494 70.3223 66.504 70.3333 66.514C70.7143 66.917 71.1143 67.3 71.5313 67.665C71.5703 67.699 71.6073 67.735 71.6463 67.769C72.0213 68.091 72.4123 68.394 72.8133 68.684C72.9063 68.751 72.9943 68.824 73.0883 68.89C73.4123 69.115 73.7503 69.319 74.0893 69.522C74.2653 69.627 74.4363 69.743 74.6153 69.842C74.8563 69.975 75.1093 70.088 75.3573 70.21C75.6383 70.349 75.9153 70.496 76.2033 70.618C76.3333 70.674 76.4703 70.715 76.6013 70.767C78.6243 71.572 80.7943 72.01 83.0433 72.01C85.2743 72.01 87.4283 71.577 89.4383 70.784C89.5863 70.726 89.7403 70.679 89.8863 70.617C90.1583 70.501 90.4203 70.361 90.6863 70.231C90.9513 70.102 91.2193 69.981 91.4763 69.839C91.6393 69.748 91.7943 69.644 91.9553 69.548C92.3123 69.336 92.6673 69.12 93.0083 68.883C93.0833 68.83 93.1553 68.771 93.2303 68.717C93.6523 68.414 94.0613 68.096 94.4553 67.758C94.4753 67.741 94.4933 67.723 94.5133 67.706C94.9523 67.324 95.3713 66.92 95.7723 66.496C95.7763 66.492 95.7803 66.489 95.7843 66.485C95.7863 66.483 95.7863 66.481 95.7883 66.479C97.3513 64.82 98.5893 62.86 99.4143 60.692C108.217 66.215 113.666 75.811 113.859 86.244C113.049 86.129 112.229 86.049 111.388 86.049C101.723 86.049 93.8603 93.911 93.8603 103.574C93.8603 107.525 95.1893 111.163 97.4033 114.097C92.9963 116.419 88.0713 117.649 83.0453 117.649C78.0183 117.648 73.0933 116.42 68.6843 114.098Z" fill="#1D1E20" stroke="black"/>
</g>
<defs>
<clipPath id="clip0_44_168">
<rect width="166" height="165" fill="white" transform="translate(0.0415039)"/>
</clipPath>
</defs>
</svg>
