<svg width="167" height="165" viewBox="0 0 167 165" fill="none" xmlns="http://www.w3.org/2000/svg">
<g clip-path="url(#clip0_44_144)">
<path d="M83.5415 0H82.5415C36.978 0 0.0415039 36.9365 0.0415039 82.5C0.0415039 128.063 36.978 165 82.5415 165H83.5415C129.105 165 166.042 128.063 166.042 82.5C166.042 36.9365 129.105 0 83.5415 0Z" fill="#FE9FBF"/>
<path d="M126.823 77.4063L126.354 76.75C123.542 73.2813 119.604 72.5313 115.854 74.7813C114.26 75.8125 112.667 76.9375 110.979 78.5313C107.792 81.625 101.417 86.6875 99.1665 88.5625C98.229 88 96.9165 87.4375 95.1352 87.3438H93.8227C90.9165 87.3438 82.1977 87.5313 79.9477 87.25C79.3852 87.1563 78.4477 86.9688 77.3227 86.6875C71.7915 85.4688 66.5415 84.3438 64.104 84.3438C59.229 84.3438 55.0102 86.2188 52.104 89.6875L40.0102 103.188C37.6665 105.438 37.1977 110.406 39.9165 113.125C41.979 115.469 43.6665 117.156 45.354 118.938C46.9477 120.625 48.6352 122.313 51.0727 124.938C52.5727 126.25 54.5415 127 56.5102 127C56.6977 127 56.8852 127 57.1665 127C59.1352 126.813 60.9165 125.969 62.229 124.375C62.229 124.375 64.104 122.031 66.5415 119.125C67.3852 118.281 69.0727 117.438 70.1977 117.25C72.0727 116.969 73.7602 116.875 75.8227 116.875C77.6977 116.875 82.2915 117.063 85.5727 117.25C87.5415 117.344 89.1352 117.438 89.5102 117.438C93.8227 117.438 97.3852 116.031 101.228 112.844C104.135 110.5 123.823 87.25 126.448 83.3125L126.917 82.75C128.417 80.7813 128.417 79.4688 126.823 77.4063ZM122.229 80.5C119.229 85 100.01 107.313 98.0415 109C98.0415 109 97.9477 109 97.9477 109.094C95.0415 111.531 92.5102 112.469 89.4165 112.469C89.0415 112.469 87.5415 112.375 85.6665 112.281C82.2915 112.094 77.6977 111.906 75.729 111.906C73.3852 111.906 71.5102 112 69.2602 112.375C67.2915 112.656 64.479 113.875 62.604 115.844C60.0727 118.844 58.1977 121.188 58.1977 121.188C57.729 121.75 57.1665 121.844 56.6977 121.938C55.854 121.938 55.0102 121.656 54.5415 121.281C52.2915 118.844 50.604 117.063 48.9165 115.375C47.229 113.688 45.6352 112 43.479 109.656C42.729 108.906 42.9165 107.219 43.5727 106.563L55.7602 92.9688C57.729 90.625 60.5415 89.4063 63.9165 89.4063C65.979 89.4063 72.5415 90.8125 76.0102 91.6563C77.1352 91.9375 78.1665 92.125 78.9165 92.3125C81.354 92.5938 88.0102 92.5 93.6352 92.4063H94.7602C95.3227 92.4063 95.8852 92.6875 96.1665 92.875C96.1665 92.9688 96.2602 93.0625 96.2602 93.1563C96.1665 93.5313 96.0727 94 96.1665 93.9063L95.7915 94.6563C95.3227 95.125 94.104 96.1563 92.8852 97C91.2915 98.125 86.7915 100.188 84.8227 100.563C82.0102 101.031 80.6977 101.031 77.1352 101.031C74.979 101.031 73.0102 100.938 71.0415 100.844C68.8852 100.75 66.6352 100.656 64.0102 100.656C62.604 100.656 61.479 101.781 61.479 103.188C61.479 104.594 62.604 105.719 64.0102 105.719C66.5415 105.719 68.6977 105.813 70.854 105.906C72.9165 106 74.8852 106.094 77.1352 106.094C80.7915 106.094 82.3852 106.094 85.7602 105.531C88.5727 104.969 93.729 102.625 95.7915 101.125C97.0102 100.281 99.0727 98.6875 99.9165 97.6563C100.01 97.5625 100.103 97.375 100.197 97.1875L100.853 95.7813C101.041 95.125 101.322 94.1875 101.322 93.1563C103.104 91.75 110.604 85.8438 114.261 82.2813C115.573 80.9688 116.979 80.0313 118.292 79.1875C119.323 78.625 120.542 78.25 122.042 80.0313L122.229 80.3125V80.5Z" fill="#1D1E20"/>
<path d="M107.042 51.3438C106.854 49.4688 106.386 47.5938 105.542 45.7188C104.792 44.0313 103.761 42.5313 102.448 41.125C101.136 39.8125 99.6351 38.7813 97.9476 38.0313C94.1039 36.3438 89.2289 36.625 85.2914 38.875C84.4476 39.3438 83.6976 39.9063 82.9476 40.5625C82.1976 39.9063 81.4476 39.3438 80.6039 38.875C76.7601 36.7188 71.7914 36.4375 67.9476 38.125C66.3539 38.875 64.7601 39.8125 63.4476 41.125C62.1351 42.3438 61.1039 43.9375 60.2601 45.7188C59.4164 47.5938 58.9476 49.4688 58.7601 51.25C58.6664 52.1875 58.5726 54.0625 59.2289 56.6875C60.2601 61 62.5101 64.8438 65.9789 67.9375L81.1664 81.3438C81.3539 81.5313 81.5414 81.625 81.8226 81.7188C82.1976 81.9063 82.5726 82 82.9476 82C83.3226 82 83.6976 81.9063 84.0726 81.7188C84.2601 81.625 84.5414 81.4375 84.6351 81.3438L99.8226 67.9375C103.292 64.8438 105.636 61 106.573 56.7813C107.417 53.6875 107.136 51.8125 107.042 51.3438ZM101.604 55.6563C100.854 58.9375 99.0726 61.9375 96.4476 64.2813L82.9476 76.1875L69.4476 64.2813C66.8226 61.9375 65.0414 58.9375 64.1976 55.6563C63.7289 53.6875 63.8226 52.375 63.8226 51.8125C63.9164 50.5 64.2914 49.0938 64.8539 47.7813C65.4164 46.5625 66.0726 45.5313 67.0101 44.6875C67.8539 43.8438 68.8851 43.1875 69.9164 42.7188C70.9476 42.25 72.0726 42.0625 73.3851 42.0625C75.0726 42.0625 76.6664 42.4375 77.9789 43.2813C79.0101 43.9375 79.9476 44.7813 80.7914 45.8125C80.8851 45.9063 80.9789 46 81.0726 46.0938C81.2601 46.2813 81.5414 46.4688 81.8226 46.5625C82.1976 46.75 82.5726 46.8438 82.9476 46.8438C83.3226 46.8438 83.6976 46.75 84.0726 46.5625C84.3539 46.4688 84.5414 46.2813 84.7289 46.0938C84.8226 46 84.9164 45.9063 85.0101 45.8125C85.8539 44.7813 86.7914 43.9375 87.8226 43.2813C90.3539 41.7813 93.5414 41.6875 95.8851 42.7188C97.0101 43.1875 97.9476 43.8438 98.7914 44.6875C99.7289 45.625 100.386 46.6563 100.948 47.7813C101.511 49.0938 101.886 50.5 102.073 52.0938C102.073 52.0938 102.261 53.2188 101.604 55.6563Z" fill="#1D1E20"/>
</g>
<defs>
<clipPath id="clip0_44_144">
<rect width="166" height="165" fill="white" transform="translate(0.0415039)"/>
</clipPath>
</defs>
</svg>
