<svg xmlns="http://www.w3.org/2000/svg" version="1.1" xmlns:xlink="http://www.w3.org/1999/xlink" xmlns:svgjs="http://svgjs.com/svgjs" width="512" height="512" x="0" y="0" viewBox="0 0 512 512" style="enable-background:new 0 0 512 512" xml:space="preserve" class=""><g><path d="m510.503 242.483-56.095-151.028c-2.218-5.973-6.644-10.729-12.461-13.396-5.82-2.662-12.308-2.912-18.281-.698l-37.546 13.943c-12.36 4.592-18.682 18.385-14.092 30.745l.609 1.64c-8.883 3.372-18.797-.311-33.951-6.658-22.627-9.473-53.316-22.193-92.275 2.174-31.62-19.681-56.431-14.826-78.404-10.451-11.161 2.218-21.792 4.306-32.771 3.17-.309-2.885-1.1-5.728-2.465-8.395-2.919-5.698-7.865-9.914-13.925-11.869l-38.115-12.295c-6.063-1.955-12.54-1.423-18.236 1.489-5.696 2.919-9.912 7.865-11.865 13.925l-49.473 153.328c-4.047 12.549 2.869 26.051 15.419 30.098l38.114 12.299c2.405.777 4.874 1.162 7.333 1.162 3.743 0 7.464-.892 10.901-2.651 2.123-1.088 3.958-2.537 5.629-4.141.235 1.16.55 2.307.834 3.459l-9.542 17.839c-4.092 7.655-4.885 16.937-2.171 25.463 2.642 8.302 8.214 14.932 15.522 18.583 6.369 3.408 13.385 4.473 20.047 3.491-1.903 6.311-1.867 13.232.196 19.718 2.642 8.302 8.214 14.934 15.522 18.585 7.644 4.088 16.443 4.941 24.781 2.419 3.331-1.011 6.426-2.511 9.2-4.439 2.676 8.173 8.205 14.696 15.43 18.306 7.642 4.088 16.441 4.941 24.779 2.419 1.851-.563 3.631-1.275 5.32-2.128 2.507 10.065 9.664 19.029 18.585 23.801 4.261 2.277 9.279 3.745 14.488 3.745 9.466 0 19.56-4.851 26.862-18.5l1.424-2.664c.555.29 1.107.581 1.614.846l3.808 1.986c4.664 2.401 9.223 3.459 13.509 3.459 10.693 0 19.675-6.59 24.267-15.342 3.162-6.022 4.275-13.182 2.741-20.132 3.858.2 7.759-.259 11.572-1.414 8.563-2.595 15.59-8.344 19.786-16.189 3.39-6.338 4.617-13.452 3.595-20.468 7.162 2.973 15.083 3.36 22.637 1.072 8.637-2.617 15.725-8.419 19.957-16.331 3.459-6.471 4.687-13.743 3.588-20.9 11.673 4.653 22.936 2.525 30.756-6.043 7.928-8.683 10.594-21.986 7.629-33.857.613-.22 1.234-.443 1.924-.691l.11-.039.8 2.152c3.577 9.624 12.732 15.585 22.443 15.585 2.761 0 5.565-.48 8.299-1.495l37.544-13.943c12.362-4.592 18.684-18.382 14.094-30.744zm-438.88 28.357c-.822 2.545-2.599 4.626-5.007 5.858-2.412 1.232-5.137 1.459-7.678.64l-38.116-12.302c-5.288-1.705-8.203-7.394-6.498-12.682l49.475-153.327c.82-2.543 2.597-4.624 5.004-5.856 1.455-.745 3.029-1.124 4.608-1.124 1.032 0 2.063.16 3.068.484.002 0 .002 0 .002.002l38.116 12.297c2.543.82 4.624 2.597 5.856 5.004 1.232 2.408 1.459 5.133.64 7.678l-39.497 122.418c-.173.334-.34.676-.459 1.046-.347 1.07-.615 2.153-.92 3.23zm17.93 67.089c-4.108-2.052-7.196-5.777-8.693-10.489-1.588-4.989-1.155-10.362 1.187-14.741l10.78-20.155c.002-.002.005-.004.006-.007l5.149-9.628c4.797-8.964 15.912-12.428 24.932-7.876 5.917 4.137 14.792 12.934 8.058 25.522l-3.669 6.86-12.279 22.957c-4.872 9.072-16.214 12.513-25.471 7.557zm61.251 34.209c-2.342 4.383-6.277 7.597-11.079 9.052-4.799 1.455-9.858.964-14.407-1.466-4.108-2.052-7.196-5.779-8.693-10.491-1.588-4.986-1.153-10.36 1.189-14.738l9.412-17.594 12.279-22.957c2.342-4.381 6.277-7.594 11.076-9.049 4.802-1.459 9.856-.966 14.241 1.378 4.381 2.342 7.594 6.277 9.049 11.079 1.455 4.799.964 9.858-1.381 14.241l-3.448 6.45c-.002.007-.007.013-.011.02l-14.009 26.191c0 .002 0 .002-.002.004zm38.332 25.337c-4.802 1.455-9.856.964-14.407-1.466-4.108-2.052-7.194-5.777-8.693-10.488-1.583-4.982-1.155-10.344 1.178-14.72l.011-.02 14.009-26.191c.001-.003.002-.006.003-.009l.008-.013c2.345-4.372 6.275-7.576 11.067-9.029 4.797-1.462 9.856-.968 14.238 1.378 9.094 4.865 12.536 16.223 7.673 25.317l-7.004 13.097-6.209 11.608c-.002.004-.005.009-.007.013l-.788 1.473c-2.342 4.379-6.279 7.595-11.079 9.05zm34.446 22.713c-9.07-4.851-15.56-17.02-10.369-26.725l6.209-11.608.007-.016c2.421-4.513 6.725-8.139 11.813-9.946 5.079-1.806 10.178-1.565 14.362.673 9.117 4.874 10.588 9.139 10.898 11.923.473 4.209-1.309 9.806-5.77 18.146-.003.007-.005.014-.008.02l-4.521 8.453c-7.658 14.33-17.457 11.839-22.621 9.08zm67.194-20.695c-3.263 6.227-10.461 10.502-19.191 6.011l-3.707-1.935c-.613-.324-1.185-.624-1.716-.901 2.802-6.232 4.844-13.004 4.092-19.718-.848-7.571-5.049-13.885-12.671-19.21l27.249 14.633c9.106 6.394 9.075 15.155 5.944 21.12zm116.664-103.306c-4.455 4.885-10.57 5.299-18.18 1.225l-19.734-10.554c-.014-.007-.027-.014-.041-.02-.202-.108-.413-.17-.62-.256l-63.633-34.541c-3.351-1.827-7.556-.579-9.38 2.781-1.822 3.358-.579 7.556 2.781 9.38l64.979 35.272c4.301 2.522 7.495 6.489 8.965 11.333 1.545 5.099 1.025 10.47-1.466 15.126-2.489 4.655-6.669 8.07-11.768 9.615-5.108 1.543-10.475 1.025-15.126-1.464l-19.62-10.494c-.341-.278-.709-.532-1.111-.747l-47.35-25.317c-3.374-1.806-7.563-.527-9.362 2.84-1.802 3.369-.532 7.561 2.84 9.362l46.16 24.681c.342.28.713.535 1.118.751 4.588 2.453 7.953 6.57 9.475 11.597 1.522 5.025 1.009 10.317-1.444 14.903-2.453 4.588-6.572 7.95-11.597 9.475-5.022 1.52-10.317 1.009-14.903-1.444l-10.016-5.356c-.504-.269-1.028-.448-1.557-.583l-40.426-21.707c-3.367-1.82-7.563-.547-9.367 2.822-1.809 3.365-.545 7.561 2.822 9.367l8.496 4.562c-5.768-2.126-12.086-2.528-18.408-.954 1.786-13.099-4.572-26.54-16.892-33.13-7.57-4.049-16.281-4.93-24.549-2.486-.059-2.973-.527-5.959-1.414-8.889-2.527-8.34-8.128-15.182-15.768-19.268-7.68-4.104-16.283-4.811-24.069-2.64-.133-11.754-7.594-21.529-16.479-27.767-.304-.234-.628-.444-.973-.628-13.265-7.092-29.297-4.027-39.123 6.468-.159-7.195.825-14.42 2.824-21.491l39.489-122.393c13.349 1.545 25.7-.904 37.689-3.294 19.932-3.964 38.862-7.732 63.323 5.601-5.329 4.243-10.689 9.085-16.018 14.468-4.218 4.266-8.556 8.525-12.788 12.68-15.428 15.153-28.752 28.24-32.562 37.528-.921 2.245-.599 4.808.849 6.754 27.538 37.035 60.911 24.468 87.716 14.374 20.096-7.57 37.452-14.11 51.278-3.169.261.207.536.394.824.561 6.603 3.826 15.698 8.317 26.229 13.518 25.461 12.576 60.332 29.799 69.343 43.495 6.055 9.197 4.134 21.929-1.456 28.053zm11.941-37.106c-12.079-16.381-46.128-33.231-73.697-46.845-10.085-4.982-18.826-9.297-25.011-12.849-19.86-15.349-42.461-6.84-64.325 1.394-25.914 9.754-48.447 18.236-69.03-6.252 4.835-7.225 16.38-18.563 27.598-29.58 4.279-4.203 8.662-8.509 12.928-12.82 7.392-7.466 14.789-13.746 22.001-18.709 34.854-23.968 60.692-13.169 83.495-3.626 10.662 4.464 21.545 9.02 32.31 9.02 3.954 0 7.887-.722 11.793-2.181l45.061 121.324c-1.05.378-2.113.761-3.123 1.124zm72.213 1.174-37.544 13.943c-5.225 1.928-11.025-.73-12.957-5.937l-56.093-151.033c-.93-2.504-.822-5.236.304-7.696 1.128-2.459 3.128-4.326 5.633-5.257l37.544-13.943c1.128-.419 2.302-.628 3.475-.628 1.437 0 2.872.313 4.225.932 2.457 1.126 4.324 3.128 5.254 5.635l56.095 151.029c1.935 5.21-.729 11.02-5.936 12.955z" fill="#115A78" data-original="#000000" class=""></path></g></svg>