<svg xmlns="http://www.w3.org/2000/svg" version="1.1" xmlns:xlink="http://www.w3.org/1999/xlink" xmlns:svgjs="http://svgjs.com/svgjs" width="512" height="512" x="0" y="0" viewBox="0 0 510.024 510.024" style="enable-background:new 0 0 512 512" xml:space="preserve"><g><g><path d="m495.048 464.188v-52.556c.954-30.16-36.745-48.621-59.984-29.976v-172.841c50.464-4.193 48.805-79.761-2.833-80.804-56.542-169.59-297.908-169.496-354.415-.013-50.136-.636-55.572 77.121-2.824 80.749v172.915c-23.246-18.65-60.942-.197-59.991 29.971-.001-.001-.001 52.555-.001 52.555h-15v44.984h420.021v-15h-405.021v-14.984h480.024v14.984h-30.002v15h45.002v-44.984zm-37.492-75.048c12.402 0 22.492 10.09 22.492 22.492v52.556h-44.984v-52.556c0-12.402 10.09-22.492 22.492-22.492zm-37.508 75.048h-44.984v-52.556c0-12.402 10.09-22.492 22.492-22.492s22.492 10.09 22.492 22.492zm.016-150.008h-60v-45.056h60zm36.995-145.709c-.001 12.461-7.755 25.165-25.07 25.485h-109.608c-15.458-1.056-21.482-9-23.813-15.497-5.114-15.383 3.727-35.272 22.256-35.551 5.454-.439 14.485 3.428 20.299 6.128 5.635-18.555 20.057-27.793 35.97-27.6 16.368-.126 30.38 9.221 36.155 28.062 20.174-13.759 43.779-4.006 43.811 18.973zm-174.634-4.29h-55.153c-1.615-16.143-12.338-31.611-31.505-35.327 30.336-32.856 87.759-32.993 118.232-.286-17.024 2.718-29.751 18.783-31.574 35.613zm51.583-35.151c-36.319-53.069-122.057-52.894-158.192.314-2.833-4.536-6.374-8.496-10.478-11.794 42.175-58.102 136.859-58.181 179.212-.208-4.121 3.262-7.681 7.187-10.542 11.688zm-78.987-113.996c69.56 0 132.221 42.648 158.52 105.777-6.106-6.041-13.819-10.388-22.524-12.628-13.524-23.396-32.866-42.967-56.177-56.756l-7.637 12.91c18.019 10.658 33.424 25.129 45.16 42.316-5.149.422-10.069 1.515-14.641 3.243-47.825-67.893-157.812-67.846-205.501.12-4.543-1.752-9.436-2.869-14.559-3.327 36.944-56.112 115.148-78.231 176.178-49.323l6.221-13.649c-71.338-33.778-162.501-4.571-200.949 64.323-8.595 2.119-16.251 6.281-22.37 12.094 26.509-63.516 88.128-105.1 158.279-105.1zm-201.017 163.426c-6.133-20.647 9.214-43.909 35.582-32.457.001 0 6.973 3.034 6.973 3.034 5.635-18.555 20.057-27.793 35.97-27.6 16.368-.127 30.381 9.221 36.156 28.062 43.894-27.82 63.069 41.434 18.74 44.457 0-.001-22.403-.001-22.403-.001v15c28.719 1.308 52.95-.268 61.117-29.775h57.032c4.081 17.419 18.514 28.524 38.487 29.76.37.084 97.971-.029 98.407.015v45.168h-75v75.056h75v52.489c-23.244-18.66-60.95-.208-59.999 29.964-.001-.001-.001 52.555-.001 52.555h-45.016v-180.023h-120v180.024h-45.063v-52.556c.954-30.165-36.755-48.624-59.992-29.97v-52.482h74.937v-75.056h-74.939v-45.168h60.029v-15h-72.206c-15.457-1.055-21.481-9-23.811-15.496zm246.044 285.728h-90v-165.024h90zm-210.056-195.064h59.937v45.056h-59.937zm44.992 195.064h-44.984v-52.556c0-12.402 10.09-22.492 22.492-22.492s22.492 10.09 22.492 22.492zm-104.984-52.556c.533-29.561 44.457-29.554 44.984.001 0-.001 0 52.555 0 52.555h-44.984z" fill="#115A78" data-original="#000000"></path><path d="m435.021 494.172h15v15h-15z" fill="#115A78" data-original="#000000"></path><path d="m255.021 374.28c39.632-.711 39.626-59.608-.001-60.313-39.631.711-39.624 59.608.001 60.313zm0-45.313c19.919.357 19.916 29.959-.001 30.313-19.917-.357-19.915-29.959.001-30.313z" fill="#115A78" data-original="#000000"></path><path d="m270.178 389.151h15v15h-15z" fill="#115A78" data-original="#000000"></path><path d="m217.521 224.14h15v15h-15z" fill="#115A78" data-original="#000000"></path><path d="m247.521 224.14h15v15h-15z" fill="#115A78" data-original="#000000"></path><path d="m277.521 224.14h15v15h-15z" fill="#115A78" data-original="#000000"></path><path d="m104.992 284.151h15v15h-15z" fill="#115A78" data-original="#000000"></path><path d="m375.048 284.151h15v15h-15z" fill="#115A78" data-original="#000000"></path></g></g></svg>