<svg width="1717" height="892" viewBox="0 0 1717 892" fill="none" xmlns="http://www.w3.org/2000/svg">
<path d="M487.222 493.375L495.364 517.475H521.875L500.478 532.375L508.619 556.575L487.222 541.575L465.825 556.575L473.967 532.375L452.57 517.475H479.081L487.222 493.375Z" fill="#E8EAED"/>
<path d="M806.61 386.475L807.236 388.375H809.428L807.654 389.575L808.384 391.575L806.61 390.375L804.836 391.575L805.566 389.575L803.792 388.375H805.984L806.61 386.475Z" fill="#E8EAED"/>
<path d="M738.766 418.575L743.881 433.575H760.268L747.012 442.875L752.126 457.875L738.766 448.575L725.406 457.875L730.521 442.875L717.265 433.575H733.652L738.766 418.575Z" fill="#E8EAED"/>
<path d="M385.979 329.975L388.588 337.775H397.251L390.258 342.575L392.972 350.475L385.979 345.575L378.985 350.475L381.699 342.575L374.706 337.775H383.369L385.979 329.975Z" fill="#E8EAED"/>
<path d="M1016.4 697.075L1019.53 706.175H1029.55L1021.41 711.875L1024.54 720.975L1016.4 715.275L1008.26 720.975L1011.39 711.875L1003.25 706.175H1013.27L1016.4 697.075Z" fill="#E8EAED"/>
<path d="M932.904 472.475L933.739 475.075H936.661L934.365 476.675L935.2 479.375L932.904 477.675L930.608 479.375L931.443 476.675L929.146 475.075H932.069L932.904 472.475Z" fill="#E8EAED"/>
<path d="M1493.4 36.4749L1498.3 50.8749H1513.96L1501.23 59.7749L1506.13 74.0749L1493.4 65.1749L1480.66 74.0749L1485.57 59.7749L1472.84 50.8749H1488.49L1493.4 36.4749Z" fill="#E8EAED"/>
<path d="M301.435 711.575L306.549 726.575H322.936L309.68 735.875L314.795 750.875L301.435 741.575L288.075 750.875L293.189 735.875L279.934 726.575H296.32L301.435 711.575Z" fill="#E8EAED"/>
<path d="M1547.67 181.675L1549.24 186.275H1554.25L1550.18 189.075L1551.74 193.575L1547.67 190.775L1543.6 193.575L1545.17 189.075L1541.1 186.275H1546.11L1547.67 181.675Z" fill="#E8EAED"/>
<path d="M910.985 78.4749L915.89 92.8749H931.547L918.813 101.775L923.718 116.075L910.985 107.175L898.251 116.075L903.157 101.775L890.423 92.8749H906.079L910.985 78.4749Z" fill="#E8EAED"/>
<path d="M946.473 0.774841L952.422 18.3748H971.731L956.179 29.2748L962.129 46.8748L946.473 35.9748L930.816 46.8748L936.766 29.2748L921.214 18.3748H940.523L946.473 0.774841Z" fill="#E8EAED"/>
<path d="M78.0727 707.375L82.2477 719.775H95.9209L84.8571 727.375L89.0321 739.775L78.0727 732.075L67.1134 739.775L71.2884 727.375L60.2246 719.775H73.8977L78.0727 707.375Z" fill="#E8EAED"/>
<path d="M1064.42 128.275L1068.17 139.275H1080.39L1070.47 146.175L1074.23 157.275L1064.42 150.375L1054.6 157.275L1058.36 146.175L1048.45 139.275H1060.66L1064.42 128.275Z" fill="#E8EAED"/>
<path d="M1130.17 585.575L1135.5 601.275H1152.61L1138.73 610.975L1144.05 626.575L1130.17 616.975L1116.29 626.575L1121.61 610.975L1107.73 601.275H1124.85L1130.17 585.575Z" fill="#E8EAED"/>
<path d="M874.454 728.375L874.871 729.675H876.333L875.185 730.475L875.602 731.775L874.454 730.975L873.306 731.775L873.723 730.475L872.575 729.675H874.036L874.454 728.375Z" fill="#E8EAED"/>
<path d="M1696.93 773.775L1698.91 779.675H1705.38L1700.16 783.275L1702.15 789.175L1696.93 785.475L1691.71 789.175L1693.69 783.275L1688.47 779.675H1694.95L1696.93 773.775Z" fill="#E8EAED"/>
<path d="M182.447 186.775L188.188 203.675H206.767L191.737 214.175L197.477 231.175L182.447 220.675L167.417 231.175L173.158 214.175L158.128 203.675H176.707L182.447 186.775Z" fill="#E8EAED"/>
<path d="M148.004 67.0748L151.135 76.1748H161.155L153.014 81.8748L156.145 90.9748L148.004 85.2748L139.863 90.9748L142.994 81.8748L134.853 76.1748H144.873L148.004 67.0748Z" fill="#E8EAED"/>
<path d="M1511.14 377.275L1514.9 388.275H1527.11L1517.2 395.175L1520.95 406.275L1511.14 399.375L1501.33 406.275L1505.09 395.175L1495.17 388.275H1507.38L1511.14 377.275Z" fill="#E8EAED"/>
<path d="M1570.64 807.375L1571.05 808.675H1572.51L1571.37 809.475L1571.78 810.775L1570.64 809.975L1569.49 810.775L1569.9 809.475L1568.76 808.675H1570.22L1570.64 807.375Z" fill="#E8EAED"/>
<path d="M1306.57 123.875L1312.93 142.775H1333.7L1316.9 154.475L1323.37 173.375L1306.57 161.775L1289.76 173.375L1296.23 154.475L1279.43 142.775H1300.2L1306.57 123.875Z" fill="#E8EAED"/>
<path d="M1127.04 41.1749L1134.56 63.3749H1158.88L1139.25 77.0749L1146.77 99.2749L1127.04 85.5749L1107.31 99.2749L1114.83 77.0749L1095.21 63.3749H1119.53L1127.04 41.1749Z" fill="#E8EAED"/>
<path d="M1048.76 496.475L1049.59 499.075H1052.52L1050.22 500.675L1051.06 503.375L1048.76 501.675L1046.46 503.375L1047.3 500.675L1045 499.075H1047.92L1048.76 496.475Z" fill="#E8EAED"/>
<path d="M384.935 94.8748L387.127 101.375H394.329L388.484 105.375L390.675 111.875L384.935 107.875L379.194 111.875L381.386 105.375L375.541 101.375H382.743L384.935 94.8748Z" fill="#E8EAED"/>
<path d="M1414.07 839.975L1420.75 859.575H1442.15L1424.82 871.575L1431.4 891.175L1414.07 879.075L1396.75 891.175L1403.32 871.575L1386 859.575H1407.39L1414.07 839.975Z" fill="#E8EAED"/>
<path d="M686.579 552.775L692.528 570.375H711.837L696.285 581.275L702.235 598.875L686.579 587.975L670.922 598.875L676.872 581.275L661.32 570.375H680.629L686.579 552.775Z" fill="#E8EAED"/>
<path d="M1396.33 581.475L1401.23 595.875H1416.89L1404.16 604.775L1409.06 619.075L1396.33 610.175L1383.6 619.075L1388.5 604.775L1375.77 595.875H1391.42L1396.33 581.475Z" fill="#E8EAED"/>
<path d="M1709.45 210.675L1711.23 215.975H1716.97L1712.27 219.175L1714.05 224.375L1709.45 221.175L1704.86 224.375L1706.64 219.175L1701.94 215.975H1707.68L1709.45 210.675Z" fill="#E8EAED"/>
<path d="M228.372 726.975L235.052 746.575H256.449L239.123 758.575L245.699 778.175L228.372 766.075L211.046 778.175L217.622 758.575L200.295 746.575H221.692L228.372 726.975Z" fill="#E8EAED"/>
<path d="M29.0162 374.975L35.905 395.275H58.0325L40.08 407.775L46.9687 427.975L29.0162 415.475L11.0637 427.975L17.9525 407.775L0 395.275H22.1275L29.0162 374.975Z" fill="#E8EAED"/>
<path d="M1024.75 187.075L1031.85 207.975H1054.71L1036.23 220.875L1043.33 241.675L1024.75 228.775L1006.17 241.675L1013.27 220.875L994.798 207.975H1017.66L1024.75 187.075Z" fill="#E8EAED"/>
<path d="M145.916 611.075L149.048 620.175H159.068L150.926 625.875L154.058 634.975L145.916 629.275L137.775 634.975L140.906 625.875L132.765 620.175H142.785L145.916 611.075Z" fill="#E8EAED"/>
<path d="M170.966 856.875L173.367 864.075H181.3L174.933 868.475L177.333 875.675L170.966 871.275L164.6 875.675L167 868.475L160.633 864.075H168.566L170.966 856.875Z" fill="#E8EAED"/>
<path d="M646.916 838.275L650.882 850.075H663.825L653.387 857.275L657.354 868.975L646.916 861.775L636.479 868.975L640.445 857.275L630.007 850.075H642.95L646.916 838.275Z" fill="#E8EAED"/>
<path d="M1594.64 482.175L1602.16 504.375H1626.48L1606.85 518.075L1614.37 540.275L1594.64 526.575L1574.91 540.275L1582.43 518.075L1562.81 504.375H1587.13L1594.64 482.175Z" fill="#E8EAED"/>
<path d="M666.747 163.375L667.165 164.675H668.626L667.478 165.475L667.896 166.775L666.747 165.975L665.599 166.775L666.017 165.475L664.869 164.675H666.33L666.747 163.375Z" fill="#E8EAED"/>
<path d="M401.635 574.675L407.167 590.975H425.015L410.611 601.075L416.143 617.375L401.635 607.275L387.127 617.375L392.659 601.075L378.255 590.975H396.103L401.635 574.675Z" fill="#E8EAED"/>
</svg>
